<svg width="183" height="28" viewBox="0 0 183 28" fill="none" xmlns="http://www.w3.org/2000/svg">
<path d="M4.24432 27H0.920455L10.5341 0.818181H13.8068L23.4205 27H20.0966L12.2727 4.96023H12.0682L4.24432 27ZM5.47159 16.7727H18.8693V19.5852H5.47159V16.7727ZM27.4986 27V0.818181H36.652C38.4759 0.818181 39.9801 1.13352 41.1648 1.7642C42.3494 2.38636 43.2315 3.22585 43.8111 4.28267C44.3906 5.33096 44.6804 6.49432 44.6804 7.77273C44.6804 8.89773 44.4801 9.8267 44.0795 10.5597C43.6875 11.2926 43.1676 11.8722 42.5199 12.2983C41.8807 12.7244 41.1861 13.0398 40.4361 13.2443V13.5C41.2372 13.5511 42.0426 13.8324 42.8523 14.3438C43.6619 14.8551 44.3395 15.5881 44.8849 16.5426C45.4304 17.4972 45.7031 18.6648 45.7031 20.0455C45.7031 21.358 45.4048 22.5384 44.8082 23.5866C44.2116 24.6349 43.2699 25.4659 41.983 26.0795C40.696 26.6932 39.0213 27 36.9588 27H27.4986ZM30.669 24.1875H36.9588C39.0298 24.1875 40.5 23.7869 41.3693 22.9858C42.2472 22.1761 42.6861 21.196 42.6861 20.0455C42.6861 19.1591 42.4602 18.3409 42.0085 17.5909C41.5568 16.8324 40.9134 16.2273 40.0781 15.7756C39.2429 15.3153 38.2543 15.0852 37.1122 15.0852H30.669V24.1875ZM30.669 12.3239H36.5497C37.5043 12.3239 38.3651 12.1364 39.1321 11.7614C39.9077 11.3864 40.5213 10.858 40.973 10.1761C41.4332 9.49432 41.6634 8.69318 41.6634 7.77273C41.6634 6.62216 41.2628 5.64631 40.4616 4.84517C39.6605 4.03551 38.3906 3.63068 36.652 3.63068H30.669V12.3239ZM73.0036 13.9091C73.0036 16.6705 72.505 19.0568 71.5078 21.0682C70.5107 23.0795 69.1428 24.6307 67.4041 25.7216C65.6655 26.8125 63.6797 27.358 61.4467 27.358C59.2138 27.358 57.228 26.8125 55.4893 25.7216C53.7507 24.6307 52.3828 23.0795 51.3857 21.0682C50.3885 19.0568 49.8899 16.6705 49.8899 13.9091C49.8899 11.1477 50.3885 8.76136 51.3857 6.75C52.3828 4.73864 53.7507 3.1875 55.4893 2.09659C57.228 1.00568 59.2138 0.460226 61.4467 0.460226C63.6797 0.460226 65.6655 1.00568 67.4041 2.09659C69.1428 3.1875 70.5107 4.73864 71.5078 6.75C72.505 8.76136 73.0036 11.1477 73.0036 13.9091ZM69.9354 13.9091C69.9354 11.642 69.5561 9.72869 68.7976 8.16903C68.0476 6.60938 67.0291 5.42898 65.7422 4.62784C64.4638 3.8267 63.032 3.42614 61.4467 3.42614C59.8615 3.42614 58.4254 3.8267 57.1385 4.62784C55.8601 5.42898 54.8416 6.60938 54.0831 8.16903C53.3331 9.72869 52.9581 11.642 52.9581 13.9091C52.9581 16.1761 53.3331 18.0895 54.0831 19.6491C54.8416 21.2088 55.8601 22.3892 57.1385 23.1903C58.4254 23.9915 59.8615 24.392 61.4467 24.392C63.032 24.392 64.4638 23.9915 65.7422 23.1903C67.0291 22.3892 68.0476 21.2088 68.7976 19.6491C69.5561 18.0895 69.9354 16.1761 69.9354 13.9091ZM95.5163 0.818181H98.6868V18.1534C98.6868 19.9432 98.2649 21.5412 97.4212 22.9474C96.5859 24.3452 95.4055 25.4489 93.88 26.2585C92.3544 27.0597 90.5646 27.4602 88.5107 27.4602C86.4567 27.4602 84.6669 27.0597 83.1413 26.2585C81.6158 25.4489 80.4311 24.3452 79.5874 22.9474C78.7521 21.5412 78.3345 19.9432 78.3345 18.1534V0.818181H81.505V17.8977C81.505 19.1761 81.7862 20.3139 82.3487 21.3111C82.9112 22.2997 83.7124 23.0795 84.7521 23.6506C85.8004 24.2131 87.0533 24.4943 88.5107 24.4943C89.968 24.4943 91.2209 24.2131 92.2692 23.6506C93.3175 23.0795 94.1186 22.2997 94.6726 21.3111C95.2351 20.3139 95.5163 19.1761 95.5163 17.8977V0.818181ZM103.586 3.63068V0.818181H123.223V3.63068H114.99V27H111.819V3.63068H103.586ZM155.423 0.818181H158.593V18.1534C158.593 19.9432 158.171 21.5412 157.327 22.9474C156.492 24.3452 155.312 25.4489 153.786 26.2585C152.261 27.0597 150.471 27.4602 148.417 27.4602C146.363 27.4602 144.573 27.0597 143.048 26.2585C141.522 25.4489 140.337 24.3452 139.494 22.9474C138.658 21.5412 138.241 19.9432 138.241 18.1534V0.818181H141.411V17.8977C141.411 19.1761 141.692 20.3139 142.255 21.3111C142.817 22.2997 143.619 23.0795 144.658 23.6506C145.707 24.2131 146.96 24.4943 148.417 24.4943C149.874 24.4943 151.127 24.2131 152.175 23.6506C153.224 23.0795 154.025 22.2997 154.579 21.3111C155.141 20.3139 155.423 19.1761 155.423 17.8977V0.818181ZM179.243 7.36364C179.089 6.06818 178.467 5.0625 177.376 4.34659C176.285 3.63068 174.947 3.27273 173.362 3.27273C172.203 3.27273 171.189 3.46023 170.319 3.83523C169.458 4.21023 168.785 4.72585 168.299 5.3821C167.822 6.03835 167.583 6.78409 167.583 7.61932C167.583 8.31818 167.75 8.91903 168.082 9.42188C168.423 9.91619 168.858 10.3295 169.386 10.6619C169.914 10.9858 170.468 11.2543 171.048 11.4673C171.627 11.6719 172.16 11.8381 172.646 11.9659L175.305 12.6818C175.987 12.8608 176.745 13.108 177.581 13.4233C178.424 13.7386 179.23 14.169 179.997 14.7145C180.772 15.2514 181.412 15.9418 181.914 16.7855C182.417 17.6293 182.669 18.6648 182.669 19.892C182.669 21.3068 182.298 22.5852 181.556 23.7273C180.824 24.8693 179.75 25.777 178.335 26.4503C176.929 27.1236 175.22 27.4602 173.208 27.4602C171.333 27.4602 169.71 27.1577 168.338 26.5526C166.974 25.9474 165.9 25.1037 165.116 24.0213C164.341 22.9389 163.902 21.6818 163.799 20.25H167.072C167.157 21.2386 167.49 22.0568 168.069 22.7045C168.657 23.3437 169.399 23.821 170.294 24.1364C171.197 24.4432 172.169 24.5966 173.208 24.5966C174.419 24.5966 175.505 24.4006 176.468 24.0085C177.431 23.608 178.194 23.054 178.757 22.3466C179.319 21.6307 179.6 20.7955 179.6 19.8409C179.6 18.9716 179.358 18.2642 178.872 17.7188C178.386 17.1733 177.747 16.7301 176.954 16.3892C176.162 16.0483 175.305 15.75 174.385 15.4943L171.163 14.5739C169.118 13.9858 167.498 13.1463 166.305 12.0554C165.112 10.9645 164.515 9.53693 164.515 7.77273C164.515 6.30682 164.912 5.02841 165.704 3.9375C166.505 2.83807 167.579 1.98579 168.926 1.38068C170.281 0.767045 171.794 0.460226 173.464 0.460226C175.152 0.460226 176.652 0.762783 177.964 1.3679C179.277 1.96449 180.316 2.78267 181.083 3.82244C181.859 4.86221 182.268 6.04261 182.311 7.36364H179.243Z" fill="#19126B"/>
</svg>
