<svg width="69" height="16" viewBox="0 0 69 16" fill="none" xmlns="http://www.w3.org/2000/svg">
<path d="M2.35795 15H0.511364L5.85227 0.454545H7.67045L13.0114 15H11.1648L6.81818 2.75568H6.70455L2.35795 15ZM3.03977 9.31818H10.483V10.8807H3.03977V9.31818ZM15.277 15V0.454545H20.3622C21.3755 0.454545 22.2112 0.629735 22.8693 0.980114C23.5275 1.32576 24.0175 1.79214 24.3395 2.37926C24.6615 2.96165 24.8224 3.60795 24.8224 4.31818C24.8224 4.94318 24.7112 5.45928 24.4886 5.86648C24.2708 6.27367 23.982 6.59564 23.6222 6.83239C23.267 7.06913 22.8812 7.24432 22.4645 7.35795V7.5C22.9096 7.52841 23.357 7.68466 23.8068 7.96875C24.2566 8.25284 24.633 8.66004 24.9361 9.19034C25.2391 9.72064 25.3906 10.3693 25.3906 11.1364C25.3906 11.8655 25.2249 12.5213 24.8935 13.1037C24.562 13.6861 24.0388 14.1477 23.3239 14.4886C22.6089 14.8295 21.6785 15 20.5327 15H15.277ZM17.0384 13.4375H20.5327C21.6832 13.4375 22.5 13.215 22.983 12.7699C23.4706 12.3201 23.7145 11.7756 23.7145 11.1364C23.7145 10.6439 23.589 10.1894 23.3381 9.77273C23.0871 9.35133 22.7296 9.01515 22.2656 8.7642C21.8016 8.50852 21.2524 8.38068 20.6179 8.38068H17.0384V13.4375ZM17.0384 6.84659H20.3054C20.8357 6.84659 21.3139 6.74242 21.7401 6.53409C22.1709 6.32576 22.5118 6.0322 22.7628 5.65341C23.0185 5.27462 23.1463 4.82955 23.1463 4.31818C23.1463 3.67898 22.9238 3.13684 22.4787 2.69176C22.0336 2.24195 21.3281 2.01705 20.3622 2.01705H17.0384V6.84659ZM40.5575 7.72727C40.5575 9.26136 40.2805 10.5871 39.7266 11.7045C39.1726 12.822 38.4126 13.6837 37.4467 14.2898C36.4808 14.8958 35.3776 15.1989 34.1371 15.1989C32.8965 15.1989 31.7933 14.8958 30.8274 14.2898C29.8615 13.6837 29.1016 12.822 28.5476 11.7045C27.9936 10.5871 27.7166 9.26136 27.7166 7.72727C27.7166 6.19318 27.9936 4.86742 28.5476 3.75C29.1016 2.63258 29.8615 1.77083 30.8274 1.16477C31.7933 0.558712 32.8965 0.255681 34.1371 0.255681C35.3776 0.255681 36.4808 0.558712 37.4467 1.16477C38.4126 1.77083 39.1726 2.63258 39.7266 3.75C40.2805 4.86742 40.5575 6.19318 40.5575 7.72727ZM38.853 7.72727C38.853 6.4678 38.6423 5.40483 38.2209 4.53835C37.8042 3.67188 37.2384 3.0161 36.5234 2.57102C35.8132 2.12595 35.0178 1.90341 34.1371 1.90341C33.2564 1.90341 32.4586 2.12595 31.7436 2.57102C31.0334 3.0161 30.4676 3.67188 30.0462 4.53835C29.6295 5.40483 29.4212 6.4678 29.4212 7.72727C29.4212 8.98674 29.6295 10.0497 30.0462 10.9162C30.4676 11.7827 31.0334 12.4384 31.7436 12.8835C32.4586 13.3286 33.2564 13.5511 34.1371 13.5511C35.0178 13.5511 35.8132 13.3286 36.5234 12.8835C37.2384 12.4384 37.8042 11.7827 38.2209 10.9162C38.6423 10.0497 38.853 8.98674 38.853 7.72727ZM53.0646 0.454545H54.826V10.0852C54.826 11.0795 54.5916 11.9673 54.1229 12.7486C53.6589 13.5251 53.0031 14.1383 52.1555 14.5881C51.308 15.0331 50.3137 15.2557 49.1726 15.2557C48.0315 15.2557 47.0372 15.0331 46.1896 14.5881C45.3421 14.1383 44.6839 13.5251 44.2152 12.7486C43.7512 11.9673 43.5192 11.0795 43.5192 10.0852V0.454545H45.2805V9.94318C45.2805 10.6534 45.4368 11.2855 45.7493 11.8395C46.0618 12.3887 46.5069 12.822 47.0845 13.1392C47.6669 13.4517 48.3629 13.608 49.1726 13.608C49.9822 13.608 50.6783 13.4517 51.2607 13.1392C51.843 12.822 52.2881 12.3887 52.5959 11.8395C52.9084 11.2855 53.0646 10.6534 53.0646 9.94318V0.454545ZM57.5479 2.01705V0.454545H68.457V2.01705H63.8832V15H62.1218V2.01705H57.5479Z" fill="#2414DB"/>
</svg>
