<svg width="272" height="25" viewBox="0 0 272 25" fill="none" xmlns="http://www.w3.org/2000/svg">
<path d="M9.45143 24.4286C6.70857 24.4286 4.34286 23.1943 2.76571 21.1714C1.12 19.0114 0.262857 16.0286 0.262857 12.5314C0.262857 9.20571 1.12 6.36 2.76571 4.06286C4.41143 1.76572 6.57143 0.599999 9.17714 0.599999C11.3714 0.599999 13.0857 1.11429 14.3543 1.97143C15.5886 2.82857 16.48 3.78857 17.1314 5.09143L15.4171 5.98286C14.08 3.68571 12.16 2.55429 9.45143 2.55429C7.25714 2.55429 5.44 3.68571 4.20571 5.64C2.93714 7.66286 2.32 9.92571 2.32 12.5314C2.32 14.9657 2.97143 17.4 4.20571 19.3543C5.44 21.3429 7.25714 22.4057 9.45143 22.4057C10.9943 22.4057 12.1943 22.2343 13.1886 21.7543C14.08 21.3429 14.8 20.5886 15.4857 19.32L17.0971 20.0057C16.4114 21.3771 15.5543 22.5086 14.5257 23.2629C13.4286 24.0514 11.7143 24.4286 9.45143 24.4286ZM27.4682 10.7829C26.0967 10.7829 24.8967 11.2629 24.1767 12.12C23.491 12.9429 23.011 14.6571 23.011 16.6114C23.011 18.6343 23.491 20.2114 24.1767 21.0686C24.8967 22.0286 26.0625 22.4057 27.4682 22.4057C28.771 22.4057 29.971 22.0286 30.7253 21.0686C31.5139 20.1771 31.9253 18.6343 31.9253 16.6114C31.9253 14.6571 31.5139 12.9771 30.7253 12.12C29.971 11.2971 28.771 10.7829 27.4682 10.7829ZM20.9539 16.6114C20.9539 14.0057 21.571 12.0171 22.8053 10.7143C24.0396 9.48 25.5482 8.76 27.4682 8.76C29.3196 8.76 30.8967 9.44571 32.1653 10.7143C33.3653 11.9143 33.9139 14.0057 33.9139 16.6114C33.9139 19.2857 33.331 21.24 32.1653 22.4743C30.8967 23.7771 29.3196 24.4286 27.4682 24.4286C25.5482 24.4286 24.0739 23.7771 22.8053 22.5086C21.6053 21.3086 20.9539 19.2857 20.9539 16.6114ZM37.2251 24.4286V8.76H39.248V10.7829C40.448 9.44571 41.9566 8.76 43.7051 8.76C45.5566 8.76 47.2023 9.51429 48.368 10.7143C49.5337 11.9486 50.2194 14.0057 50.2194 16.6114V24.4286H48.1966V16.6114C48.1966 14.6571 47.7508 12.9771 46.9623 12.12C46.2423 11.3657 45.008 10.7829 43.7051 10.7829C42.2994 10.7829 41.168 11.2629 40.448 12.12C39.728 12.9429 39.248 14.6571 39.248 16.6114V24.4286H37.2251ZM58.0282 3.30857V8.76H62.1425V10.7829H58.0282V19.32C58.0282 20.4514 58.1996 21.3086 58.5768 21.7543C58.9882 22.2 59.6053 22.4057 60.3253 22.4057C61.011 22.4057 61.6282 22.3371 62.1425 22.2V24.0171C61.6625 24.3257 61.0453 24.4286 60.3253 24.4286C59.091 24.4286 57.9596 24.12 57.171 23.2971C56.3482 22.4743 56.1082 21.1714 56.1082 19.32V10.7829H53.2625V8.76H56.1082V3.30857H58.0282ZM74.7813 16.5086C73.8899 17.2629 72.6213 17.6057 71.0785 17.6057C69.7756 17.6057 68.8156 17.7771 68.2327 18.1543C67.5813 18.6 67.2385 19.1829 67.2385 20.0057C67.2385 21.72 68.4385 22.4057 71.0099 22.4057C71.9013 22.4057 72.7927 22.3029 73.4785 22.0286C74.3013 21.72 74.7813 21.0343 74.7813 20.0057V16.5086ZM65.2842 11.9143C65.9356 10.8857 66.6556 10.0971 67.4099 9.65143C68.4727 9.06857 69.5699 8.76 71.0099 8.76C73.2385 8.76 74.8156 9.30857 75.5699 10.3371C76.2899 11.3657 76.7699 12.7371 76.7699 14.0743V24.4286H74.7813V23.7771C73.787 24.2229 72.5185 24.4286 71.0099 24.4286C69.3299 24.4286 67.6499 23.9486 66.7242 23.16C65.7299 22.3714 65.2156 21.1714 65.2156 20.0057C65.2156 18.8743 65.5585 17.8114 66.2785 16.92C66.9299 16.0629 68.507 15.6171 71.0099 15.6171C72.3813 15.6171 73.3756 15.3771 73.8899 14.9657C74.4042 14.5886 74.7813 13.9371 74.7813 13.2857C74.7813 12.6 74.4042 12.0514 73.8899 11.5029C73.3413 11.0229 72.3127 10.7829 71.0099 10.7829C70.3242 10.7829 69.4327 10.8514 68.8156 11.16C68.2327 11.4 67.6499 11.9486 67.4099 12.6L65.2842 11.9143ZM90.0235 12.36C89.1663 11.3657 87.8977 10.7829 86.3206 10.7829C84.9149 10.7829 83.7835 11.2629 83.0292 12.12C82.2406 13.0114 81.8635 14.4857 81.8635 16.6114C81.8635 18.6686 82.3435 20.2114 83.0292 21.0686C83.7835 21.9943 84.9149 22.4057 86.3206 22.4057C87.9663 22.4057 89.1663 21.7886 90.0235 20.5886L91.9777 21.24C90.572 23.2971 88.652 24.4286 86.3206 24.4286C84.4692 24.4286 82.9263 23.7771 81.6577 22.4743C80.4577 21.2057 79.8406 19.2857 79.8406 16.6114C79.8406 14.0057 80.3892 11.9829 81.6235 10.7143C82.8235 9.51429 84.4006 8.76 86.3206 8.76C88.6177 8.76 90.572 9.85714 91.9777 12.0171L90.0235 12.36ZM99.7235 3.30857V8.76H103.838V10.7829H99.7235V19.32C99.7235 20.4514 99.8949 21.3086 100.272 21.7543C100.684 22.2 101.301 22.4057 102.021 22.4057C102.706 22.4057 103.324 22.3371 103.838 22.2V24.0171C103.358 24.3257 102.741 24.4286 102.021 24.4286C100.786 24.4286 99.6549 24.12 98.8664 23.2971C98.0435 22.4743 97.8035 21.1714 97.8035 19.32V10.7829H94.9578V8.76H97.8035V3.30857H99.7235ZM116.479 3.30857C117.096 3.30857 117.439 3.78857 117.439 4.30286C117.439 4.95429 117.096 5.29714 116.479 5.29714C115.828 5.29714 115.519 4.95429 115.519 4.30286C115.519 3.78857 115.828 3.30857 116.479 3.30857ZM115.519 24.4286V8.76H117.439V24.4286H115.519ZM122.268 24.4286V8.76H124.291V10.7829C125.491 9.44571 127 8.76 128.748 8.76C130.6 8.76 132.245 9.51429 133.411 10.7143C134.577 11.9486 135.262 14.0057 135.262 16.6114V24.4286H133.24V16.6114C133.24 14.6571 132.794 12.9771 132.005 12.12C131.285 11.3657 130.051 10.7829 128.748 10.7829C127.342 10.7829 126.211 11.2629 125.491 12.12C124.771 12.9429 124.291 14.6571 124.291 16.6114V24.4286H122.268ZM141.151 24.4286V10.7829H138.305V8.76H141.151V5.67429C141.151 3.99429 141.494 2.52 142.214 1.76572C142.934 0.942857 144.134 0.599999 145.368 0.599999C146.123 0.599999 146.705 0.737144 147.185 0.977144V2.86286C146.671 2.69143 145.985 2.55429 145.368 2.55429C143.825 2.55429 143.071 3.37714 143.071 5.67429V8.76H145.78V10.7829H143.071V24.4286H141.151ZM156.773 10.7829C155.401 10.7829 154.201 11.2629 153.481 12.12C152.796 12.9429 152.316 14.6571 152.316 16.6114C152.316 18.6343 152.796 20.2114 153.481 21.0686C154.201 22.0286 155.367 22.4057 156.773 22.4057C158.076 22.4057 159.276 22.0286 160.03 21.0686C160.819 20.1771 161.23 18.6343 161.23 16.6114C161.23 14.6571 160.819 12.9771 160.03 12.12C159.276 11.2971 158.076 10.7829 156.773 10.7829ZM150.259 16.6114C150.259 14.0057 150.876 12.0171 152.11 10.7143C153.344 9.48 154.853 8.76 156.773 8.76C158.624 8.76 160.201 9.44571 161.47 10.7143C162.67 11.9143 163.219 14.0057 163.219 16.6114C163.219 19.2857 162.636 21.24 161.47 22.4743C160.201 23.7771 158.624 24.4286 156.773 24.4286C154.853 24.4286 153.379 23.7771 152.11 22.5086C150.91 21.3086 150.259 19.2857 150.259 16.6114ZM166.53 24.4286V8.76H168.518V10.7829C169.753 9.37714 171.193 8.76 172.976 8.76C174.998 8.76 176.473 9.34286 177.604 10.6114L176.473 12.12C175.547 11.2629 174.416 10.7829 172.976 10.7829C171.57 10.7829 170.507 11.2629 169.718 12.12C168.896 13.0114 168.518 14.52 168.518 16.6114V24.4286H166.53ZM180.874 24.4286V8.76H182.862V10.7829C184.096 9.44571 185.605 8.76 187.354 8.76C189.754 8.76 191.536 9.99429 192.805 11.8114C194.074 9.99429 195.788 8.76 198.256 8.76C200.176 8.76 201.754 9.51429 202.919 10.7143C204.119 11.9829 204.702 14.0057 204.702 16.6114V24.4286H202.748V16.6114C202.748 14.52 202.336 12.9429 201.616 12.12C200.759 11.2629 199.662 10.7829 198.256 10.7829C196.919 10.7829 195.856 11.3314 195.034 12.12C194.176 13.0114 193.834 14.52 193.834 16.6114V24.4286H191.845V16.6114C191.845 14.6229 191.399 12.9771 190.611 12.12C189.891 11.2971 188.725 10.7829 187.354 10.7829C185.914 10.7829 184.885 11.2629 184.096 12.12C183.274 13.0114 182.862 14.4857 182.862 16.6114V24.4286H180.874ZM217.375 16.5086C216.484 17.2629 215.215 17.6057 213.672 17.6057C212.369 17.6057 211.409 17.7771 210.826 18.1543C210.175 18.6 209.832 19.1829 209.832 20.0057C209.832 21.72 211.032 22.4057 213.604 22.4057C214.495 22.4057 215.386 22.3029 216.072 22.0286C216.895 21.72 217.375 21.0343 217.375 20.0057V16.5086ZM207.878 11.9143C208.529 10.8857 209.249 10.0971 210.004 9.65143C211.066 9.06857 212.164 8.76 213.604 8.76C215.832 8.76 217.409 9.30857 218.164 10.3371C218.884 11.3657 219.364 12.7371 219.364 14.0743V24.4286H217.375V23.7771C216.381 24.2229 215.112 24.4286 213.604 24.4286C211.924 24.4286 210.244 23.9486 209.318 23.16C208.324 22.3714 207.809 21.1714 207.809 20.0057C207.809 18.8743 208.152 17.8114 208.872 16.92C209.524 16.0629 211.101 15.6171 213.604 15.6171C214.975 15.6171 215.969 15.3771 216.484 14.9657C216.998 14.5886 217.375 13.9371 217.375 13.2857C217.375 12.6 216.998 12.0514 216.484 11.5029C215.935 11.0229 214.906 10.7829 213.604 10.7829C212.918 10.7829 212.026 10.8514 211.409 11.16C210.826 11.4 210.244 11.9486 210.004 12.6L207.878 11.9143ZM227.2 3.30857V8.76H231.314V10.7829H227.2V19.32C227.2 20.4514 227.371 21.3086 227.749 21.7543C228.16 22.2 228.777 22.4057 229.497 22.4057C230.183 22.4057 230.8 22.3371 231.314 22.2V24.0171C230.834 24.3257 230.217 24.4286 229.497 24.4286C228.263 24.4286 227.131 24.12 226.343 23.2971C225.52 22.4743 225.28 21.1714 225.28 19.32V10.7829H222.434V8.76H225.28V3.30857H227.2ZM236.925 3.30857C237.542 3.30857 237.885 3.78857 237.885 4.30286C237.885 4.95429 237.542 5.29714 236.925 5.29714C236.273 5.29714 235.965 4.95429 235.965 4.30286C235.965 3.78857 236.273 3.30857 236.925 3.30857ZM235.965 24.4286V8.76H237.885V24.4286H235.965ZM248.988 10.7829C247.616 10.7829 246.416 11.2629 245.696 12.12C245.011 12.9429 244.531 14.6571 244.531 16.6114C244.531 18.6343 245.011 20.2114 245.696 21.0686C246.416 22.0286 247.582 22.4057 248.988 22.4057C250.291 22.4057 251.491 22.0286 252.245 21.0686C253.033 20.1771 253.445 18.6343 253.445 16.6114C253.445 14.6571 253.033 12.9771 252.245 12.12C251.491 11.2971 250.291 10.7829 248.988 10.7829ZM242.473 16.6114C242.473 14.0057 243.091 12.0171 244.325 10.7143C245.559 9.48 247.068 8.76 248.988 8.76C250.839 8.76 252.416 9.44571 253.685 10.7143C254.885 11.9143 255.433 14.0057 255.433 16.6114C255.433 19.2857 254.851 21.24 253.685 22.4743C252.416 23.7771 250.839 24.4286 248.988 24.4286C247.068 24.4286 245.593 23.7771 244.325 22.5086C243.125 21.3086 242.473 19.2857 242.473 16.6114ZM258.745 24.4286V8.76H260.768V10.7829C261.968 9.44571 263.476 8.76 265.225 8.76C267.076 8.76 268.722 9.51429 269.888 10.7143C271.053 11.9486 271.739 14.0057 271.739 16.6114V24.4286H269.716V16.6114C269.716 14.6571 269.27 12.9771 268.482 12.12C267.762 11.3657 266.528 10.7829 265.225 10.7829C263.819 10.7829 262.688 11.2629 261.968 12.12C261.248 12.9429 260.768 14.6571 260.768 16.6114V24.4286H258.745Z" fill="#19126B"/>
</svg>
