<svg width="323" height="82" viewBox="0 0 323 82" fill="none" xmlns="http://www.w3.org/2000/svg">
<path d="M5.26274 9.80952H10.7485L7.9675 2.59048L5.26274 9.80952ZM2.32941 14.5714L7.35798 1.33333H8.59608L13.5866 14.5714H12.5008L11.1104 10.8952H4.84369L3.45322 14.5714H2.32941ZM21.7947 14.5714V13.4667C21.128 14.2095 20.347 14.5714 19.3185 14.5714C18.2518 14.5714 17.4328 14.2095 16.728 13.5048C16.0613 12.8381 15.6994 11.7143 15.6994 10.2286C15.6994 8.78095 16.0423 7.67619 16.728 6.95238C17.4137 6.26667 18.2518 5.86667 19.3185 5.86667C20.347 5.86667 21.128 6.24762 21.7947 7.00952V1.33333H22.8994V14.5714H21.7947ZM19.3185 6.99048C18.5566 6.99048 17.8899 7.25714 17.4899 7.73333C17.1089 8.19048 16.8423 9.14286 16.8423 10.2286C16.8423 11.3524 17.1089 12.2286 17.4899 12.7048C17.8899 13.2381 18.5375 13.4476 19.3185 13.4476C20.0423 13.4476 20.7089 13.2381 21.128 12.7048C21.5661 12.2095 21.7947 11.3524 21.7947 10.2286C21.7947 9.14286 21.5661 8.20952 21.128 7.73333C20.7089 7.27619 20.0423 6.99048 19.3185 6.99048ZM31.0329 14.5714V13.4667C30.3663 14.2095 29.5853 14.5714 28.5568 14.5714C27.4901 14.5714 26.671 14.2095 25.9663 13.5048C25.2996 12.8381 24.9377 11.7143 24.9377 10.2286C24.9377 8.78095 25.2806 7.67619 25.9663 6.95238C26.652 6.26667 27.4901 5.86667 28.5568 5.86667C29.5853 5.86667 30.3663 6.24762 31.0329 7.00952V1.33333H32.1377V14.5714H31.0329ZM28.5568 6.99048C27.7948 6.99048 27.1282 7.25714 26.7282 7.73333C26.3472 8.19048 26.0806 9.14286 26.0806 10.2286C26.0806 11.3524 26.3472 12.2286 26.7282 12.7048C27.1282 13.2381 27.7758 13.4476 28.5568 13.4476C29.2806 13.4476 29.9472 13.2381 30.3663 12.7048C30.8044 12.2095 31.0329 11.3524 31.0329 10.2286C31.0329 9.14286 30.8044 8.20952 30.3663 7.73333C29.9472 7.27619 29.2806 6.99048 28.5568 6.99048ZM34.3093 14.5714V5.86667H35.4141V6.99048C36.0998 6.20952 36.8998 5.86667 37.8903 5.86667C39.0141 5.86667 39.8331 6.19048 40.4617 6.89524L39.8331 7.73333C39.3188 7.25714 38.6903 6.99048 37.8903 6.99048C37.1093 6.99048 36.5188 7.25714 36.0807 7.73333C35.6236 8.22857 35.4141 9.06667 35.4141 10.2286V14.5714H34.3093ZM48.1828 9.2381C48.1257 8.45714 47.8971 7.90476 47.4971 7.58095C47.0781 7.2 46.5447 6.99048 45.7638 6.99048C45.0209 6.99048 44.4305 7.18095 44.0114 7.58095C43.6495 7.94286 43.3828 8.45714 43.3257 9.2381H48.1828ZM48.8495 12.8762C48.0685 14 47.04 14.5714 45.7638 14.5714C44.6971 14.5714 43.8781 14.2095 43.1733 13.5048C42.5066 12.8381 42.1447 11.7143 42.1447 10.2286C42.1447 8.78095 42.4876 7.6381 43.1543 6.95238C43.84 6.26667 44.6781 5.86667 45.7638 5.86667C46.7924 5.86667 47.6685 6.26667 48.3733 6.95238C48.9828 7.58095 49.3447 8.7619 49.3447 10.3429H43.2876C43.3066 12.4762 44.24 13.4476 45.7638 13.4476C46.6781 13.4476 47.3447 13.0857 47.8019 12.4571L48.8495 12.8762ZM55.6986 7.67619C55.3557 7.21905 54.7653 6.99048 53.8891 6.99048C53.2224 6.99048 52.7653 7.12381 52.5367 7.37143C52.3081 7.61905 52.1938 7.94286 52.1938 8.3619C52.1938 8.7619 53.07 9.27619 54.3843 9.90476C55.7177 10.5143 56.7081 11.3714 56.7081 12.1333C56.7081 12.8 56.4986 13.4286 56.0796 13.8857C55.6986 14.3048 54.8986 14.5714 53.8891 14.5714C52.5938 14.5714 51.6605 14.0381 51.1462 12.8952L52.1557 12.5905C52.3843 13.1619 52.9938 13.4476 53.8891 13.4476C55.051 13.4476 55.6224 13.1429 55.6224 12.1333C55.6224 11.6762 54.5938 11.0667 53.4129 10.5714C52.0034 9.9619 51.051 9.06667 51.051 8.3619C51.051 7.61905 51.2796 6.99048 51.6605 6.57143C52.0796 6.11429 52.8605 5.86667 53.8891 5.86667C55.1653 5.86667 56.0986 6.26667 56.651 7.12381L55.6986 7.67619ZM63.0619 7.67619C62.719 7.21905 62.1286 6.99048 61.2524 6.99048C60.5857 6.99048 60.1286 7.12381 59.9 7.37143C59.6714 7.61905 59.5571 7.94286 59.5571 8.3619C59.5571 8.7619 60.4333 9.27619 61.7476 9.90476C63.0809 10.5143 64.0714 11.3714 64.0714 12.1333C64.0714 12.8 63.8619 13.4286 63.4428 13.8857C63.0619 14.3048 62.2619 14.5714 61.2524 14.5714C59.9571 14.5714 59.0238 14.0381 58.5095 12.8952L59.519 12.5905C59.7476 13.1619 60.3571 13.4476 61.2524 13.4476C62.4143 13.4476 62.9857 13.1429 62.9857 12.1333C62.9857 11.6762 61.9571 11.0667 60.7762 10.5714C59.3666 9.9619 58.4143 9.06667 58.4143 8.3619C58.4143 7.61905 58.6428 6.99048 59.0238 6.57143C59.4428 6.11429 60.2238 5.86667 61.2524 5.86667C62.5286 5.86667 63.4619 6.26667 64.0143 7.12381L63.0619 7.67619ZM66.6156 7.84762C66.6156 7.39048 67.0347 6.95238 67.5299 6.95238C68.0442 6.95238 68.4442 7.33333 68.4442 7.84762C68.4442 8.3619 68.0252 8.78095 67.5299 8.78095C67.0537 8.78095 66.6156 8.3619 66.6156 7.84762ZM66.6156 13.581C66.6156 13.1238 67.0347 12.6857 67.5299 12.6857C68.0442 12.6857 68.4442 13.0667 68.4442 13.581C68.4442 14.1333 68.0061 14.5143 67.5299 14.5143C67.0537 14.5143 66.6156 14.0952 66.6156 13.581Z" fill="#0D69A9"/>
<path d="M76.4215 13.4476H78.7453C79.8882 13.4476 80.8977 13.0286 81.7548 12.2095C82.612 11.3714 83.031 9.92381 83.031 7.9619C83.031 4.20952 81.4882 2.41905 78.7453 2.41905H76.4215V13.4476ZM75.2786 14.5714V1.33333H78.7453C80.231 1.33333 81.5262 1.82857 82.5929 2.85714C83.6596 3.86667 84.1548 5.52381 84.1548 7.9619C84.1548 10.2857 83.6215 11.9429 82.5167 13.0095C81.4501 14.0571 80.1929 14.5714 78.7453 14.5714H75.2786ZM91.5606 10.1714C91.0653 10.5905 90.3606 10.781 89.5034 10.781C88.7796 10.781 88.2463 10.8762 87.9225 11.0857C87.5606 11.3333 87.3701 11.6571 87.3701 12.1143C87.3701 13.0667 88.0368 13.4476 89.4653 13.4476C89.9606 13.4476 90.4558 13.3905 90.8368 13.2381C91.2939 13.0667 91.5606 12.6857 91.5606 12.1143V10.1714ZM86.2844 7.61905C86.6463 7.04762 87.0463 6.60952 87.4653 6.36191C88.0558 6.0381 88.6653 5.86667 89.4653 5.86667C90.7034 5.86667 91.5796 6.17143 91.9987 6.74286C92.3987 7.31429 92.6653 8.07619 92.6653 8.81905V14.5714H91.5606V14.2095C91.0082 14.4571 90.3034 14.5714 89.4653 14.5714C88.532 14.5714 87.5987 14.3048 87.0844 13.8667C86.532 13.4286 86.2463 12.7619 86.2463 12.1143C86.2463 11.4857 86.4368 10.8952 86.8368 10.4C87.1987 9.92381 88.0749 9.67619 89.4653 9.67619C90.2273 9.67619 90.7796 9.54286 91.0653 9.31429C91.3511 9.10476 91.5606 8.74286 91.5606 8.38095C91.5606 8 91.3511 7.69524 91.0653 7.39048C90.7606 7.12381 90.1892 6.99048 89.4653 6.99048C89.0844 6.99048 88.5892 7.02857 88.2463 7.2C87.9225 7.33333 87.5987 7.6381 87.4653 8L86.2844 7.61905ZM94.3713 5.86667H95.5332L98.6189 13.4667L101.686 5.86667H102.847L99.1903 14.5714H98.0094L94.3713 5.86667ZM105.937 2.8381C106.28 2.8381 106.47 3.10476 106.47 3.39048C106.47 3.75238 106.28 3.94286 105.937 3.94286C105.575 3.94286 105.404 3.75238 105.404 3.39048C105.404 3.10476 105.575 2.8381 105.937 2.8381ZM105.404 14.5714V5.86667H106.47V14.5714H105.404ZM115.115 14.5714V13.4667C114.448 14.2095 113.667 14.5714 112.639 14.5714C111.572 14.5714 110.753 14.2095 110.048 13.5048C109.382 12.8381 109.02 11.7143 109.02 10.2286C109.02 8.78095 109.363 7.67619 110.048 6.95238C110.734 6.26667 111.572 5.86667 112.639 5.86667C113.667 5.86667 114.448 6.24762 115.115 7.00952V1.33333H116.22V14.5714H115.115ZM112.639 6.99048C111.877 6.99048 111.21 7.25714 110.81 7.73333C110.429 8.19048 110.163 9.14286 110.163 10.2286C110.163 11.3524 110.429 12.2286 110.81 12.7048C111.21 13.2381 111.858 13.4476 112.639 13.4476C113.363 13.4476 114.029 13.2381 114.448 12.7048C114.886 12.2095 115.115 11.3524 115.115 10.2286C115.115 9.14286 114.886 8.20952 114.448 7.73333C114.029 7.27619 113.363 6.99048 112.639 6.99048ZM125.517 9.80952H131.002L128.221 2.59048L125.517 9.80952ZM122.583 14.5714L127.612 1.33333H128.85L133.84 14.5714H132.755L131.364 10.8952H125.098L123.707 14.5714H122.583ZM137.991 17.8476C140.239 17.8476 142.049 17.5048 142.049 15.7143V13.4667C141.382 14.2095 140.601 14.5714 139.572 14.5714C138.506 14.5714 137.687 14.2095 136.982 13.5048C136.315 12.8381 135.953 11.7143 135.953 10.2286C135.953 8.78095 136.296 7.67619 136.982 6.95238C137.668 6.26667 138.506 5.86667 139.572 5.86667C140.601 5.86667 141.382 6.24762 142.049 7.00952V5.86667H143.153V15.6571C143.153 18.6286 140.258 18.9524 137.991 18.8571V17.8476ZM139.572 6.99048C138.81 6.99048 138.144 7.25714 137.744 7.73333C137.363 8.19048 137.096 9.14286 137.096 10.2286C137.096 11.3524 137.363 12.2286 137.744 12.7048C138.144 13.2381 138.791 13.4476 139.572 13.4476C140.296 13.4476 140.963 13.2381 141.382 12.7048C141.82 12.2095 142.049 11.3524 142.049 10.2286C142.049 9.14286 141.82 8.20952 141.382 7.73333C140.963 7.27619 140.296 6.99048 139.572 6.99048ZM145.534 14.5714V1.33333H146.677V6.99048C147.344 6.24762 148.144 5.86667 149.134 5.86667C150.144 5.86667 151.077 6.28571 151.725 6.95238C152.373 7.6381 152.715 8.78095 152.715 10.2286V14.5714H151.611V10.2286C151.611 9.14286 151.401 8.22857 150.925 7.73333C150.506 7.33333 149.839 6.99048 149.134 6.99048C148.354 6.99048 147.744 7.29524 147.325 7.73333C146.868 8.22857 146.677 9.14286 146.677 10.2286V14.5714H145.534ZM154.563 14.5714V5.86667H155.668V6.99048C156.354 6.24762 157.192 5.86667 158.163 5.86667C159.497 5.86667 160.487 6.55238 161.192 7.56191C161.897 6.55238 162.849 5.86667 164.22 5.86667C165.287 5.86667 166.163 6.28571 166.811 6.95238C167.478 7.65714 167.801 8.78095 167.801 10.2286V14.5714H166.716V10.2286C166.716 9.06667 166.487 8.19048 166.087 7.73333C165.611 7.25714 165.001 6.99048 164.22 6.99048C163.478 6.99048 162.887 7.29524 162.43 7.73333C161.954 8.22857 161.763 9.06667 161.763 10.2286V14.5714H160.658V10.2286C160.658 9.12381 160.411 8.20952 159.973 7.73333C159.573 7.27619 158.925 6.99048 158.163 6.99048C157.363 6.99048 156.792 7.25714 156.354 7.73333C155.897 8.22857 155.668 9.04762 155.668 10.2286V14.5714H154.563ZM174.842 10.1714C174.347 10.5905 173.642 10.781 172.785 10.781C172.061 10.781 171.528 10.8762 171.204 11.0857C170.842 11.3333 170.651 11.6571 170.651 12.1143C170.651 13.0667 171.318 13.4476 172.747 13.4476C173.242 13.4476 173.737 13.3905 174.118 13.2381C174.575 13.0667 174.842 12.6857 174.842 12.1143V10.1714ZM169.566 7.61905C169.928 7.04762 170.328 6.60952 170.747 6.36191C171.337 6.0381 171.947 5.86667 172.747 5.86667C173.985 5.86667 174.861 6.17143 175.28 6.74286C175.68 7.31429 175.947 8.07619 175.947 8.81905V14.5714H174.842V14.2095C174.289 14.4571 173.585 14.5714 172.747 14.5714C171.813 14.5714 170.88 14.3048 170.366 13.8667C169.813 13.4286 169.528 12.7619 169.528 12.1143C169.528 11.4857 169.718 10.8952 170.118 10.4C170.48 9.92381 171.356 9.67619 172.747 9.67619C173.509 9.67619 174.061 9.54286 174.347 9.31429C174.632 9.10476 174.842 8.74286 174.842 8.38095C174.842 8 174.632 7.69524 174.347 7.39048C174.042 7.12381 173.47 6.99048 172.747 6.99048C172.366 6.99048 171.87 7.02857 171.528 7.2C171.204 7.33333 170.88 7.6381 170.747 8L169.566 7.61905ZM182.3 7.67619C181.957 7.21905 181.367 6.99048 180.491 6.99048C179.824 6.99048 179.367 7.12381 179.138 7.37143C178.91 7.61905 178.795 7.94286 178.795 8.3619C178.795 8.7619 179.672 9.27619 180.986 9.90476C182.319 10.5143 183.31 11.3714 183.31 12.1333C183.31 12.8 183.1 13.4286 182.681 13.8857C182.3 14.3048 181.5 14.5714 180.491 14.5714C179.195 14.5714 178.262 14.0381 177.748 12.8952L178.757 12.5905C178.986 13.1619 179.595 13.4476 180.491 13.4476C181.653 13.4476 182.224 13.1429 182.224 12.1333C182.224 11.6762 181.195 11.0667 180.014 10.5714C178.605 9.9619 177.653 9.06667 177.653 8.3619C177.653 7.61905 177.881 6.99048 178.262 6.57143C178.681 6.11429 179.462 5.86667 180.491 5.86667C181.767 5.86667 182.7 6.26667 183.253 7.12381L182.3 7.67619ZM185.359 14.5714V1.33333H186.502V6.99048C187.168 6.24762 187.968 5.86667 188.959 5.86667C189.968 5.86667 190.902 6.28571 191.549 6.95238C192.197 7.6381 192.54 8.78095 192.54 10.2286V14.5714H191.435V10.2286C191.435 9.14286 191.225 8.22857 190.749 7.73333C190.33 7.33333 189.663 6.99048 188.959 6.99048C188.178 6.99048 187.568 7.29524 187.149 7.73333C186.692 8.22857 186.502 9.14286 186.502 10.2286V14.5714H185.359ZM200.292 9.2381C200.235 8.45714 200.006 7.90476 199.606 7.58095C199.187 7.2 198.654 6.99048 197.873 6.99048C197.13 6.99048 196.54 7.18095 196.121 7.58095C195.759 7.94286 195.492 8.45714 195.435 9.2381H200.292ZM200.959 12.8762C200.178 14 199.149 14.5714 197.873 14.5714C196.806 14.5714 195.987 14.2095 195.283 13.5048C194.616 12.8381 194.254 11.7143 194.254 10.2286C194.254 8.78095 194.597 7.6381 195.264 6.95238C195.949 6.26667 196.787 5.86667 197.873 5.86667C198.902 5.86667 199.778 6.26667 200.483 6.95238C201.092 7.58095 201.454 8.7619 201.454 10.3429H195.397C195.416 12.4762 196.349 13.4476 197.873 13.4476C198.787 13.4476 199.454 13.0857 199.911 12.4571L200.959 12.8762ZM203.294 14.5714V5.86667H204.418V6.99048C205.084 6.24762 205.922 5.86667 206.894 5.86667C207.922 5.86667 208.837 6.28571 209.484 6.95238C210.132 7.6381 210.513 8.78095 210.513 10.2286V14.5714H209.389V10.2286C209.389 9.14286 209.141 8.20952 208.703 7.73333C208.303 7.31429 207.618 6.99048 206.894 6.99048C206.113 6.99048 205.484 7.25714 205.084 7.73333C204.684 8.19048 204.418 9.14286 204.418 10.2286V14.5714H203.294ZM218.241 9.2381C218.184 8.45714 217.956 7.90476 217.556 7.58095C217.137 7.2 216.603 6.99048 215.822 6.99048C215.08 6.99048 214.489 7.18095 214.07 7.58095C213.708 7.94286 213.441 8.45714 213.384 9.2381H218.241ZM218.908 12.8762C218.127 14 217.099 14.5714 215.822 14.5714C214.756 14.5714 213.937 14.2095 213.232 13.5048C212.565 12.8381 212.203 11.7143 212.203 10.2286C212.203 8.78095 212.546 7.6381 213.213 6.95238C213.899 6.26667 214.737 5.86667 215.822 5.86667C216.851 5.86667 217.727 6.26667 218.432 6.95238C219.041 7.58095 219.403 8.7619 219.403 10.3429H213.346C213.365 12.4762 214.299 13.4476 215.822 13.4476C216.737 13.4476 217.403 13.0857 217.86 12.4571L218.908 12.8762ZM225.052 6.99048C224.271 6.99048 223.662 7.29524 223.243 7.73333C222.786 8.22857 222.595 9.14286 222.595 10.2286C222.595 11.3143 222.805 12.2095 223.243 12.7048C223.662 13.219 224.31 13.4476 225.052 13.4476C225.776 13.4476 226.405 13.219 226.843 12.7048C227.281 12.1905 227.529 11.3524 227.529 10.2286C227.529 9.14286 227.319 8.22857 226.843 7.73333C226.424 7.33333 225.757 6.99048 225.052 6.99048ZM221.452 14.5714V1.33333H222.595V6.99048C223.262 6.24762 224.062 5.86667 225.052 5.86667C226.062 5.86667 226.995 6.28571 227.643 6.95238C228.291 7.6381 228.633 8.78095 228.633 10.2286C228.633 11.7143 228.271 12.781 227.643 13.4857C226.976 14.2095 226.119 14.5714 225.052 14.5714C224.062 14.5714 223.262 14.2095 222.595 13.4667V14.5714H221.452ZM236.386 9.2381C236.329 8.45714 236.1 7.90476 235.7 7.58095C235.281 7.2 234.748 6.99048 233.967 6.99048C233.224 6.99048 232.634 7.18095 232.215 7.58095C231.853 7.94286 231.586 8.45714 231.529 9.2381H236.386ZM237.053 12.8762C236.272 14 235.243 14.5714 233.967 14.5714C232.9 14.5714 232.081 14.2095 231.376 13.5048C230.71 12.8381 230.348 11.7143 230.348 10.2286C230.348 8.78095 230.691 7.6381 231.357 6.95238C232.043 6.26667 232.881 5.86667 233.967 5.86667C234.995 5.86667 235.872 6.26667 236.576 6.95238C237.186 7.58095 237.548 8.7619 237.548 10.3429H231.491C231.51 12.4762 232.443 13.4476 233.967 13.4476C234.881 13.4476 235.548 13.0857 236.005 12.4571L237.053 12.8762ZM240.13 14.5714V1.33333H241.197V14.5714H240.13ZM245.156 2.8381C245.499 2.8381 245.689 3.10476 245.689 3.39048C245.689 3.75238 245.499 3.94286 245.156 3.94286C244.794 3.94286 244.622 3.75238 244.622 3.39048C244.622 3.10476 244.794 2.8381 245.156 2.8381ZM244.622 14.5714V5.86667H245.689V14.5714H244.622ZM255.497 9.80952H260.983L258.202 2.59048L255.497 9.80952ZM252.564 14.5714L257.592 1.33333H258.83L263.821 14.5714H262.735L261.345 10.8952H255.078L253.688 14.5714H252.564ZM266.81 14.5714V1.33333H267.877V14.5714H266.81ZM271.302 14.5714V1.33333H272.369V14.5714H271.302ZM280.956 9.2381C280.899 8.45714 280.671 7.90476 280.271 7.58095C279.852 7.2 279.318 6.99048 278.537 6.99048C277.794 6.99048 277.204 7.18095 276.785 7.58095C276.423 7.94286 276.156 8.45714 276.099 9.2381H280.956ZM281.623 12.8762C280.842 14 279.813 14.5714 278.537 14.5714C277.471 14.5714 276.652 14.2095 275.947 13.5048C275.28 12.8381 274.918 11.7143 274.918 10.2286C274.918 8.78095 275.261 7.6381 275.928 6.95238C276.613 6.26667 277.452 5.86667 278.537 5.86667C279.566 5.86667 280.442 6.26667 281.147 6.95238C281.756 7.58095 282.118 8.7619 282.118 10.3429H276.061C276.08 12.4762 277.013 13.4476 278.537 13.4476C279.452 13.4476 280.118 13.0857 280.575 12.4571L281.623 12.8762ZM283.92 5.86667H285.024L288.186 13.4667L291.348 5.86667H292.434L287.977 16.2095C287.139 18.1714 286.11 19.1238 285.139 19.1238H283.824V18.2095H285.139C285.634 18.2095 286.224 17.619 286.834 16.4L287.653 14.7619L283.92 5.86667ZM300.727 14.4952V3.6H298.537V2.51429C299.451 2.49524 300.023 2.34286 300.308 2.0381V2.05714C300.556 1.75238 300.708 1.35238 300.727 0.64762H301.737V14.4952H300.727ZM308.353 13.4286C309.343 13.4286 310.105 13.1619 310.715 12.5714C311.362 11.9429 311.629 11.1048 311.629 9.98095C311.629 8.85714 311.343 8.0381 310.753 7.40952C310.181 6.8 309.4 6.51429 308.353 6.51429C307.762 6.51429 307.115 6.60952 306.657 6.78095C306.143 6.95238 305.648 7.35238 305.115 7.94286C305.115 9.61905 305.4 10.9524 306.01 11.9048C306.619 12.8952 307.477 13.4286 308.353 13.4286ZM308.353 14.4952C306.848 14.4952 305.781 13.9048 305.115 12.6857C304.41 11.4286 304.029 9.71429 304.029 7.56191C304.029 5.25714 304.429 3.56191 305.172 2.38095C305.915 1.21905 306.924 0.64762 308.353 0.64762C309.457 0.64762 310.257 0.838096 310.924 1.2C311.477 1.50476 311.972 1.90476 312.429 2.45714L311.762 3.00952C310.962 2.22857 309.781 1.69524 308.353 1.69524C307.381 1.69524 306.619 2.09524 306.048 2.87619C305.496 3.65714 305.172 4.91429 305.096 6.64762C306.124 5.82857 307.21 5.42857 308.353 5.42857C309.591 5.42857 310.619 5.88571 311.457 6.74286C312.257 7.58095 312.677 8.62857 312.677 9.98095C312.677 11.2762 312.277 12.3429 311.457 13.2C310.638 14.0571 309.61 14.4952 308.353 14.4952ZM318.381 7.02857C319.219 6.97143 319.924 6.8 320.495 6.4C321.105 5.9619 321.429 5.25714 321.429 4.3619C321.429 3.61905 321.143 2.93333 320.553 2.4381C319.962 1.9619 319.124 1.69524 318.134 1.69524C317.086 1.69524 316.267 2.0381 315.657 2.70476C315.181 3.21905 314.914 3.90476 314.838 4.51429H313.848C313.905 3.79048 314.191 3.00952 314.819 2.09524C315.486 1.14286 316.553 0.64762 318.134 0.64762C319.429 0.64762 320.457 0.952381 321.257 1.61905C322.038 2.26667 322.438 3.18095 322.438 4.3619C322.438 5.86667 321.314 7.14286 320.172 7.6C321.314 7.9619 322.438 9.18095 322.438 10.7619C322.438 12.0952 322.076 13.0476 321.314 13.6C320.514 14.1905 319.429 14.4952 318.134 14.4952C316.953 14.4952 315.867 14.0762 315.048 13.3714C314.248 12.6667 313.848 11.7524 313.829 10.419H314.838C314.914 11.219 315.238 12.0381 315.753 12.5714C316.362 13.1429 317.181 13.4286 318.134 13.4286C318.972 13.4286 319.734 13.2571 320.381 12.8952C321.048 12.5524 321.429 11.7905 321.429 10.7619C321.429 9.9619 321.105 9.25714 320.534 8.8C319.981 8.38095 319.276 8.15238 318.381 8.09524V7.02857Z" fill="black"/>
<path d="M1.25714 33.419V32.3333H11.5429V33.419H6.97143V45.5714H5.84762V33.419H1.25714ZM19.6692 40.2381C19.612 39.4571 19.3834 38.9048 18.9834 38.581C18.5644 38.2 18.0311 37.9905 17.2501 37.9905C16.5073 37.9905 15.9168 38.181 15.4977 38.581C15.1358 38.9429 14.8692 39.4571 14.812 40.2381H19.6692ZM20.3358 43.8762C19.5549 45 18.5263 45.5714 17.2501 45.5714C16.1834 45.5714 15.3644 45.2095 14.6596 44.5048C13.993 43.8381 13.6311 42.7143 13.6311 41.2286C13.6311 39.781 13.9739 38.6381 14.6406 37.9524C15.3263 37.2667 16.1644 36.8667 17.2501 36.8667C18.2787 36.8667 19.1549 37.2667 19.8596 37.9524C20.4692 38.581 20.8311 39.7619 20.8311 41.3429H14.7739C14.793 43.4762 15.7263 44.4476 17.2501 44.4476C18.1644 44.4476 18.8311 44.0857 19.2882 43.4571L20.3358 43.8762ZM23.4135 45.5714V32.3333H24.4802V45.5714H23.4135ZM27.8676 44.6C27.8676 44.1048 28.2866 43.7048 28.7819 43.7048C29.2962 43.7048 29.6962 44.0857 29.6962 44.6C29.6962 45.1333 29.2581 45.5333 28.7819 45.5333C28.3057 45.5333 27.8676 45.1143 27.8676 44.6ZM33.0434 38.8476C33.0434 38.3905 33.4624 37.9524 33.9577 37.9524C34.4719 37.9524 34.8719 38.3333 34.8719 38.8476C34.8719 39.3619 34.4529 39.781 33.9577 39.781C33.4815 39.781 33.0434 39.3619 33.0434 38.8476ZM33.0434 44.581C33.0434 44.1238 33.4624 43.6857 33.9577 43.6857C34.4719 43.6857 34.8719 44.0667 34.8719 44.581C34.8719 45.1333 34.4339 45.5143 33.9577 45.5143C33.4815 45.5143 33.0434 45.0952 33.0434 44.581Z" fill="#0D69A9"/>
<path d="M45.1921 44.4286V41.1333H41.5921V40.2H45.1921V36.9238H46.1254V40.2H49.7254V41.1333H46.1254V44.4286H45.1921ZM55.1516 32.6952C54.1801 32.6952 53.4182 32.981 52.7897 33.6095C52.1611 34.181 51.8754 35.019 51.8754 36.1619C51.8754 37.2667 52.142 38.1238 52.7516 38.7143C53.3611 39.3619 54.123 39.6095 55.1516 39.6095C55.8182 39.6095 56.523 39.381 57.1325 38.9238C57.7992 38.4286 58.2373 37.6095 58.2373 36.4857C58.2373 35.3048 58.0087 34.4095 57.4182 33.7238C56.8278 33.0571 56.0468 32.6952 55.1516 32.6952ZM55.1516 31.6476C56.6563 31.6476 57.6087 32.2952 58.4087 33.4952C59.2468 34.7905 59.4754 36.4476 59.4754 38.5619C59.4754 43.0762 57.9706 45.4952 55.1516 45.4952C54.1039 45.4952 53.2278 45.3429 52.5801 44.9619C52.0849 44.6571 51.5325 44.181 51.1135 43.7238L51.7611 43.1143C52.5611 43.9524 53.723 44.4286 55.1516 44.4286C56.0849 44.4286 56.8658 44.0286 57.4563 43.2476C57.9897 42.5048 58.3706 40.9048 58.5992 38.5238C57.3801 39.9714 56.2373 40.7143 55.1516 40.7143C53.8944 40.7143 52.8658 40.2381 52.0468 39.419C51.2087 38.5619 50.8278 37.4762 50.8278 36.1619C50.8278 34.8857 51.2278 33.781 52.0468 32.9238C52.8468 32.0857 53.8944 31.6476 55.1516 31.6476ZM64.7609 32.6952C63.7895 32.6952 63.0276 32.981 62.399 33.6095C61.7705 34.181 61.4847 35.019 61.4847 36.1619C61.4847 37.2667 61.7514 38.1238 62.3609 38.7143C62.9705 39.3619 63.7324 39.6095 64.7609 39.6095C65.4276 39.6095 66.1324 39.381 66.7419 38.9238C67.4086 38.4286 67.8467 37.6095 67.8467 36.4857C67.8467 35.3048 67.6181 34.4095 67.0276 33.7238C66.4371 33.0571 65.6562 32.6952 64.7609 32.6952ZM64.7609 31.6476C66.2657 31.6476 67.2181 32.2952 68.0181 33.4952C68.8562 34.7905 69.0847 36.4476 69.0847 38.5619C69.0847 43.0762 67.58 45.4952 64.7609 45.4952C63.7133 45.4952 62.8371 45.3429 62.1895 44.9619C61.6943 44.6571 61.1419 44.181 60.7228 43.7238L61.3705 43.1143C62.1705 43.9524 63.3324 44.4286 64.7609 44.4286C65.6943 44.4286 66.4752 44.0286 67.0657 43.2476C67.599 42.5048 67.98 40.9048 68.2086 38.5238C66.9895 39.9714 65.8467 40.7143 64.7609 40.7143C63.5038 40.7143 62.4752 40.2381 61.6562 39.419C60.8181 38.5619 60.4371 37.4762 60.4371 36.1619C60.4371 34.8857 60.8371 33.781 61.6562 32.9238C62.4562 32.0857 63.5038 31.6476 64.7609 31.6476ZM70.0465 31.8381H78.237V32.9048H71.0941V37.8571C71.9894 36.9048 73.0941 36.4286 74.3703 36.4286C75.6084 36.4286 76.6179 36.8667 77.456 37.7238C78.2751 38.5429 78.6941 39.6286 78.6941 40.981C78.6941 42.3143 78.2751 43.381 77.5132 44.2381C76.7513 45.0762 75.7036 45.4952 74.3703 45.4952C73.1894 45.4952 72.1417 45.2286 71.4941 44.7524C70.9227 44.3333 70.3894 43.7238 70.1227 43.0571L71.0941 42.6381C71.7036 43.8381 72.7132 44.4286 74.3703 44.4286C75.437 44.4286 76.237 44.1238 76.8084 43.4952C77.4179 42.8476 77.6465 42.0476 77.6465 40.981C77.6465 39.9905 77.3798 39.1524 76.7703 38.5238C76.1608 37.8381 75.3227 37.5143 74.3703 37.5143C73.5894 37.5143 72.9417 37.6857 72.3513 37.9524C71.7798 38.219 71.3417 38.5619 71.1132 39.019L70.0465 38.5238V31.8381ZM88.305 38.0286C89.1431 37.9714 89.8478 37.8 90.4193 37.4C91.0288 36.9619 91.3526 36.2571 91.3526 35.3619C91.3526 34.619 91.0669 33.9333 90.4764 33.4381C89.8859 32.9619 89.0478 32.6952 88.0574 32.6952C87.0097 32.6952 86.1907 33.0381 85.5812 33.7048C85.105 34.219 84.8383 34.9048 84.7621 35.5143H83.7717C83.8288 34.7905 84.1145 34.0095 84.7431 33.0952C85.4097 32.1429 86.4764 31.6476 88.0574 31.6476C89.3526 31.6476 90.3812 31.9524 91.1812 32.619C91.9621 33.2667 92.3621 34.181 92.3621 35.3619C92.3621 36.8667 91.2383 38.1429 90.0955 38.6C91.2383 38.9619 92.3621 40.181 92.3621 41.7619C92.3621 43.0952 92.0002 44.0476 91.2383 44.6C90.4383 45.1905 89.3526 45.4952 88.0574 45.4952C86.8764 45.4952 85.7907 45.0762 84.9717 44.3714C84.1717 43.6667 83.7717 42.7524 83.7526 41.419H84.7621C84.8383 42.219 85.1621 43.0381 85.6764 43.5714C86.2859 44.1429 87.105 44.4286 88.0574 44.4286C88.8955 44.4286 89.6574 44.2571 90.305 43.8952C90.9717 43.5524 91.3526 42.7905 91.3526 41.7619C91.3526 40.9619 91.0288 40.2571 90.4574 39.8C89.905 39.381 89.2002 39.1524 88.305 39.0952V38.0286ZM93.3278 45.4952V44.2952L99.8801 37.4381C100.452 36.8667 100.737 36.181 100.737 35.4762C100.737 34.8286 100.547 34.2 100.128 33.7238C99.5182 33 98.642 32.6952 97.6516 32.6952C96.6039 32.6952 95.8039 33.0381 95.1944 33.7048C94.7373 34.2 94.4516 34.9048 94.3754 35.5143H93.3658C93.3849 34.7905 93.7087 34.0095 94.3563 33.0952C95.0039 32.1238 96.1087 31.6476 97.6516 31.6476C98.7944 31.6476 100.223 32.0476 100.928 32.7524C101.652 33.419 101.975 34.5429 101.975 35.6857C101.975 36.6952 101.556 37.5333 100.813 38.2571L94.642 44.4286H101.975V45.4952H93.3278ZM106.843 45.4952V44.2952L113.396 37.4381C113.967 36.8667 114.253 36.181 114.253 35.4762C114.253 34.8286 114.062 34.2 113.643 33.7238C113.034 33 112.158 32.6952 111.167 32.6952C110.12 32.6952 109.32 33.0381 108.71 33.7048C108.253 34.2 107.967 34.9048 107.891 35.5143H106.881C106.901 34.7905 107.224 34.0095 107.872 33.0952C108.52 32.1238 109.624 31.6476 111.167 31.6476C112.31 31.6476 113.739 32.0476 114.443 32.7524C115.167 33.419 115.491 34.5429 115.491 35.6857C115.491 36.6952 115.072 37.5333 114.329 38.2571L108.158 44.4286H115.491V45.4952H106.843ZM116.453 45.4952V44.2952L123.005 37.4381C123.577 36.8667 123.862 36.181 123.862 35.4762C123.862 34.8286 123.672 34.2 123.253 33.7238C122.643 33 121.767 32.6952 120.777 32.6952C119.729 32.6952 118.929 33.0381 118.319 33.7048C117.862 34.2 117.577 34.9048 117.5 35.5143H116.491C116.51 34.7905 116.834 34.0095 117.481 33.0952C118.129 32.1238 119.234 31.6476 120.777 31.6476C121.919 31.6476 123.348 32.0476 124.053 32.7524C124.777 33.419 125.1 34.5429 125.1 35.6857C125.1 36.6952 124.681 37.5333 123.938 38.2571L117.767 44.4286H125.1V45.4952H116.453ZM126.062 45.4952V44.2952L132.615 37.4381C133.186 36.8667 133.472 36.181 133.472 35.4762C133.472 34.8286 133.281 34.2 132.862 33.7238C132.253 33 131.376 32.6952 130.386 32.6952C129.338 32.6952 128.538 33.0381 127.929 33.7048C127.472 34.2 127.186 34.9048 127.11 35.5143H126.1C126.119 34.7905 126.443 34.0095 127.091 33.0952C127.738 32.1238 128.843 31.6476 130.386 31.6476C131.529 31.6476 132.957 32.0476 133.662 32.7524C134.386 33.419 134.71 34.5429 134.71 35.6857C134.71 36.6952 134.291 37.5333 133.548 38.2571L127.376 44.4286H134.71V45.4952H126.062ZM139.578 45.4952V44.2952L146.13 37.4381C146.702 36.8667 146.987 36.181 146.987 35.4762C146.987 34.8286 146.797 34.2 146.378 33.7238C145.768 33 144.892 32.6952 143.902 32.6952C142.854 32.6952 142.054 33.0381 141.444 33.7048C140.987 34.2 140.702 34.9048 140.625 35.5143H139.616C139.635 34.7905 139.959 34.0095 140.606 33.0952C141.254 32.1238 142.359 31.6476 143.902 31.6476C145.044 31.6476 146.473 32.0476 147.178 32.7524C147.902 33.419 148.225 34.5429 148.225 35.6857C148.225 36.6952 147.806 37.5333 147.063 38.2571L140.892 44.4286H148.225V45.4952H139.578ZM149.187 45.4952V44.2952L155.74 37.4381C156.311 36.8667 156.597 36.181 156.597 35.4762C156.597 34.8286 156.406 34.2 155.987 33.7238C155.378 33 154.501 32.6952 153.511 32.6952C152.463 32.6952 151.663 33.0381 151.054 33.7048C150.597 34.2 150.311 34.9048 150.235 35.5143H149.225C149.244 34.7905 149.568 34.0095 150.216 33.0952C150.863 32.1238 151.968 31.6476 153.511 31.6476C154.654 31.6476 156.082 32.0476 156.787 32.7524C157.511 33.419 157.835 34.5429 157.835 35.6857C157.835 36.6952 157.416 37.5333 156.673 38.2571L150.501 44.4286H157.835V45.4952H149.187ZM158.797 45.4952V44.2952L165.349 37.4381C165.92 36.8667 166.206 36.181 166.206 35.4762C166.206 34.8286 166.016 34.2 165.597 33.7238C164.987 33 164.111 32.6952 163.12 32.6952C162.073 32.6952 161.273 33.0381 160.663 33.7048C160.206 34.2 159.92 34.9048 159.844 35.5143H158.835C158.854 34.7905 159.177 34.0095 159.825 33.0952C160.473 32.1238 161.577 31.6476 163.12 31.6476C164.263 31.6476 165.692 32.0476 166.397 32.7524C167.12 33.419 167.444 34.5429 167.444 35.6857C167.444 36.6952 167.025 37.5333 166.282 38.2571L160.111 44.4286H167.444V45.4952H158.797Z" fill="black"/>
<path d="M2.25714 76.5714V63.3333H10.0857V64.419H3.4V69.3905H7.95238V70.4952H3.4V75.4476H10.0857V76.5714H2.25714ZM12.323 76.5714V67.8667H13.4278V68.9905C14.1135 68.2476 14.9516 67.8667 15.923 67.8667C17.2563 67.8667 18.2468 68.5524 18.9516 69.5619C19.6563 68.5524 20.6087 67.8667 21.9801 67.8667C23.0468 67.8667 23.923 68.2857 24.5706 68.9524C25.2373 69.6571 25.5611 70.781 25.5611 72.2286V76.5714H24.4754V72.2286C24.4754 71.0667 24.2468 70.1905 23.8468 69.7333C23.3706 69.2571 22.7611 68.9905 21.9801 68.9905C21.2373 68.9905 20.6468 69.2952 20.1897 69.7333C19.7135 70.2286 19.523 71.0667 19.523 72.2286V76.5714H18.4182V72.2286C18.4182 71.1238 18.1706 70.2095 17.7325 69.7333C17.3325 69.2762 16.6849 68.9905 15.923 68.9905C15.123 68.9905 14.5516 69.2571 14.1135 69.7333C13.6563 70.2286 13.4278 71.0476 13.4278 72.2286V76.5714H12.323ZM32.6016 72.1714C32.1064 72.5905 31.4016 72.781 30.5445 72.781C29.8206 72.781 29.2873 72.8762 28.9635 73.0857C28.6016 73.3333 28.4111 73.6571 28.4111 74.1143C28.4111 75.0667 29.0778 75.4476 30.5064 75.4476C31.0016 75.4476 31.4968 75.3905 31.8778 75.2381C32.3349 75.0667 32.6016 74.6857 32.6016 74.1143V72.1714ZM27.3254 69.619C27.6873 69.0476 28.0873 68.6095 28.5064 68.3619C29.0968 68.0381 29.7064 67.8667 30.5064 67.8667C31.7445 67.8667 32.6206 68.1714 33.0397 68.7429C33.4397 69.3143 33.7064 70.0762 33.7064 70.819V76.5714H32.6016V76.2095C32.0492 76.4571 31.3445 76.5714 30.5064 76.5714C29.573 76.5714 28.6397 76.3048 28.1254 75.8667C27.573 75.4286 27.2873 74.7619 27.2873 74.1143C27.2873 73.4857 27.4778 72.8952 27.8778 72.4C28.2397 71.9238 29.1159 71.6762 30.5064 71.6762C31.2683 71.6762 31.8206 71.5429 32.1064 71.3143C32.3921 71.1048 32.6016 70.7429 32.6016 70.381C32.6016 70 32.3921 69.6952 32.1064 69.3905C31.8016 69.1238 31.2302 68.9905 30.5064 68.9905C30.1254 68.9905 29.6302 69.0286 29.2873 69.2C28.9635 69.3333 28.6397 69.6381 28.5064 70L27.3254 69.619ZM36.8218 64.8381C37.1647 64.8381 37.3552 65.1048 37.3552 65.3905C37.3552 65.7524 37.1647 65.9429 36.8218 65.9429C36.4599 65.9429 36.2885 65.7524 36.2885 65.3905C36.2885 65.1048 36.4599 64.8381 36.8218 64.8381ZM36.2885 76.5714V67.8667H37.3552V76.5714H36.2885ZM40.7807 76.5714V63.3333H41.8474V76.5714H40.7807ZM45.2348 69.8476C45.2348 69.3905 45.6538 68.9524 46.1491 68.9524C46.6634 68.9524 47.0634 69.3333 47.0634 69.8476C47.0634 70.3619 46.6443 70.781 46.1491 70.781C45.6729 70.781 45.2348 70.3619 45.2348 69.8476ZM45.2348 75.581C45.2348 75.1238 45.6538 74.6857 46.1491 74.6857C46.6634 74.6857 47.0634 75.0667 47.0634 75.581C47.0634 76.1333 46.6253 76.5143 46.1491 76.5143C45.6729 76.5143 45.2348 76.0952 45.2348 75.581Z" fill="#0D69A9"/>
<path d="M53.8978 76.5714V63.3333H61.7263V64.419H55.0406V69.3905H59.593V70.4952H55.0406V76.5714H53.8978ZM66.9025 68.9905C66.1406 68.9905 65.4739 69.2571 65.0739 69.7333C64.6929 70.1905 64.4263 71.1429 64.4263 72.2286C64.4263 73.3524 64.6929 74.2286 65.0739 74.7048C65.4739 75.2381 66.1215 75.4476 66.9025 75.4476C67.6263 75.4476 68.2929 75.2381 68.712 74.7048C69.1501 74.2095 69.3786 73.3524 69.3786 72.2286C69.3786 71.1429 69.1501 70.2095 68.712 69.7333C68.2929 69.2762 67.6263 68.9905 66.9025 68.9905ZM63.2834 72.2286C63.2834 70.781 63.6263 69.6762 64.312 68.9524C64.9977 68.2667 65.8358 67.8667 66.9025 67.8667C67.931 67.8667 68.8072 68.2476 69.512 68.9524C70.1786 69.619 70.4834 70.781 70.4834 72.2286C70.4834 73.7143 70.1596 74.8 69.512 75.4857C68.8072 76.2095 67.931 76.5714 66.9025 76.5714C65.8358 76.5714 65.0167 76.2095 64.312 75.5048C63.6453 74.8381 63.2834 73.7143 63.2834 72.2286ZM72.323 76.5714V67.8667H73.4278V68.9905C74.1135 68.2095 74.9135 67.8667 75.9039 67.8667C77.0278 67.8667 77.8468 68.1905 78.4754 68.8952L77.8468 69.7333C77.3325 69.2571 76.7039 68.9905 75.9039 68.9905C75.123 68.9905 74.5325 69.2571 74.0944 69.7333C73.6373 70.2286 73.4278 71.0667 73.4278 72.2286V76.5714H72.323ZM86.2536 76.5714V75.4667C85.587 76.2095 84.806 76.5714 83.7775 76.5714C82.7108 76.5714 81.8917 76.2095 81.187 75.5048C80.5203 74.8381 80.1584 73.7143 80.1584 72.2286C80.1584 70.781 80.5013 69.6762 81.187 68.9524C81.8727 68.2667 82.7108 67.8667 83.7775 67.8667C84.806 67.8667 85.587 68.2476 86.2536 69.0095V63.3333H87.3584V76.5714H86.2536ZM83.7775 68.9905C83.0156 68.9905 82.3489 69.2571 81.9489 69.7333C81.5679 70.1905 81.3013 71.1429 81.3013 72.2286C81.3013 73.3524 81.5679 74.2286 81.9489 74.7048C82.3489 75.2381 82.9965 75.4476 83.7775 75.4476C84.5013 75.4476 85.1679 75.2381 85.587 74.7048C86.0251 74.2095 86.2536 73.3524 86.2536 72.2286C86.2536 71.1429 86.0251 70.2095 85.587 69.7333C85.1679 69.2762 84.5013 68.9905 83.7775 68.9905ZM89.53 76.5714V67.8667H90.6348V68.9905C91.3205 68.2476 92.1586 67.8667 93.13 67.8667C94.4634 67.8667 95.4538 68.5524 96.1586 69.5619C96.8634 68.5524 97.8157 67.8667 99.1872 67.8667C100.254 67.8667 101.13 68.2857 101.778 68.9524C102.444 69.6571 102.768 70.781 102.768 72.2286V76.5714H101.682V72.2286C101.682 71.0667 101.454 70.1905 101.054 69.7333C100.578 69.2571 99.9681 68.9905 99.1872 68.9905C98.4443 68.9905 97.8538 69.2952 97.3967 69.7333C96.9205 70.2286 96.73 71.0667 96.73 72.2286V76.5714H95.6253V72.2286C95.6253 71.1238 95.3776 70.2095 94.9395 69.7333C94.5395 69.2762 93.8919 68.9905 93.13 68.9905C92.33 68.9905 91.7586 69.2571 91.3205 69.7333C90.8634 70.2286 90.6348 71.0476 90.6348 72.2286V76.5714H89.53ZM109.809 72.1714C109.313 72.5905 108.609 72.781 107.751 72.781C107.028 72.781 106.494 72.8762 106.171 73.0857C105.809 73.3333 105.618 73.6571 105.618 74.1143C105.618 75.0667 106.285 75.4476 107.713 75.4476C108.209 75.4476 108.704 75.3905 109.085 75.2381C109.542 75.0667 109.809 74.6857 109.809 74.1143V72.1714ZM104.532 69.619C104.894 69.0476 105.294 68.6095 105.713 68.3619C106.304 68.0381 106.913 67.8667 107.713 67.8667C108.951 67.8667 109.828 68.1714 110.247 68.7429C110.647 69.3143 110.913 70.0762 110.913 70.819V76.5714H109.809V76.2095C109.256 76.4571 108.551 76.5714 107.713 76.5714C106.78 76.5714 105.847 76.3048 105.332 75.8667C104.78 75.4286 104.494 74.7619 104.494 74.1143C104.494 73.4857 104.685 72.8952 105.085 72.4C105.447 71.9238 106.323 71.6762 107.713 71.6762C108.475 71.6762 109.028 71.5429 109.313 71.3143C109.599 71.1048 109.809 70.7429 109.809 70.381C109.809 70 109.599 69.6952 109.313 69.3905C109.009 69.1238 108.437 68.9905 107.713 68.9905C107.332 68.9905 106.837 69.0286 106.494 69.2C106.171 69.3333 105.847 69.6381 105.713 70L104.532 69.619ZM114.029 64.8381C114.372 64.8381 114.562 65.1048 114.562 65.3905C114.562 65.7524 114.372 65.9429 114.029 65.9429C113.667 65.9429 113.496 65.7524 113.496 65.3905C113.496 65.1048 113.667 64.8381 114.029 64.8381ZM113.496 76.5714V67.8667H114.562V76.5714H113.496ZM117.988 76.5714V63.3333H119.054V76.5714H117.988ZM125.87 72.3238C125.87 73.2952 126.099 74.0571 126.48 74.6095C126.88 75.1619 127.375 75.4667 127.889 75.4667C128.328 75.4667 128.804 75.2381 129.28 74.8381C129.813 74.4 130.232 73.7905 130.613 72.8762V72.8952C130.918 72.0381 131.089 71.1238 131.089 70.1905C131.089 69.2 130.88 68.4381 130.48 67.9238C130.061 67.3333 129.585 67.0667 128.975 67.0667C128.518 67.0667 128.023 67.2762 127.585 67.6571C127.147 68.0381 126.728 68.7048 126.385 69.6C126.042 70.5143 125.87 71.4476 125.87 72.3238ZM129.928 74.9524C129.185 76 128.308 76.5143 127.585 76.5143C126.861 76.5143 126.232 76.2095 125.718 75.5048C125.128 74.6476 124.766 73.5429 124.766 72.1905C124.766 71.1048 125.013 70.0381 125.451 68.9524C125.928 67.981 126.48 67.181 127.089 66.6857C127.737 66.2667 128.328 65.981 128.861 65.981C129.68 65.981 130.708 66.781 131.432 68.3238C131.528 67.8476 131.737 66.8571 131.775 66.3048H132.861L131.737 72.8C131.547 73.7524 131.47 74.2857 131.47 74.4C131.47 74.9333 131.832 75.2952 132.251 75.2952C132.613 75.2952 133.108 75.0095 133.642 74.4952C134.194 74 134.747 73.2952 135.07 72.4H135.051C135.451 71.4857 135.642 70.4762 135.642 69.4286C135.642 68.2476 135.356 67.1048 134.842 66.1143C134.289 65.1429 133.528 64.3429 132.613 63.7905C131.737 63.2381 130.632 62.9333 129.547 62.9333C126.937 62.9333 124.747 64.3429 123.375 67.1238C122.785 68.5143 122.404 70.0762 122.404 71.8667C122.404 76.8952 125.242 79.7333 129.813 79.7333C131.147 79.7333 132.308 79.4857 133.375 78.9143C134.347 78.381 135.166 77.6 135.68 76.7238H136.766C136.423 77.4286 135.928 78.0762 135.299 78.7048C134.575 79.3905 133.737 79.9429 132.861 80.3238C131.947 80.6476 130.937 80.8571 129.813 80.8571C126.423 80.8571 124.042 79.3905 122.67 76.781C121.985 75.5048 121.604 73.8667 121.604 72C121.604 69.981 121.985 68.1905 122.766 66.5714C123.47 64.9714 124.461 63.7524 125.604 63.0286C126.747 62.2857 128.175 61.8857 129.623 61.8857C132.175 61.8857 134.289 63.1619 135.528 65.5238C136.118 66.7238 136.461 68.0381 136.461 69.4857C136.461 71.4857 135.889 73.2 134.747 74.7048C133.794 75.9429 132.785 76.5333 131.699 76.5333C130.747 76.5333 130.366 76.0952 130.308 75.0476L129.928 74.9524ZM139.54 79.8476C141.788 79.8476 143.597 79.5048 143.597 77.7143V75.4667C142.931 76.2095 142.15 76.5714 141.121 76.5714C140.055 76.5714 139.235 76.2095 138.531 75.5048C137.864 74.8381 137.502 73.7143 137.502 72.2286C137.502 70.781 137.845 69.6762 138.531 68.9524C139.216 68.2667 140.055 67.8667 141.121 67.8667C142.15 67.8667 142.931 68.2476 143.597 69.0095V67.8667H144.702V77.6571C144.702 80.6286 141.807 80.9524 139.54 80.8571V79.8476ZM141.121 68.9905C140.359 68.9905 139.693 69.2571 139.293 69.7333C138.912 70.1905 138.645 71.1429 138.645 72.2286C138.645 73.3524 138.912 74.2286 139.293 74.7048C139.693 75.2381 140.34 75.4476 141.121 75.4476C141.845 75.4476 142.512 75.2381 142.931 74.7048C143.369 74.2095 143.597 73.3524 143.597 72.2286C143.597 71.1429 143.369 70.2095 142.931 69.7333C142.512 69.2762 141.845 68.9905 141.121 68.9905ZM146.874 76.5714V67.8667H147.979V68.9905C148.664 68.2476 149.502 67.8667 150.474 67.8667C151.807 67.8667 152.798 68.5524 153.502 69.5619C154.207 68.5524 155.159 67.8667 156.531 67.8667C157.598 67.8667 158.474 68.2857 159.121 68.9524C159.788 69.6571 160.112 70.781 160.112 72.2286V76.5714H159.026V72.2286C159.026 71.0667 158.798 70.1905 158.398 69.7333C157.921 69.2571 157.312 68.9905 156.531 68.9905C155.788 68.9905 155.198 69.2952 154.74 69.7333C154.264 70.2286 154.074 71.0667 154.074 72.2286V76.5714H152.969V72.2286C152.969 71.1238 152.721 70.2095 152.283 69.7333C151.883 69.2762 151.236 68.9905 150.474 68.9905C149.674 68.9905 149.102 69.2571 148.664 69.7333C148.207 70.2286 147.979 71.0476 147.979 72.2286V76.5714H146.874ZM167.152 72.1714C166.657 72.5905 165.952 72.781 165.095 72.781C164.371 72.781 163.838 72.8762 163.514 73.0857C163.152 73.3333 162.962 73.6571 162.962 74.1143C162.962 75.0667 163.629 75.4476 165.057 75.4476C165.552 75.4476 166.048 75.3905 166.429 75.2381C166.886 75.0667 167.152 74.6857 167.152 74.1143V72.1714ZM161.876 69.619C162.238 69.0476 162.638 68.6095 163.057 68.3619C163.648 68.0381 164.257 67.8667 165.057 67.8667C166.295 67.8667 167.171 68.1714 167.59 68.7429C167.99 69.3143 168.257 70.0762 168.257 70.819V76.5714H167.152V76.2095C166.6 76.4571 165.895 76.5714 165.057 76.5714C164.124 76.5714 163.19 76.3048 162.676 75.8667C162.124 75.4286 161.838 74.7619 161.838 74.1143C161.838 73.4857 162.029 72.8952 162.429 72.4C162.79 71.9238 163.667 71.6762 165.057 71.6762C165.819 71.6762 166.371 71.5429 166.657 71.3143C166.943 71.1048 167.152 70.7429 167.152 70.381C167.152 70 166.943 69.6952 166.657 69.3905C166.352 69.1238 165.781 68.9905 165.057 68.9905C164.676 68.9905 164.181 69.0286 163.838 69.2C163.514 69.3333 163.19 69.6381 163.057 70L161.876 69.619ZM171.373 64.8381C171.715 64.8381 171.906 65.1048 171.906 65.3905C171.906 65.7524 171.715 65.9429 171.373 65.9429C171.011 65.9429 170.839 65.7524 170.839 65.3905C170.839 65.1048 171.011 64.8381 171.373 64.8381ZM170.839 76.5714V67.8667H171.906V76.5714H170.839ZM175.331 76.5714V63.3333H176.398V76.5714H175.331ZM179.786 75.6C179.786 75.1048 180.205 74.7048 180.7 74.7048C181.214 74.7048 181.614 75.0857 181.614 75.6C181.614 76.1333 181.176 76.5333 180.7 76.5333C180.224 76.5333 179.786 76.1143 179.786 75.6ZM189.78 69.8667C189.304 69.3143 188.599 68.9905 187.723 68.9905C186.942 68.9905 186.314 69.2571 185.895 69.7333C185.457 70.2286 185.247 71.0476 185.247 72.2286C185.247 73.3714 185.514 74.2286 185.895 74.7048C186.314 75.219 186.942 75.4476 187.723 75.4476C188.638 75.4476 189.304 75.1048 189.78 74.4381L190.866 74.8C190.085 75.9429 189.018 76.5714 187.723 76.5714C186.695 76.5714 185.838 76.2095 185.133 75.4857C184.466 74.781 184.123 73.7143 184.123 72.2286C184.123 70.781 184.428 69.6571 185.114 68.9524C185.78 68.2857 186.657 67.8667 187.723 67.8667C188.999 67.8667 190.085 68.4762 190.866 69.6762L189.78 69.8667ZM196.141 68.9905C195.379 68.9905 194.712 69.2571 194.312 69.7333C193.931 70.1905 193.665 71.1429 193.665 72.2286C193.665 73.3524 193.931 74.2286 194.312 74.7048C194.712 75.2381 195.36 75.4476 196.141 75.4476C196.865 75.4476 197.531 75.2381 197.95 74.7048C198.388 74.2095 198.617 73.3524 198.617 72.2286C198.617 71.1429 198.388 70.2095 197.95 69.7333C197.531 69.2762 196.865 68.9905 196.141 68.9905ZM192.522 72.2286C192.522 70.781 192.865 69.6762 193.55 68.9524C194.236 68.2667 195.074 67.8667 196.141 67.8667C197.169 67.8667 198.045 68.2476 198.75 68.9524C199.417 69.619 199.722 70.781 199.722 72.2286C199.722 73.7143 199.398 74.8 198.75 75.4857C198.045 76.2095 197.169 76.5714 196.141 76.5714C195.074 76.5714 194.255 76.2095 193.55 75.5048C192.884 74.8381 192.522 73.7143 192.522 72.2286ZM201.561 76.5714V67.8667H202.666V68.9905C203.352 68.2476 204.19 67.8667 205.161 67.8667C206.495 67.8667 207.485 68.5524 208.19 69.5619C208.895 68.5524 209.847 67.8667 211.218 67.8667C212.285 67.8667 213.161 68.2857 213.809 68.9524C214.476 69.6571 214.799 70.781 214.799 72.2286V76.5714H213.714V72.2286C213.714 71.0667 213.485 70.1905 213.085 69.7333C212.609 69.2571 211.999 68.9905 211.218 68.9905C210.476 68.9905 209.885 69.2952 209.428 69.7333C208.952 70.2286 208.761 71.0667 208.761 72.2286V76.5714H207.657V72.2286C207.657 71.1238 207.409 70.2095 206.971 69.7333C206.571 69.2762 205.923 68.9905 205.161 68.9905C204.361 68.9905 203.79 69.2571 203.352 69.7333C202.895 70.2286 202.666 71.0476 202.666 72.2286V76.5714H201.561Z" fill="black"/>
</svg>
