<svg width="95" height="16" viewBox="0 0 95 16" fill="none" xmlns="http://www.w3.org/2000/svg">
<path d="M12.4659 5H10.7045C10.6004 4.49337 10.4181 4.0483 10.1577 3.66477C9.90199 3.28125 9.58949 2.95928 9.22017 2.69886C8.85559 2.43371 8.45076 2.23485 8.00568 2.10227C7.56061 1.9697 7.09659 1.90341 6.61364 1.90341C5.73295 1.90341 4.93513 2.12595 4.22017 2.57102C3.50994 3.0161 2.94413 3.67188 2.52273 4.53835C2.10606 5.40483 1.89773 6.4678 1.89773 7.72727C1.89773 8.98674 2.10606 10.0497 2.52273 10.9162C2.94413 11.7827 3.50994 12.4384 4.22017 12.8835C4.93513 13.3286 5.73295 13.5511 6.61364 13.5511C7.09659 13.5511 7.56061 13.4848 8.00568 13.3523C8.45076 13.2197 8.85559 13.0232 9.22017 12.7628C9.58949 12.4976 9.90199 12.1733 10.1577 11.7898C10.4181 11.4015 10.6004 10.9564 10.7045 10.4545H12.4659C12.3333 11.1979 12.0919 11.8632 11.7415 12.4503C11.3911 13.0374 10.9555 13.5369 10.4347 13.9489C9.91383 14.3561 9.32907 14.6662 8.6804 14.8793C8.03646 15.0923 7.34754 15.1989 6.61364 15.1989C5.37311 15.1989 4.26989 14.8958 3.30398 14.2898C2.33807 13.6837 1.57813 12.822 1.02415 11.7045C0.470171 10.5871 0.193182 9.26136 0.193182 7.72727C0.193182 6.19318 0.470171 4.86742 1.02415 3.75C1.57813 2.63258 2.33807 1.77083 3.30398 1.16477C4.26989 0.558712 5.37311 0.255681 6.61364 0.255681C7.34754 0.255681 8.03646 0.362215 8.6804 0.575284C9.32907 0.788352 9.91383 1.10085 10.4347 1.51278C10.9555 1.91998 11.3911 2.41714 11.7415 3.00426C12.0919 3.58665 12.3333 4.25189 12.4659 5ZM27.5849 7.72727C27.5849 9.26136 27.3079 10.5871 26.7539 11.7045C26.1999 12.822 25.44 13.6837 24.4741 14.2898C23.5082 14.8958 22.4049 15.1989 21.1644 15.1989C19.9239 15.1989 18.8207 14.8958 17.8548 14.2898C16.8888 13.6837 16.1289 12.822 15.5749 11.7045C15.021 10.5871 14.744 9.26136 14.744 7.72727C14.744 6.19318 15.021 4.86742 15.5749 3.75C16.1289 2.63258 16.8888 1.77083 17.8548 1.16477C18.8207 0.558712 19.9239 0.255681 21.1644 0.255681C22.4049 0.255681 23.5082 0.558712 24.4741 1.16477C25.44 1.77083 26.1999 2.63258 26.7539 3.75C27.3079 4.86742 27.5849 6.19318 27.5849 7.72727ZM25.8803 7.72727C25.8803 6.4678 25.6696 5.40483 25.2482 4.53835C24.8316 3.67188 24.2657 3.0161 23.5508 2.57102C22.8406 2.12595 22.0451 1.90341 21.1644 1.90341C20.2837 1.90341 19.4859 2.12595 18.771 2.57102C18.0607 3.0161 17.4949 3.67188 17.0735 4.53835C16.6568 5.40483 16.4485 6.4678 16.4485 7.72727C16.4485 8.98674 16.6568 10.0497 17.0735 10.9162C17.4949 11.7827 18.0607 12.4384 18.771 12.8835C19.4859 13.3286 20.2837 13.5511 21.1644 13.5511C22.0451 13.5511 22.8406 13.3286 23.5508 12.8835C24.2657 12.4384 24.8316 11.7827 25.2482 10.9162C25.6696 10.0497 25.8803 8.98674 25.8803 7.72727ZM42.0806 0.454545V15H40.3761L32.4499 3.57955H32.3079V15H30.5465V0.454545H32.2511L40.2056 11.9034H40.3477V0.454545H42.0806ZM44.8097 2.01705V0.454545H55.7188V2.01705H51.1449V15H49.3835V2.01705H44.8097ZM57.3345 15H55.4879L60.8288 0.454545H62.647L67.9879 15H66.1413L61.7947 2.75568H61.6811L57.3345 15ZM58.0163 9.31818H65.4595V10.8807H58.0163V9.31818ZM81.2745 5H79.5131C79.409 4.49337 79.2267 4.0483 78.9663 3.66477C78.7106 3.28125 78.3981 2.95928 78.0288 2.69886C77.6642 2.43371 77.2594 2.23485 76.8143 2.10227C76.3692 1.9697 75.9052 1.90341 75.4222 1.90341C74.5415 1.90341 73.7437 2.12595 73.0288 2.57102C72.3185 3.0161 71.7527 3.67188 71.3313 4.53835C70.9147 5.40483 70.7063 6.4678 70.7063 7.72727C70.7063 8.98674 70.9147 10.0497 71.3313 10.9162C71.7527 11.7827 72.3185 12.4384 73.0288 12.8835C73.7437 13.3286 74.5415 13.5511 75.4222 13.5511C75.9052 13.5511 76.3692 13.4848 76.8143 13.3523C77.2594 13.2197 77.6642 13.0232 78.0288 12.7628C78.3981 12.4976 78.7106 12.1733 78.9663 11.7898C79.2267 11.4015 79.409 10.9564 79.5131 10.4545H81.2745C81.1419 11.1979 80.9005 11.8632 80.5501 12.4503C80.1997 13.0374 79.7641 13.5369 79.2433 13.9489C78.7224 14.3561 78.1377 14.6662 77.489 14.8793C76.8451 15.0923 76.1561 15.1989 75.4222 15.1989C74.1817 15.1989 73.0785 14.8958 72.1126 14.2898C71.1467 13.6837 70.3867 12.822 69.8327 11.7045C69.2788 10.5871 69.0018 9.26136 69.0018 7.72727C69.0018 6.19318 69.2788 4.86742 69.8327 3.75C70.3867 2.63258 71.1467 1.77083 72.1126 1.16477C73.0785 0.558712 74.1817 0.255681 75.4222 0.255681C76.1561 0.255681 76.8451 0.362215 77.489 0.575284C78.1377 0.788352 78.7224 1.10085 79.2433 1.51278C79.7641 1.91998 80.1997 2.41714 80.5501 3.00426C80.9005 3.58665 81.1419 4.25189 81.2745 5ZM83.3253 2.01705V0.454545H94.2344V2.01705H89.6605V15H87.8991V2.01705H83.3253Z" fill="#2414DB"/>
</svg>
