<svg width="323" height="142" viewBox="0 0 323 142" fill="none" xmlns="http://www.w3.org/2000/svg">
<path d="M5.26274 69.8095H10.7485L7.9675 62.5905L5.26274 69.8095ZM2.32941 74.5714L7.35798 61.3333H8.59608L13.5866 74.5714H12.5008L11.1104 70.8952H4.84369L3.45322 74.5714H2.32941ZM21.7947 74.5714V73.4667C21.128 74.2095 20.347 74.5714 19.3185 74.5714C18.2518 74.5714 17.4328 74.2095 16.728 73.5048C16.0613 72.8381 15.6994 71.7143 15.6994 70.2286C15.6994 68.781 16.0423 67.6762 16.728 66.9524C17.4137 66.2667 18.2518 65.8667 19.3185 65.8667C20.347 65.8667 21.128 66.2476 21.7947 67.0095V61.3333H22.8994V74.5714H21.7947ZM19.3185 66.9905C18.5566 66.9905 17.8899 67.2571 17.4899 67.7333C17.1089 68.1905 16.8423 69.1429 16.8423 70.2286C16.8423 71.3524 17.1089 72.2286 17.4899 72.7048C17.8899 73.2381 18.5375 73.4476 19.3185 73.4476C20.0423 73.4476 20.7089 73.2381 21.128 72.7048C21.5661 72.2095 21.7947 71.3524 21.7947 70.2286C21.7947 69.1429 21.5661 68.2095 21.128 67.7333C20.7089 67.2762 20.0423 66.9905 19.3185 66.9905ZM31.0329 74.5714V73.4667C30.3663 74.2095 29.5853 74.5714 28.5568 74.5714C27.4901 74.5714 26.671 74.2095 25.9663 73.5048C25.2996 72.8381 24.9377 71.7143 24.9377 70.2286C24.9377 68.781 25.2806 67.6762 25.9663 66.9524C26.652 66.2667 27.4901 65.8667 28.5568 65.8667C29.5853 65.8667 30.3663 66.2476 31.0329 67.0095V61.3333H32.1377V74.5714H31.0329ZM28.5568 66.9905C27.7948 66.9905 27.1282 67.2571 26.7282 67.7333C26.3472 68.1905 26.0806 69.1429 26.0806 70.2286C26.0806 71.3524 26.3472 72.2286 26.7282 72.7048C27.1282 73.2381 27.7758 73.4476 28.5568 73.4476C29.2806 73.4476 29.9472 73.2381 30.3663 72.7048C30.8044 72.2095 31.0329 71.3524 31.0329 70.2286C31.0329 69.1429 30.8044 68.2095 30.3663 67.7333C29.9472 67.2762 29.2806 66.9905 28.5568 66.9905ZM34.3093 74.5714V65.8667H35.4141V66.9905C36.0998 66.2095 36.8998 65.8667 37.8903 65.8667C39.0141 65.8667 39.8331 66.1905 40.4617 66.8952L39.8331 67.7333C39.3188 67.2571 38.6903 66.9905 37.8903 66.9905C37.1093 66.9905 36.5188 67.2571 36.0807 67.7333C35.6236 68.2286 35.4141 69.0667 35.4141 70.2286V74.5714H34.3093ZM48.1828 69.2381C48.1257 68.4571 47.8971 67.9048 47.4971 67.581C47.0781 67.2 46.5447 66.9905 45.7638 66.9905C45.0209 66.9905 44.4305 67.181 44.0114 67.581C43.6495 67.9429 43.3828 68.4571 43.3257 69.2381H48.1828ZM48.8495 72.8762C48.0685 74 47.04 74.5714 45.7638 74.5714C44.6971 74.5714 43.8781 74.2095 43.1733 73.5048C42.5066 72.8381 42.1447 71.7143 42.1447 70.2286C42.1447 68.781 42.4876 67.6381 43.1543 66.9524C43.84 66.2667 44.6781 65.8667 45.7638 65.8667C46.7924 65.8667 47.6685 66.2667 48.3733 66.9524C48.9828 67.581 49.3447 68.7619 49.3447 70.3429H43.2876C43.3066 72.4762 44.24 73.4476 45.7638 73.4476C46.6781 73.4476 47.3447 73.0857 47.8019 72.4571L48.8495 72.8762ZM55.6986 67.6762C55.3557 67.219 54.7653 66.9905 53.8891 66.9905C53.2224 66.9905 52.7653 67.1238 52.5367 67.3714C52.3081 67.619 52.1938 67.9429 52.1938 68.3619C52.1938 68.7619 53.07 69.2762 54.3843 69.9048C55.7177 70.5143 56.7081 71.3714 56.7081 72.1333C56.7081 72.8 56.4986 73.4286 56.0796 73.8857C55.6986 74.3048 54.8986 74.5714 53.8891 74.5714C52.5938 74.5714 51.6605 74.0381 51.1462 72.8952L52.1557 72.5905C52.3843 73.1619 52.9938 73.4476 53.8891 73.4476C55.051 73.4476 55.6224 73.1429 55.6224 72.1333C55.6224 71.6762 54.5938 71.0667 53.4129 70.5714C52.0034 69.9619 51.051 69.0667 51.051 68.3619C51.051 67.619 51.2796 66.9905 51.6605 66.5714C52.0796 66.1143 52.8605 65.8667 53.8891 65.8667C55.1653 65.8667 56.0986 66.2667 56.651 67.1238L55.6986 67.6762ZM63.0619 67.6762C62.719 67.219 62.1286 66.9905 61.2524 66.9905C60.5857 66.9905 60.1286 67.1238 59.9 67.3714C59.6714 67.619 59.5571 67.9429 59.5571 68.3619C59.5571 68.7619 60.4333 69.2762 61.7476 69.9048C63.0809 70.5143 64.0714 71.3714 64.0714 72.1333C64.0714 72.8 63.8619 73.4286 63.4428 73.8857C63.0619 74.3048 62.2619 74.5714 61.2524 74.5714C59.9571 74.5714 59.0238 74.0381 58.5095 72.8952L59.519 72.5905C59.7476 73.1619 60.3571 73.4476 61.2524 73.4476C62.4143 73.4476 62.9857 73.1429 62.9857 72.1333C62.9857 71.6762 61.9571 71.0667 60.7762 70.5714C59.3666 69.9619 58.4143 69.0667 58.4143 68.3619C58.4143 67.619 58.6428 66.9905 59.0238 66.5714C59.4428 66.1143 60.2238 65.8667 61.2524 65.8667C62.5286 65.8667 63.4619 66.2667 64.0143 67.1238L63.0619 67.6762ZM66.6156 67.8476C66.6156 67.3905 67.0347 66.9524 67.5299 66.9524C68.0442 66.9524 68.4442 67.3333 68.4442 67.8476C68.4442 68.3619 68.0252 68.781 67.5299 68.781C67.0537 68.781 66.6156 68.3619 66.6156 67.8476ZM66.6156 73.581C66.6156 73.1238 67.0347 72.6857 67.5299 72.6857C68.0442 72.6857 68.4442 73.0667 68.4442 73.581C68.4442 74.1333 68.0061 74.5143 67.5299 74.5143C67.0537 74.5143 66.6156 74.0952 66.6156 73.581Z" fill="#0D69A9"/>
<path d="M76.4215 73.4476H78.7453C79.8882 73.4476 80.8977 73.0286 81.7548 72.2095C82.612 71.3714 83.031 69.9238 83.031 67.9619C83.031 64.2095 81.4882 62.419 78.7453 62.419H76.4215V73.4476ZM75.2786 74.5714V61.3333H78.7453C80.231 61.3333 81.5262 61.8286 82.5929 62.8571C83.6596 63.8667 84.1548 65.5238 84.1548 67.9619C84.1548 70.2857 83.6215 71.9429 82.5167 73.0095C81.4501 74.0571 80.1929 74.5714 78.7453 74.5714H75.2786ZM91.5606 70.1714C91.0653 70.5905 90.3606 70.781 89.5034 70.781C88.7796 70.781 88.2463 70.8762 87.9225 71.0857C87.5606 71.3333 87.3701 71.6571 87.3701 72.1143C87.3701 73.0667 88.0368 73.4476 89.4653 73.4476C89.9606 73.4476 90.4558 73.3905 90.8368 73.2381C91.2939 73.0667 91.5606 72.6857 91.5606 72.1143V70.1714ZM86.2844 67.619C86.6463 67.0476 87.0463 66.6095 87.4653 66.3619C88.0558 66.0381 88.6653 65.8667 89.4653 65.8667C90.7034 65.8667 91.5796 66.1714 91.9987 66.7429C92.3987 67.3143 92.6653 68.0762 92.6653 68.819V74.5714H91.5606V74.2095C91.0082 74.4571 90.3034 74.5714 89.4653 74.5714C88.532 74.5714 87.5987 74.3048 87.0844 73.8667C86.532 73.4286 86.2463 72.7619 86.2463 72.1143C86.2463 71.4857 86.4368 70.8952 86.8368 70.4C87.1987 69.9238 88.0749 69.6762 89.4653 69.6762C90.2273 69.6762 90.7796 69.5429 91.0653 69.3143C91.3511 69.1048 91.5606 68.7429 91.5606 68.381C91.5606 68 91.3511 67.6952 91.0653 67.3905C90.7606 67.1238 90.1892 66.9905 89.4653 66.9905C89.0844 66.9905 88.5892 67.0286 88.2463 67.2C87.9225 67.3333 87.5987 67.6381 87.4653 68L86.2844 67.619ZM94.3713 65.8667H95.5332L98.6189 73.4667L101.686 65.8667H102.847L99.1903 74.5714H98.0094L94.3713 65.8667ZM105.937 62.8381C106.28 62.8381 106.47 63.1048 106.47 63.3905C106.47 63.7524 106.28 63.9429 105.937 63.9429C105.575 63.9429 105.404 63.7524 105.404 63.3905C105.404 63.1048 105.575 62.8381 105.937 62.8381ZM105.404 74.5714V65.8667H106.47V74.5714H105.404ZM115.115 74.5714V73.4667C114.448 74.2095 113.667 74.5714 112.639 74.5714C111.572 74.5714 110.753 74.2095 110.048 73.5048C109.382 72.8381 109.02 71.7143 109.02 70.2286C109.02 68.781 109.363 67.6762 110.048 66.9524C110.734 66.2667 111.572 65.8667 112.639 65.8667C113.667 65.8667 114.448 66.2476 115.115 67.0095V61.3333H116.22V74.5714H115.115ZM112.639 66.9905C111.877 66.9905 111.21 67.2571 110.81 67.7333C110.429 68.1905 110.163 69.1429 110.163 70.2286C110.163 71.3524 110.429 72.2286 110.81 72.7048C111.21 73.2381 111.858 73.4476 112.639 73.4476C113.363 73.4476 114.029 73.2381 114.448 72.7048C114.886 72.2095 115.115 71.3524 115.115 70.2286C115.115 69.1429 114.886 68.2095 114.448 67.7333C114.029 67.2762 113.363 66.9905 112.639 66.9905ZM125.517 69.8095H131.002L128.221 62.5905L125.517 69.8095ZM122.583 74.5714L127.612 61.3333H128.85L133.84 74.5714H132.755L131.364 70.8952H125.098L123.707 74.5714H122.583ZM137.991 77.8476C140.239 77.8476 142.049 77.5048 142.049 75.7143V73.4667C141.382 74.2095 140.601 74.5714 139.572 74.5714C138.506 74.5714 137.687 74.2095 136.982 73.5048C136.315 72.8381 135.953 71.7143 135.953 70.2286C135.953 68.781 136.296 67.6762 136.982 66.9524C137.668 66.2667 138.506 65.8667 139.572 65.8667C140.601 65.8667 141.382 66.2476 142.049 67.0095V65.8667H143.153V75.6571C143.153 78.6286 140.258 78.9524 137.991 78.8571V77.8476ZM139.572 66.9905C138.81 66.9905 138.144 67.2571 137.744 67.7333C137.363 68.1905 137.096 69.1429 137.096 70.2286C137.096 71.3524 137.363 72.2286 137.744 72.7048C138.144 73.2381 138.791 73.4476 139.572 73.4476C140.296 73.4476 140.963 73.2381 141.382 72.7048C141.82 72.2095 142.049 71.3524 142.049 70.2286C142.049 69.1429 141.82 68.2095 141.382 67.7333C140.963 67.2762 140.296 66.9905 139.572 66.9905ZM145.534 74.5714V61.3333H146.677V66.9905C147.344 66.2476 148.144 65.8667 149.134 65.8667C150.144 65.8667 151.077 66.2857 151.725 66.9524C152.373 67.6381 152.715 68.781 152.715 70.2286V74.5714H151.611V70.2286C151.611 69.1429 151.401 68.2286 150.925 67.7333C150.506 67.3333 149.839 66.9905 149.134 66.9905C148.354 66.9905 147.744 67.2952 147.325 67.7333C146.868 68.2286 146.677 69.1429 146.677 70.2286V74.5714H145.534ZM154.563 74.5714V65.8667H155.668V66.9905C156.354 66.2476 157.192 65.8667 158.163 65.8667C159.497 65.8667 160.487 66.5524 161.192 67.5619C161.897 66.5524 162.849 65.8667 164.22 65.8667C165.287 65.8667 166.163 66.2857 166.811 66.9524C167.478 67.6571 167.801 68.781 167.801 70.2286V74.5714H166.716V70.2286C166.716 69.0667 166.487 68.1905 166.087 67.7333C165.611 67.2571 165.001 66.9905 164.22 66.9905C163.478 66.9905 162.887 67.2952 162.43 67.7333C161.954 68.2286 161.763 69.0667 161.763 70.2286V74.5714H160.658V70.2286C160.658 69.1238 160.411 68.2095 159.973 67.7333C159.573 67.2762 158.925 66.9905 158.163 66.9905C157.363 66.9905 156.792 67.2571 156.354 67.7333C155.897 68.2286 155.668 69.0476 155.668 70.2286V74.5714H154.563ZM174.842 70.1714C174.347 70.5905 173.642 70.781 172.785 70.781C172.061 70.781 171.528 70.8762 171.204 71.0857C170.842 71.3333 170.651 71.6571 170.651 72.1143C170.651 73.0667 171.318 73.4476 172.747 73.4476C173.242 73.4476 173.737 73.3905 174.118 73.2381C174.575 73.0667 174.842 72.6857 174.842 72.1143V70.1714ZM169.566 67.619C169.928 67.0476 170.328 66.6095 170.747 66.3619C171.337 66.0381 171.947 65.8667 172.747 65.8667C173.985 65.8667 174.861 66.1714 175.28 66.7429C175.68 67.3143 175.947 68.0762 175.947 68.819V74.5714H174.842V74.2095C174.289 74.4571 173.585 74.5714 172.747 74.5714C171.813 74.5714 170.88 74.3048 170.366 73.8667C169.813 73.4286 169.528 72.7619 169.528 72.1143C169.528 71.4857 169.718 70.8952 170.118 70.4C170.48 69.9238 171.356 69.6762 172.747 69.6762C173.509 69.6762 174.061 69.5429 174.347 69.3143C174.632 69.1048 174.842 68.7429 174.842 68.381C174.842 68 174.632 67.6952 174.347 67.3905C174.042 67.1238 173.47 66.9905 172.747 66.9905C172.366 66.9905 171.87 67.0286 171.528 67.2C171.204 67.3333 170.88 67.6381 170.747 68L169.566 67.619ZM182.3 67.6762C181.957 67.219 181.367 66.9905 180.491 66.9905C179.824 66.9905 179.367 67.1238 179.138 67.3714C178.91 67.619 178.795 67.9429 178.795 68.3619C178.795 68.7619 179.672 69.2762 180.986 69.9048C182.319 70.5143 183.31 71.3714 183.31 72.1333C183.31 72.8 183.1 73.4286 182.681 73.8857C182.3 74.3048 181.5 74.5714 180.491 74.5714C179.195 74.5714 178.262 74.0381 177.748 72.8952L178.757 72.5905C178.986 73.1619 179.595 73.4476 180.491 73.4476C181.653 73.4476 182.224 73.1429 182.224 72.1333C182.224 71.6762 181.195 71.0667 180.014 70.5714C178.605 69.9619 177.653 69.0667 177.653 68.3619C177.653 67.619 177.881 66.9905 178.262 66.5714C178.681 66.1143 179.462 65.8667 180.491 65.8667C181.767 65.8667 182.7 66.2667 183.253 67.1238L182.3 67.6762ZM185.359 74.5714V61.3333H186.502V66.9905C187.168 66.2476 187.968 65.8667 188.959 65.8667C189.968 65.8667 190.902 66.2857 191.549 66.9524C192.197 67.6381 192.54 68.781 192.54 70.2286V74.5714H191.435V70.2286C191.435 69.1429 191.225 68.2286 190.749 67.7333C190.33 67.3333 189.663 66.9905 188.959 66.9905C188.178 66.9905 187.568 67.2952 187.149 67.7333C186.692 68.2286 186.502 69.1429 186.502 70.2286V74.5714H185.359ZM200.292 69.2381C200.235 68.4571 200.006 67.9048 199.606 67.581C199.187 67.2 198.654 66.9905 197.873 66.9905C197.13 66.9905 196.54 67.181 196.121 67.581C195.759 67.9429 195.492 68.4571 195.435 69.2381H200.292ZM200.959 72.8762C200.178 74 199.149 74.5714 197.873 74.5714C196.806 74.5714 195.987 74.2095 195.283 73.5048C194.616 72.8381 194.254 71.7143 194.254 70.2286C194.254 68.781 194.597 67.6381 195.264 66.9524C195.949 66.2667 196.787 65.8667 197.873 65.8667C198.902 65.8667 199.778 66.2667 200.483 66.9524C201.092 67.581 201.454 68.7619 201.454 70.3429H195.397C195.416 72.4762 196.349 73.4476 197.873 73.4476C198.787 73.4476 199.454 73.0857 199.911 72.4571L200.959 72.8762ZM203.294 74.5714V65.8667H204.418V66.9905C205.084 66.2476 205.922 65.8667 206.894 65.8667C207.922 65.8667 208.837 66.2857 209.484 66.9524C210.132 67.6381 210.513 68.781 210.513 70.2286V74.5714H209.389V70.2286C209.389 69.1429 209.141 68.2095 208.703 67.7333C208.303 67.3143 207.618 66.9905 206.894 66.9905C206.113 66.9905 205.484 67.2571 205.084 67.7333C204.684 68.1905 204.418 69.1429 204.418 70.2286V74.5714H203.294ZM218.241 69.2381C218.184 68.4571 217.956 67.9048 217.556 67.581C217.137 67.2 216.603 66.9905 215.822 66.9905C215.08 66.9905 214.489 67.181 214.07 67.581C213.708 67.9429 213.441 68.4571 213.384 69.2381H218.241ZM218.908 72.8762C218.127 74 217.099 74.5714 215.822 74.5714C214.756 74.5714 213.937 74.2095 213.232 73.5048C212.565 72.8381 212.203 71.7143 212.203 70.2286C212.203 68.781 212.546 67.6381 213.213 66.9524C213.899 66.2667 214.737 65.8667 215.822 65.8667C216.851 65.8667 217.727 66.2667 218.432 66.9524C219.041 67.581 219.403 68.7619 219.403 70.3429H213.346C213.365 72.4762 214.299 73.4476 215.822 73.4476C216.737 73.4476 217.403 73.0857 217.86 72.4571L218.908 72.8762ZM225.052 66.9905C224.271 66.9905 223.662 67.2952 223.243 67.7333C222.786 68.2286 222.595 69.1429 222.595 70.2286C222.595 71.3143 222.805 72.2095 223.243 72.7048C223.662 73.219 224.31 73.4476 225.052 73.4476C225.776 73.4476 226.405 73.219 226.843 72.7048C227.281 72.1905 227.529 71.3524 227.529 70.2286C227.529 69.1429 227.319 68.2286 226.843 67.7333C226.424 67.3333 225.757 66.9905 225.052 66.9905ZM221.452 74.5714V61.3333H222.595V66.9905C223.262 66.2476 224.062 65.8667 225.052 65.8667C226.062 65.8667 226.995 66.2857 227.643 66.9524C228.291 67.6381 228.633 68.781 228.633 70.2286C228.633 71.7143 228.271 72.781 227.643 73.4857C226.976 74.2095 226.119 74.5714 225.052 74.5714C224.062 74.5714 223.262 74.2095 222.595 73.4667V74.5714H221.452ZM236.386 69.2381C236.329 68.4571 236.1 67.9048 235.7 67.581C235.281 67.2 234.748 66.9905 233.967 66.9905C233.224 66.9905 232.634 67.181 232.215 67.581C231.853 67.9429 231.586 68.4571 231.529 69.2381H236.386ZM237.053 72.8762C236.272 74 235.243 74.5714 233.967 74.5714C232.9 74.5714 232.081 74.2095 231.376 73.5048C230.71 72.8381 230.348 71.7143 230.348 70.2286C230.348 68.781 230.691 67.6381 231.357 66.9524C232.043 66.2667 232.881 65.8667 233.967 65.8667C234.995 65.8667 235.872 66.2667 236.576 66.9524C237.186 67.581 237.548 68.7619 237.548 70.3429H231.491C231.51 72.4762 232.443 73.4476 233.967 73.4476C234.881 73.4476 235.548 73.0857 236.005 72.4571L237.053 72.8762ZM240.13 74.5714V61.3333H241.197V74.5714H240.13ZM245.156 62.8381C245.499 62.8381 245.689 63.1048 245.689 63.3905C245.689 63.7524 245.499 63.9429 245.156 63.9429C244.794 63.9429 244.622 63.7524 244.622 63.3905C244.622 63.1048 244.794 62.8381 245.156 62.8381ZM244.622 74.5714V65.8667H245.689V74.5714H244.622ZM255.497 69.8095H260.983L258.202 62.5905L255.497 69.8095ZM252.564 74.5714L257.592 61.3333H258.83L263.821 74.5714H262.735L261.345 70.8952H255.078L253.688 74.5714H252.564ZM266.81 74.5714V61.3333H267.877V74.5714H266.81ZM271.302 74.5714V61.3333H272.369V74.5714H271.302ZM280.956 69.2381C280.899 68.4571 280.671 67.9048 280.271 67.581C279.852 67.2 279.318 66.9905 278.537 66.9905C277.794 66.9905 277.204 67.181 276.785 67.581C276.423 67.9429 276.156 68.4571 276.099 69.2381H280.956ZM281.623 72.8762C280.842 74 279.813 74.5714 278.537 74.5714C277.471 74.5714 276.652 74.2095 275.947 73.5048C275.28 72.8381 274.918 71.7143 274.918 70.2286C274.918 68.781 275.261 67.6381 275.928 66.9524C276.613 66.2667 277.452 65.8667 278.537 65.8667C279.566 65.8667 280.442 66.2667 281.147 66.9524C281.756 67.581 282.118 68.7619 282.118 70.3429H276.061C276.08 72.4762 277.013 73.4476 278.537 73.4476C279.452 73.4476 280.118 73.0857 280.575 72.4571L281.623 72.8762ZM283.92 65.8667H285.024L288.186 73.4667L291.348 65.8667H292.434L287.977 76.2095C287.139 78.1714 286.11 79.1238 285.139 79.1238H283.824V78.2095H285.139C285.634 78.2095 286.224 77.619 286.834 76.4L287.653 74.7619L283.92 65.8667ZM300.727 74.4952V63.6H298.537V62.5143C299.451 62.4952 300.023 62.3429 300.308 62.0381V62.0571C300.556 61.7524 300.708 61.3524 300.727 60.6476H301.737V74.4952H300.727ZM308.353 73.4286C309.343 73.4286 310.105 73.1619 310.715 72.5714C311.362 71.9429 311.629 71.1048 311.629 69.981C311.629 68.8571 311.343 68.0381 310.753 67.4095C310.181 66.8 309.4 66.5143 308.353 66.5143C307.762 66.5143 307.115 66.6095 306.657 66.781C306.143 66.9524 305.648 67.3524 305.115 67.9429C305.115 69.619 305.4 70.9524 306.01 71.9048C306.619 72.8952 307.477 73.4286 308.353 73.4286ZM308.353 74.4952C306.848 74.4952 305.781 73.9048 305.115 72.6857C304.41 71.4286 304.029 69.7143 304.029 67.5619C304.029 65.2571 304.429 63.5619 305.172 62.381C305.915 61.219 306.924 60.6476 308.353 60.6476C309.457 60.6476 310.257 60.8381 310.924 61.2C311.477 61.5048 311.972 61.9048 312.429 62.4571L311.762 63.0095C310.962 62.2286 309.781 61.6952 308.353 61.6952C307.381 61.6952 306.619 62.0952 306.048 62.8762C305.496 63.6571 305.172 64.9143 305.096 66.6476C306.124 65.8286 307.21 65.4286 308.353 65.4286C309.591 65.4286 310.619 65.8857 311.457 66.7429C312.257 67.581 312.677 68.6286 312.677 69.981C312.677 71.2762 312.277 72.3429 311.457 73.2C310.638 74.0571 309.61 74.4952 308.353 74.4952ZM318.381 67.0286C319.219 66.9714 319.924 66.8 320.495 66.4C321.105 65.9619 321.429 65.2571 321.429 64.3619C321.429 63.619 321.143 62.9333 320.553 62.4381C319.962 61.9619 319.124 61.6952 318.134 61.6952C317.086 61.6952 316.267 62.0381 315.657 62.7048C315.181 63.219 314.914 63.9048 314.838 64.5143H313.848C313.905 63.7905 314.191 63.0095 314.819 62.0952C315.486 61.1429 316.553 60.6476 318.134 60.6476C319.429 60.6476 320.457 60.9524 321.257 61.619C322.038 62.2667 322.438 63.181 322.438 64.3619C322.438 65.8667 321.314 67.1429 320.172 67.6C321.314 67.9619 322.438 69.181 322.438 70.7619C322.438 72.0952 322.076 73.0476 321.314 73.6C320.514 74.1905 319.429 74.4952 318.134 74.4952C316.953 74.4952 315.867 74.0762 315.048 73.3714C314.248 72.6667 313.848 71.7524 313.829 70.419H314.838C314.914 71.219 315.238 72.0381 315.753 72.5714C316.362 73.1429 317.181 73.4286 318.134 73.4286C318.972 73.4286 319.734 73.2571 320.381 72.8952C321.048 72.5524 321.429 71.7905 321.429 70.7619C321.429 69.9619 321.105 69.2571 320.534 68.8C319.981 68.381 319.276 68.1524 318.381 68.0952V67.0286Z" fill="black"/>
<path d="M1.25714 93.419V92.3333H11.5429V93.419H6.97143V105.571H5.84762V93.419H1.25714ZM19.6692 100.238C19.612 99.4571 19.3834 98.9048 18.9834 98.581C18.5644 98.2 18.0311 97.9905 17.2501 97.9905C16.5073 97.9905 15.9168 98.181 15.4977 98.581C15.1358 98.9429 14.8692 99.4571 14.812 100.238H19.6692ZM20.3358 103.876C19.5549 105 18.5263 105.571 17.2501 105.571C16.1834 105.571 15.3644 105.21 14.6596 104.505C13.993 103.838 13.6311 102.714 13.6311 101.229C13.6311 99.781 13.9739 98.6381 14.6406 97.9524C15.3263 97.2667 16.1644 96.8667 17.2501 96.8667C18.2787 96.8667 19.1549 97.2667 19.8596 97.9524C20.4692 98.581 20.8311 99.7619 20.8311 101.343H14.7739C14.793 103.476 15.7263 104.448 17.2501 104.448C18.1644 104.448 18.8311 104.086 19.2882 103.457L20.3358 103.876ZM23.4135 105.571V92.3333H24.4802V105.571H23.4135ZM27.8676 104.6C27.8676 104.105 28.2866 103.705 28.7819 103.705C29.2962 103.705 29.6962 104.086 29.6962 104.6C29.6962 105.133 29.2581 105.533 28.7819 105.533C28.3057 105.533 27.8676 105.114 27.8676 104.6ZM33.0434 98.8476C33.0434 98.3905 33.4624 97.9524 33.9577 97.9524C34.4719 97.9524 34.8719 98.3333 34.8719 98.8476C34.8719 99.3619 34.4529 99.781 33.9577 99.781C33.4815 99.781 33.0434 99.3619 33.0434 98.8476ZM33.0434 104.581C33.0434 104.124 33.4624 103.686 33.9577 103.686C34.4719 103.686 34.8719 104.067 34.8719 104.581C34.8719 105.133 34.4339 105.514 33.9577 105.514C33.4815 105.514 33.0434 105.095 33.0434 104.581Z" fill="#0D69A9"/>
<path d="M45.1921 104.429V101.133H41.5921V100.2H45.1921V96.9238H46.1254V100.2H49.7254V101.133H46.1254V104.429H45.1921ZM55.1516 92.6952C54.1801 92.6952 53.4182 92.981 52.7897 93.6095C52.1611 94.181 51.8754 95.019 51.8754 96.1619C51.8754 97.2667 52.142 98.1238 52.7516 98.7143C53.3611 99.3619 54.123 99.6095 55.1516 99.6095C55.8182 99.6095 56.523 99.381 57.1325 98.9238C57.7992 98.4286 58.2373 97.6095 58.2373 96.4857C58.2373 95.3048 58.0087 94.4095 57.4182 93.7238C56.8278 93.0571 56.0468 92.6952 55.1516 92.6952ZM55.1516 91.6476C56.6563 91.6476 57.6087 92.2952 58.4087 93.4952C59.2468 94.7905 59.4754 96.4476 59.4754 98.5619C59.4754 103.076 57.9706 105.495 55.1516 105.495C54.1039 105.495 53.2278 105.343 52.5801 104.962C52.0849 104.657 51.5325 104.181 51.1135 103.724L51.7611 103.114C52.5611 103.952 53.723 104.429 55.1516 104.429C56.0849 104.429 56.8658 104.029 57.4563 103.248C57.9897 102.505 58.3706 100.905 58.5992 98.5238C57.3801 99.9714 56.2373 100.714 55.1516 100.714C53.8944 100.714 52.8658 100.238 52.0468 99.419C51.2087 98.5619 50.8278 97.4762 50.8278 96.1619C50.8278 94.8857 51.2278 93.781 52.0468 92.9238C52.8468 92.0857 53.8944 91.6476 55.1516 91.6476ZM64.7609 92.6952C63.7895 92.6952 63.0276 92.981 62.399 93.6095C61.7705 94.181 61.4847 95.019 61.4847 96.1619C61.4847 97.2667 61.7514 98.1238 62.3609 98.7143C62.9705 99.3619 63.7324 99.6095 64.7609 99.6095C65.4276 99.6095 66.1324 99.381 66.7419 98.9238C67.4086 98.4286 67.8467 97.6095 67.8467 96.4857C67.8467 95.3048 67.6181 94.4095 67.0276 93.7238C66.4371 93.0571 65.6562 92.6952 64.7609 92.6952ZM64.7609 91.6476C66.2657 91.6476 67.2181 92.2952 68.0181 93.4952C68.8562 94.7905 69.0847 96.4476 69.0847 98.5619C69.0847 103.076 67.58 105.495 64.7609 105.495C63.7133 105.495 62.8371 105.343 62.1895 104.962C61.6943 104.657 61.1419 104.181 60.7228 103.724L61.3705 103.114C62.1705 103.952 63.3324 104.429 64.7609 104.429C65.6943 104.429 66.4752 104.029 67.0657 103.248C67.599 102.505 67.98 100.905 68.2086 98.5238C66.9895 99.9714 65.8467 100.714 64.7609 100.714C63.5038 100.714 62.4752 100.238 61.6562 99.419C60.8181 98.5619 60.4371 97.4762 60.4371 96.1619C60.4371 94.8857 60.8371 93.781 61.6562 92.9238C62.4562 92.0857 63.5038 91.6476 64.7609 91.6476ZM70.0465 91.8381H78.237V92.9048H71.0941V97.8571C71.9894 96.9048 73.0941 96.4286 74.3703 96.4286C75.6084 96.4286 76.6179 96.8667 77.456 97.7238C78.2751 98.5429 78.6941 99.6286 78.6941 100.981C78.6941 102.314 78.2751 103.381 77.5132 104.238C76.7513 105.076 75.7036 105.495 74.3703 105.495C73.1894 105.495 72.1417 105.229 71.4941 104.752C70.9227 104.333 70.3894 103.724 70.1227 103.057L71.0941 102.638C71.7036 103.838 72.7132 104.429 74.3703 104.429C75.437 104.429 76.237 104.124 76.8084 103.495C77.4179 102.848 77.6465 102.048 77.6465 100.981C77.6465 99.9905 77.3798 99.1524 76.7703 98.5238C76.1608 97.8381 75.3227 97.5143 74.3703 97.5143C73.5894 97.5143 72.9417 97.6857 72.3513 97.9524C71.7798 98.219 71.3417 98.5619 71.1132 99.019L70.0465 98.5238V91.8381ZM88.305 98.0286C89.1431 97.9714 89.8478 97.8 90.4193 97.4C91.0288 96.9619 91.3526 96.2571 91.3526 95.3619C91.3526 94.619 91.0669 93.9333 90.4764 93.4381C89.8859 92.9619 89.0478 92.6952 88.0574 92.6952C87.0097 92.6952 86.1907 93.0381 85.5812 93.7048C85.105 94.219 84.8383 94.9048 84.7621 95.5143H83.7717C83.8288 94.7905 84.1145 94.0095 84.7431 93.0952C85.4097 92.1429 86.4764 91.6476 88.0574 91.6476C89.3526 91.6476 90.3812 91.9524 91.1812 92.619C91.9621 93.2667 92.3621 94.181 92.3621 95.3619C92.3621 96.8667 91.2383 98.1429 90.0955 98.6C91.2383 98.9619 92.3621 100.181 92.3621 101.762C92.3621 103.095 92.0002 104.048 91.2383 104.6C90.4383 105.19 89.3526 105.495 88.0574 105.495C86.8764 105.495 85.7907 105.076 84.9717 104.371C84.1717 103.667 83.7717 102.752 83.7526 101.419H84.7621C84.8383 102.219 85.1621 103.038 85.6764 103.571C86.2859 104.143 87.105 104.429 88.0574 104.429C88.8955 104.429 89.6574 104.257 90.305 103.895C90.9717 103.552 91.3526 102.79 91.3526 101.762C91.3526 100.962 91.0288 100.257 90.4574 99.8C89.905 99.381 89.2002 99.1524 88.305 99.0952V98.0286ZM93.3278 105.495V104.295L99.8801 97.4381C100.452 96.8667 100.737 96.181 100.737 95.4762C100.737 94.8286 100.547 94.2 100.128 93.7238C99.5182 93 98.642 92.6952 97.6516 92.6952C96.6039 92.6952 95.8039 93.0381 95.1944 93.7048C94.7373 94.2 94.4516 94.9048 94.3754 95.5143H93.3658C93.3849 94.7905 93.7087 94.0095 94.3563 93.0952C95.0039 92.1238 96.1087 91.6476 97.6516 91.6476C98.7944 91.6476 100.223 92.0476 100.928 92.7524C101.652 93.419 101.975 94.5429 101.975 95.6857C101.975 96.6952 101.556 97.5333 100.813 98.2571L94.642 104.429H101.975V105.495H93.3278ZM106.843 105.495V104.295L113.396 97.4381C113.967 96.8667 114.253 96.181 114.253 95.4762C114.253 94.8286 114.062 94.2 113.643 93.7238C113.034 93 112.158 92.6952 111.167 92.6952C110.12 92.6952 109.32 93.0381 108.71 93.7048C108.253 94.2 107.967 94.9048 107.891 95.5143H106.881C106.901 94.7905 107.224 94.0095 107.872 93.0952C108.52 92.1238 109.624 91.6476 111.167 91.6476C112.31 91.6476 113.739 92.0476 114.443 92.7524C115.167 93.419 115.491 94.5429 115.491 95.6857C115.491 96.6952 115.072 97.5333 114.329 98.2571L108.158 104.429H115.491V105.495H106.843ZM116.453 105.495V104.295L123.005 97.4381C123.577 96.8667 123.862 96.181 123.862 95.4762C123.862 94.8286 123.672 94.2 123.253 93.7238C122.643 93 121.767 92.6952 120.777 92.6952C119.729 92.6952 118.929 93.0381 118.319 93.7048C117.862 94.2 117.577 94.9048 117.5 95.5143H116.491C116.51 94.7905 116.834 94.0095 117.481 93.0952C118.129 92.1238 119.234 91.6476 120.777 91.6476C121.919 91.6476 123.348 92.0476 124.053 92.7524C124.777 93.419 125.1 94.5429 125.1 95.6857C125.1 96.6952 124.681 97.5333 123.938 98.2571L117.767 104.429H125.1V105.495H116.453ZM126.062 105.495V104.295L132.615 97.4381C133.186 96.8667 133.472 96.181 133.472 95.4762C133.472 94.8286 133.281 94.2 132.862 93.7238C132.253 93 131.376 92.6952 130.386 92.6952C129.338 92.6952 128.538 93.0381 127.929 93.7048C127.472 94.2 127.186 94.9048 127.11 95.5143H126.1C126.119 94.7905 126.443 94.0095 127.091 93.0952C127.738 92.1238 128.843 91.6476 130.386 91.6476C131.529 91.6476 132.957 92.0476 133.662 92.7524C134.386 93.419 134.71 94.5429 134.71 95.6857C134.71 96.6952 134.291 97.5333 133.548 98.2571L127.376 104.429H134.71V105.495H126.062ZM139.578 105.495V104.295L146.13 97.4381C146.702 96.8667 146.987 96.181 146.987 95.4762C146.987 94.8286 146.797 94.2 146.378 93.7238C145.768 93 144.892 92.6952 143.902 92.6952C142.854 92.6952 142.054 93.0381 141.444 93.7048C140.987 94.2 140.702 94.9048 140.625 95.5143H139.616C139.635 94.7905 139.959 94.0095 140.606 93.0952C141.254 92.1238 142.359 91.6476 143.902 91.6476C145.044 91.6476 146.473 92.0476 147.178 92.7524C147.902 93.419 148.225 94.5429 148.225 95.6857C148.225 96.6952 147.806 97.5333 147.063 98.2571L140.892 104.429H148.225V105.495H139.578ZM149.187 105.495V104.295L155.74 97.4381C156.311 96.8667 156.597 96.181 156.597 95.4762C156.597 94.8286 156.406 94.2 155.987 93.7238C155.378 93 154.501 92.6952 153.511 92.6952C152.463 92.6952 151.663 93.0381 151.054 93.7048C150.597 94.2 150.311 94.9048 150.235 95.5143H149.225C149.244 94.7905 149.568 94.0095 150.216 93.0952C150.863 92.1238 151.968 91.6476 153.511 91.6476C154.654 91.6476 156.082 92.0476 156.787 92.7524C157.511 93.419 157.835 94.5429 157.835 95.6857C157.835 96.6952 157.416 97.5333 156.673 98.2571L150.501 104.429H157.835V105.495H149.187ZM158.797 105.495V104.295L165.349 97.4381C165.92 96.8667 166.206 96.181 166.206 95.4762C166.206 94.8286 166.016 94.2 165.597 93.7238C164.987 93 164.111 92.6952 163.12 92.6952C162.073 92.6952 161.273 93.0381 160.663 93.7048C160.206 94.2 159.92 94.9048 159.844 95.5143H158.835C158.854 94.7905 159.177 94.0095 159.825 93.0952C160.473 92.1238 161.577 91.6476 163.12 91.6476C164.263 91.6476 165.692 92.0476 166.397 92.7524C167.12 93.419 167.444 94.5429 167.444 95.6857C167.444 96.6952 167.025 97.5333 166.282 98.2571L160.111 104.429H167.444V105.495H158.797Z" fill="black"/>
<path d="M2.25714 136.571V123.333H10.0857V124.419H3.4V129.39H7.95238V130.495H3.4V135.448H10.0857V136.571H2.25714ZM12.323 136.571V127.867H13.4278V128.99C14.1135 128.248 14.9516 127.867 15.923 127.867C17.2563 127.867 18.2468 128.552 18.9516 129.562C19.6563 128.552 20.6087 127.867 21.9801 127.867C23.0468 127.867 23.923 128.286 24.5706 128.952C25.2373 129.657 25.5611 130.781 25.5611 132.229V136.571H24.4754V132.229C24.4754 131.067 24.2468 130.19 23.8468 129.733C23.3706 129.257 22.7611 128.99 21.9801 128.99C21.2373 128.99 20.6468 129.295 20.1897 129.733C19.7135 130.229 19.523 131.067 19.523 132.229V136.571H18.4182V132.229C18.4182 131.124 18.1706 130.21 17.7325 129.733C17.3325 129.276 16.6849 128.99 15.923 128.99C15.123 128.99 14.5516 129.257 14.1135 129.733C13.6563 130.229 13.4278 131.048 13.4278 132.229V136.571H12.323ZM32.6016 132.171C32.1064 132.59 31.4016 132.781 30.5445 132.781C29.8206 132.781 29.2873 132.876 28.9635 133.086C28.6016 133.333 28.4111 133.657 28.4111 134.114C28.4111 135.067 29.0778 135.448 30.5064 135.448C31.0016 135.448 31.4968 135.39 31.8778 135.238C32.3349 135.067 32.6016 134.686 32.6016 134.114V132.171ZM27.3254 129.619C27.6873 129.048 28.0873 128.61 28.5064 128.362C29.0968 128.038 29.7064 127.867 30.5064 127.867C31.7445 127.867 32.6206 128.171 33.0397 128.743C33.4397 129.314 33.7064 130.076 33.7064 130.819V136.571H32.6016V136.21C32.0492 136.457 31.3445 136.571 30.5064 136.571C29.573 136.571 28.6397 136.305 28.1254 135.867C27.573 135.429 27.2873 134.762 27.2873 134.114C27.2873 133.486 27.4778 132.895 27.8778 132.4C28.2397 131.924 29.1159 131.676 30.5064 131.676C31.2683 131.676 31.8206 131.543 32.1064 131.314C32.3921 131.105 32.6016 130.743 32.6016 130.381C32.6016 130 32.3921 129.695 32.1064 129.39C31.8016 129.124 31.2302 128.99 30.5064 128.99C30.1254 128.99 29.6302 129.029 29.2873 129.2C28.9635 129.333 28.6397 129.638 28.5064 130L27.3254 129.619ZM36.8218 124.838C37.1647 124.838 37.3552 125.105 37.3552 125.39C37.3552 125.752 37.1647 125.943 36.8218 125.943C36.4599 125.943 36.2885 125.752 36.2885 125.39C36.2885 125.105 36.4599 124.838 36.8218 124.838ZM36.2885 136.571V127.867H37.3552V136.571H36.2885ZM40.7807 136.571V123.333H41.8474V136.571H40.7807ZM45.2348 129.848C45.2348 129.39 45.6538 128.952 46.1491 128.952C46.6634 128.952 47.0634 129.333 47.0634 129.848C47.0634 130.362 46.6443 130.781 46.1491 130.781C45.6729 130.781 45.2348 130.362 45.2348 129.848ZM45.2348 135.581C45.2348 135.124 45.6538 134.686 46.1491 134.686C46.6634 134.686 47.0634 135.067 47.0634 135.581C47.0634 136.133 46.6253 136.514 46.1491 136.514C45.6729 136.514 45.2348 136.095 45.2348 135.581Z" fill="#0D69A9"/>
<path d="M53.8978 136.571V123.333H61.7263V124.419H55.0406V129.39H59.593V130.495H55.0406V136.571H53.8978ZM66.9025 128.99C66.1406 128.99 65.4739 129.257 65.0739 129.733C64.6929 130.19 64.4263 131.143 64.4263 132.229C64.4263 133.352 64.6929 134.229 65.0739 134.705C65.4739 135.238 66.1215 135.448 66.9025 135.448C67.6263 135.448 68.2929 135.238 68.712 134.705C69.1501 134.21 69.3786 133.352 69.3786 132.229C69.3786 131.143 69.1501 130.21 68.712 129.733C68.2929 129.276 67.6263 128.99 66.9025 128.99ZM63.2834 132.229C63.2834 130.781 63.6263 129.676 64.312 128.952C64.9977 128.267 65.8358 127.867 66.9025 127.867C67.931 127.867 68.8072 128.248 69.512 128.952C70.1786 129.619 70.4834 130.781 70.4834 132.229C70.4834 133.714 70.1596 134.8 69.512 135.486C68.8072 136.21 67.931 136.571 66.9025 136.571C65.8358 136.571 65.0167 136.21 64.312 135.505C63.6453 134.838 63.2834 133.714 63.2834 132.229ZM72.323 136.571V127.867H73.4278V128.99C74.1135 128.21 74.9135 127.867 75.9039 127.867C77.0278 127.867 77.8468 128.19 78.4754 128.895L77.8468 129.733C77.3325 129.257 76.7039 128.99 75.9039 128.99C75.123 128.99 74.5325 129.257 74.0944 129.733C73.6373 130.229 73.4278 131.067 73.4278 132.229V136.571H72.323ZM86.2536 136.571V135.467C85.587 136.21 84.806 136.571 83.7775 136.571C82.7108 136.571 81.8917 136.21 81.187 135.505C80.5203 134.838 80.1584 133.714 80.1584 132.229C80.1584 130.781 80.5013 129.676 81.187 128.952C81.8727 128.267 82.7108 127.867 83.7775 127.867C84.806 127.867 85.587 128.248 86.2536 129.01V123.333H87.3584V136.571H86.2536ZM83.7775 128.99C83.0156 128.99 82.3489 129.257 81.9489 129.733C81.5679 130.19 81.3013 131.143 81.3013 132.229C81.3013 133.352 81.5679 134.229 81.9489 134.705C82.3489 135.238 82.9965 135.448 83.7775 135.448C84.5013 135.448 85.1679 135.238 85.587 134.705C86.0251 134.21 86.2536 133.352 86.2536 132.229C86.2536 131.143 86.0251 130.21 85.587 129.733C85.1679 129.276 84.5013 128.99 83.7775 128.99ZM89.53 136.571V127.867H90.6348V128.99C91.3205 128.248 92.1586 127.867 93.13 127.867C94.4634 127.867 95.4538 128.552 96.1586 129.562C96.8634 128.552 97.8157 127.867 99.1872 127.867C100.254 127.867 101.13 128.286 101.778 128.952C102.444 129.657 102.768 130.781 102.768 132.229V136.571H101.682V132.229C101.682 131.067 101.454 130.19 101.054 129.733C100.578 129.257 99.9681 128.99 99.1872 128.99C98.4443 128.99 97.8538 129.295 97.3967 129.733C96.9205 130.229 96.73 131.067 96.73 132.229V136.571H95.6253V132.229C95.6253 131.124 95.3776 130.21 94.9395 129.733C94.5395 129.276 93.8919 128.99 93.13 128.99C92.33 128.99 91.7586 129.257 91.3205 129.733C90.8634 130.229 90.6348 131.048 90.6348 132.229V136.571H89.53ZM109.809 132.171C109.313 132.59 108.609 132.781 107.751 132.781C107.028 132.781 106.494 132.876 106.171 133.086C105.809 133.333 105.618 133.657 105.618 134.114C105.618 135.067 106.285 135.448 107.713 135.448C108.209 135.448 108.704 135.39 109.085 135.238C109.542 135.067 109.809 134.686 109.809 134.114V132.171ZM104.532 129.619C104.894 129.048 105.294 128.61 105.713 128.362C106.304 128.038 106.913 127.867 107.713 127.867C108.951 127.867 109.828 128.171 110.247 128.743C110.647 129.314 110.913 130.076 110.913 130.819V136.571H109.809V136.21C109.256 136.457 108.551 136.571 107.713 136.571C106.78 136.571 105.847 136.305 105.332 135.867C104.78 135.429 104.494 134.762 104.494 134.114C104.494 133.486 104.685 132.895 105.085 132.4C105.447 131.924 106.323 131.676 107.713 131.676C108.475 131.676 109.028 131.543 109.313 131.314C109.599 131.105 109.809 130.743 109.809 130.381C109.809 130 109.599 129.695 109.313 129.39C109.009 129.124 108.437 128.99 107.713 128.99C107.332 128.99 106.837 129.029 106.494 129.2C106.171 129.333 105.847 129.638 105.713 130L104.532 129.619ZM114.029 124.838C114.372 124.838 114.562 125.105 114.562 125.39C114.562 125.752 114.372 125.943 114.029 125.943C113.667 125.943 113.496 125.752 113.496 125.39C113.496 125.105 113.667 124.838 114.029 124.838ZM113.496 136.571V127.867H114.562V136.571H113.496ZM117.988 136.571V123.333H119.054V136.571H117.988ZM125.87 132.324C125.87 133.295 126.099 134.057 126.48 134.61C126.88 135.162 127.375 135.467 127.889 135.467C128.328 135.467 128.804 135.238 129.28 134.838C129.813 134.4 130.232 133.79 130.613 132.876V132.895C130.918 132.038 131.089 131.124 131.089 130.19C131.089 129.2 130.88 128.438 130.48 127.924C130.061 127.333 129.585 127.067 128.975 127.067C128.518 127.067 128.023 127.276 127.585 127.657C127.147 128.038 126.728 128.705 126.385 129.6C126.042 130.514 125.87 131.448 125.87 132.324ZM129.928 134.952C129.185 136 128.308 136.514 127.585 136.514C126.861 136.514 126.232 136.21 125.718 135.505C125.128 134.648 124.766 133.543 124.766 132.19C124.766 131.105 125.013 130.038 125.451 128.952C125.928 127.981 126.48 127.181 127.089 126.686C127.737 126.267 128.328 125.981 128.861 125.981C129.68 125.981 130.708 126.781 131.432 128.324C131.528 127.848 131.737 126.857 131.775 126.305H132.861L131.737 132.8C131.547 133.752 131.47 134.286 131.47 134.4C131.47 134.933 131.832 135.295 132.251 135.295C132.613 135.295 133.108 135.01 133.642 134.495C134.194 134 134.747 133.295 135.07 132.4H135.051C135.451 131.486 135.642 130.476 135.642 129.429C135.642 128.248 135.356 127.105 134.842 126.114C134.289 125.143 133.528 124.343 132.613 123.79C131.737 123.238 130.632 122.933 129.547 122.933C126.937 122.933 124.747 124.343 123.375 127.124C122.785 128.514 122.404 130.076 122.404 131.867C122.404 136.895 125.242 139.733 129.813 139.733C131.147 139.733 132.308 139.486 133.375 138.914C134.347 138.381 135.166 137.6 135.68 136.724H136.766C136.423 137.429 135.928 138.076 135.299 138.705C134.575 139.39 133.737 139.943 132.861 140.324C131.947 140.648 130.937 140.857 129.813 140.857C126.423 140.857 124.042 139.39 122.67 136.781C121.985 135.505 121.604 133.867 121.604 132C121.604 129.981 121.985 128.19 122.766 126.571C123.47 124.971 124.461 123.752 125.604 123.029C126.747 122.286 128.175 121.886 129.623 121.886C132.175 121.886 134.289 123.162 135.528 125.524C136.118 126.724 136.461 128.038 136.461 129.486C136.461 131.486 135.889 133.2 134.747 134.705C133.794 135.943 132.785 136.533 131.699 136.533C130.747 136.533 130.366 136.095 130.308 135.048L129.928 134.952ZM139.54 139.848C141.788 139.848 143.597 139.505 143.597 137.714V135.467C142.931 136.21 142.15 136.571 141.121 136.571C140.055 136.571 139.235 136.21 138.531 135.505C137.864 134.838 137.502 133.714 137.502 132.229C137.502 130.781 137.845 129.676 138.531 128.952C139.216 128.267 140.055 127.867 141.121 127.867C142.15 127.867 142.931 128.248 143.597 129.01V127.867H144.702V137.657C144.702 140.629 141.807 140.952 139.54 140.857V139.848ZM141.121 128.99C140.359 128.99 139.693 129.257 139.293 129.733C138.912 130.19 138.645 131.143 138.645 132.229C138.645 133.352 138.912 134.229 139.293 134.705C139.693 135.238 140.34 135.448 141.121 135.448C141.845 135.448 142.512 135.238 142.931 134.705C143.369 134.21 143.597 133.352 143.597 132.229C143.597 131.143 143.369 130.21 142.931 129.733C142.512 129.276 141.845 128.99 141.121 128.99ZM146.874 136.571V127.867H147.979V128.99C148.664 128.248 149.502 127.867 150.474 127.867C151.807 127.867 152.798 128.552 153.502 129.562C154.207 128.552 155.159 127.867 156.531 127.867C157.598 127.867 158.474 128.286 159.121 128.952C159.788 129.657 160.112 130.781 160.112 132.229V136.571H159.026V132.229C159.026 131.067 158.798 130.19 158.398 129.733C157.921 129.257 157.312 128.99 156.531 128.99C155.788 128.99 155.198 129.295 154.74 129.733C154.264 130.229 154.074 131.067 154.074 132.229V136.571H152.969V132.229C152.969 131.124 152.721 130.21 152.283 129.733C151.883 129.276 151.236 128.99 150.474 128.99C149.674 128.99 149.102 129.257 148.664 129.733C148.207 130.229 147.979 131.048 147.979 132.229V136.571H146.874ZM167.152 132.171C166.657 132.59 165.952 132.781 165.095 132.781C164.371 132.781 163.838 132.876 163.514 133.086C163.152 133.333 162.962 133.657 162.962 134.114C162.962 135.067 163.629 135.448 165.057 135.448C165.552 135.448 166.048 135.39 166.429 135.238C166.886 135.067 167.152 134.686 167.152 134.114V132.171ZM161.876 129.619C162.238 129.048 162.638 128.61 163.057 128.362C163.648 128.038 164.257 127.867 165.057 127.867C166.295 127.867 167.171 128.171 167.59 128.743C167.99 129.314 168.257 130.076 168.257 130.819V136.571H167.152V136.21C166.6 136.457 165.895 136.571 165.057 136.571C164.124 136.571 163.19 136.305 162.676 135.867C162.124 135.429 161.838 134.762 161.838 134.114C161.838 133.486 162.029 132.895 162.429 132.4C162.79 131.924 163.667 131.676 165.057 131.676C165.819 131.676 166.371 131.543 166.657 131.314C166.943 131.105 167.152 130.743 167.152 130.381C167.152 130 166.943 129.695 166.657 129.39C166.352 129.124 165.781 128.99 165.057 128.99C164.676 128.99 164.181 129.029 163.838 129.2C163.514 129.333 163.19 129.638 163.057 130L161.876 129.619ZM171.373 124.838C171.715 124.838 171.906 125.105 171.906 125.39C171.906 125.752 171.715 125.943 171.373 125.943C171.011 125.943 170.839 125.752 170.839 125.39C170.839 125.105 171.011 124.838 171.373 124.838ZM170.839 136.571V127.867H171.906V136.571H170.839ZM175.331 136.571V123.333H176.398V136.571H175.331ZM179.786 135.6C179.786 135.105 180.205 134.705 180.7 134.705C181.214 134.705 181.614 135.086 181.614 135.6C181.614 136.133 181.176 136.533 180.7 136.533C180.224 136.533 179.786 136.114 179.786 135.6ZM189.78 129.867C189.304 129.314 188.599 128.99 187.723 128.99C186.942 128.99 186.314 129.257 185.895 129.733C185.457 130.229 185.247 131.048 185.247 132.229C185.247 133.371 185.514 134.229 185.895 134.705C186.314 135.219 186.942 135.448 187.723 135.448C188.638 135.448 189.304 135.105 189.78 134.438L190.866 134.8C190.085 135.943 189.018 136.571 187.723 136.571C186.695 136.571 185.838 136.21 185.133 135.486C184.466 134.781 184.123 133.714 184.123 132.229C184.123 130.781 184.428 129.657 185.114 128.952C185.78 128.286 186.657 127.867 187.723 127.867C188.999 127.867 190.085 128.476 190.866 129.676L189.78 129.867ZM196.141 128.99C195.379 128.99 194.712 129.257 194.312 129.733C193.931 130.19 193.665 131.143 193.665 132.229C193.665 133.352 193.931 134.229 194.312 134.705C194.712 135.238 195.36 135.448 196.141 135.448C196.865 135.448 197.531 135.238 197.95 134.705C198.388 134.21 198.617 133.352 198.617 132.229C198.617 131.143 198.388 130.21 197.95 129.733C197.531 129.276 196.865 128.99 196.141 128.99ZM192.522 132.229C192.522 130.781 192.865 129.676 193.55 128.952C194.236 128.267 195.074 127.867 196.141 127.867C197.169 127.867 198.045 128.248 198.75 128.952C199.417 129.619 199.722 130.781 199.722 132.229C199.722 133.714 199.398 134.8 198.75 135.486C198.045 136.21 197.169 136.571 196.141 136.571C195.074 136.571 194.255 136.21 193.55 135.505C192.884 134.838 192.522 133.714 192.522 132.229ZM201.561 136.571V127.867H202.666V128.99C203.352 128.248 204.19 127.867 205.161 127.867C206.495 127.867 207.485 128.552 208.19 129.562C208.895 128.552 209.847 127.867 211.218 127.867C212.285 127.867 213.161 128.286 213.809 128.952C214.476 129.657 214.799 130.781 214.799 132.229V136.571H213.714V132.229C213.714 131.067 213.485 130.19 213.085 129.733C212.609 129.257 211.999 128.99 211.218 128.99C210.476 128.99 209.885 129.295 209.428 129.733C208.952 130.229 208.761 131.067 208.761 132.229V136.571H207.657V132.229C207.657 131.124 207.409 130.21 206.971 129.733C206.571 129.276 205.923 128.99 205.161 128.99C204.361 128.99 203.79 129.257 203.352 129.733C202.895 130.229 202.666 131.048 202.666 132.229V136.571H201.561Z" fill="black"/>
<path d="M12.4514 26.4286C9.70857 26.4286 7.34286 25.1943 5.76571 23.1714C4.12 21.0114 3.26286 18.0286 3.26286 14.5314C3.26286 11.2057 4.12 8.36 5.76571 6.06286C7.41143 3.76572 9.57143 2.6 12.1771 2.6C14.3714 2.6 16.0857 3.11429 17.3543 3.97143C18.5886 4.82857 19.48 5.78857 20.1314 7.09143L18.4171 7.98286C17.08 5.68571 15.16 4.55429 12.4514 4.55429C10.2571 4.55429 8.44 5.68571 7.20571 7.64C5.93714 9.66286 5.32 11.9257 5.32 14.5314C5.32 16.9657 5.97143 19.4 7.20571 21.3543C8.44 23.3429 10.2571 24.4057 12.4514 24.4057C13.9943 24.4057 15.1943 24.2343 16.1886 23.7543C17.08 23.3429 17.8 22.5886 18.4857 21.32L20.0971 22.0057C19.4114 23.3771 18.5543 24.5086 17.5257 25.2629C16.4286 26.0514 14.7143 26.4286 12.4514 26.4286ZM30.4682 12.7829C29.0967 12.7829 27.8967 13.2629 27.1767 14.12C26.491 14.9429 26.011 16.6571 26.011 18.6114C26.011 20.6343 26.491 22.2114 27.1767 23.0686C27.8967 24.0286 29.0625 24.4057 30.4682 24.4057C31.771 24.4057 32.971 24.0286 33.7253 23.0686C34.5139 22.1771 34.9253 20.6343 34.9253 18.6114C34.9253 16.6571 34.5139 14.9771 33.7253 14.12C32.971 13.2971 31.771 12.7829 30.4682 12.7829ZM23.9539 18.6114C23.9539 16.0057 24.571 14.0171 25.8053 12.7143C27.0396 11.48 28.5482 10.76 30.4682 10.76C32.3196 10.76 33.8967 11.4457 35.1653 12.7143C36.3653 13.9143 36.9139 16.0057 36.9139 18.6114C36.9139 21.2857 36.331 23.24 35.1653 24.4743C33.8967 25.7771 32.3196 26.4286 30.4682 26.4286C28.5482 26.4286 27.0739 25.7771 25.8053 24.5086C24.6053 23.3086 23.9539 21.2857 23.9539 18.6114ZM40.2251 26.4286V10.76H42.248V12.7829C43.448 11.4457 44.9566 10.76 46.7051 10.76C48.5566 10.76 50.2023 11.5143 51.368 12.7143C52.5337 13.9486 53.2194 16.0057 53.2194 18.6114V26.4286H51.1966V18.6114C51.1966 16.6571 50.7508 14.9771 49.9623 14.12C49.2423 13.3657 48.008 12.7829 46.7051 12.7829C45.2994 12.7829 44.168 13.2629 43.448 14.12C42.728 14.9429 42.248 16.6571 42.248 18.6114V26.4286H40.2251ZM61.0282 5.30857V10.76H65.1425V12.7829H61.0282V21.32C61.0282 22.4514 61.1996 23.3086 61.5768 23.7543C61.9882 24.2 62.6053 24.4057 63.3253 24.4057C64.011 24.4057 64.6282 24.3371 65.1425 24.2V26.0171C64.6625 26.3257 64.0453 26.4286 63.3253 26.4286C62.091 26.4286 60.9596 26.12 60.171 25.2971C59.3482 24.4743 59.1082 23.1714 59.1082 21.32V12.7829H56.2625V10.76H59.1082V5.30857H61.0282ZM77.7813 18.5086C76.8899 19.2629 75.6213 19.6057 74.0785 19.6057C72.7756 19.6057 71.8156 19.7771 71.2327 20.1543C70.5813 20.6 70.2385 21.1829 70.2385 22.0057C70.2385 23.72 71.4385 24.4057 74.0099 24.4057C74.9013 24.4057 75.7927 24.3029 76.4785 24.0286C77.3013 23.72 77.7813 23.0343 77.7813 22.0057V18.5086ZM68.2842 13.9143C68.9356 12.8857 69.6556 12.0971 70.4099 11.6514C71.4727 11.0686 72.5699 10.76 74.0099 10.76C76.2385 10.76 77.8156 11.3086 78.5699 12.3371C79.2899 13.3657 79.7699 14.7371 79.7699 16.0743V26.4286H77.7813V25.7771C76.787 26.2229 75.5185 26.4286 74.0099 26.4286C72.3299 26.4286 70.6499 25.9486 69.7242 25.16C68.7299 24.3714 68.2156 23.1714 68.2156 22.0057C68.2156 20.8743 68.5585 19.8114 69.2785 18.92C69.9299 18.0629 71.507 17.6171 74.0099 17.6171C75.3813 17.6171 76.3756 17.3771 76.8899 16.9657C77.4042 16.5886 77.7813 15.9371 77.7813 15.2857C77.7813 14.6 77.4042 14.0514 76.8899 13.5029C76.3413 13.0229 75.3127 12.7829 74.0099 12.7829C73.3242 12.7829 72.4327 12.8514 71.8156 13.16C71.2327 13.4 70.6499 13.9486 70.4099 14.6L68.2842 13.9143ZM93.0235 14.36C92.1663 13.3657 90.8977 12.7829 89.3206 12.7829C87.9149 12.7829 86.7835 13.2629 86.0292 14.12C85.2406 15.0114 84.8635 16.4857 84.8635 18.6114C84.8635 20.6686 85.3435 22.2114 86.0292 23.0686C86.7835 23.9943 87.9149 24.4057 89.3206 24.4057C90.9663 24.4057 92.1663 23.7886 93.0235 22.5886L94.9777 23.24C93.572 25.2971 91.652 26.4286 89.3206 26.4286C87.4692 26.4286 85.9263 25.7771 84.6577 24.4743C83.4577 23.2057 82.8406 21.2857 82.8406 18.6114C82.8406 16.0057 83.3892 13.9829 84.6235 12.7143C85.8235 11.5143 87.4006 10.76 89.3206 10.76C91.6177 10.76 93.572 11.8571 94.9777 14.0171L93.0235 14.36ZM102.724 5.30857V10.76H106.838V12.7829H102.724V21.32C102.724 22.4514 102.895 23.3086 103.272 23.7543C103.684 24.2 104.301 24.4057 105.021 24.4057C105.706 24.4057 106.324 24.3371 106.838 24.2V26.0171C106.358 26.3257 105.741 26.4286 105.021 26.4286C103.786 26.4286 102.655 26.12 101.866 25.2971C101.044 24.4743 100.804 23.1714 100.804 21.32V12.7829H97.9578V10.76H100.804V5.30857H102.724ZM119.479 5.30857C120.096 5.30857 120.439 5.78857 120.439 6.30286C120.439 6.95429 120.096 7.29714 119.479 7.29714C118.828 7.29714 118.519 6.95429 118.519 6.30286C118.519 5.78857 118.828 5.30857 119.479 5.30857ZM118.519 26.4286V10.76H120.439V26.4286H118.519ZM125.268 26.4286V10.76H127.291V12.7829C128.491 11.4457 130 10.76 131.748 10.76C133.6 10.76 135.245 11.5143 136.411 12.7143C137.577 13.9486 138.262 16.0057 138.262 18.6114V26.4286H136.24V18.6114C136.24 16.6571 135.794 14.9771 135.005 14.12C134.285 13.3657 133.051 12.7829 131.748 12.7829C130.342 12.7829 129.211 13.2629 128.491 14.12C127.771 14.9429 127.291 16.6571 127.291 18.6114V26.4286H125.268ZM144.151 26.4286V12.7829H141.305V10.76H144.151V7.67429C144.151 5.99429 144.494 4.52 145.214 3.76572C145.934 2.94286 147.134 2.6 148.368 2.6C149.123 2.6 149.705 2.73714 150.185 2.97714V4.86286C149.671 4.69143 148.985 4.55429 148.368 4.55429C146.825 4.55429 146.071 5.37714 146.071 7.67429V10.76H148.78V12.7829H146.071V26.4286H144.151ZM159.773 12.7829C158.401 12.7829 157.201 13.2629 156.481 14.12C155.796 14.9429 155.316 16.6571 155.316 18.6114C155.316 20.6343 155.796 22.2114 156.481 23.0686C157.201 24.0286 158.367 24.4057 159.773 24.4057C161.076 24.4057 162.276 24.0286 163.03 23.0686C163.819 22.1771 164.23 20.6343 164.23 18.6114C164.23 16.6571 163.819 14.9771 163.03 14.12C162.276 13.2971 161.076 12.7829 159.773 12.7829ZM153.259 18.6114C153.259 16.0057 153.876 14.0171 155.11 12.7143C156.344 11.48 157.853 10.76 159.773 10.76C161.624 10.76 163.201 11.4457 164.47 12.7143C165.67 13.9143 166.219 16.0057 166.219 18.6114C166.219 21.2857 165.636 23.24 164.47 24.4743C163.201 25.7771 161.624 26.4286 159.773 26.4286C157.853 26.4286 156.379 25.7771 155.11 24.5086C153.91 23.3086 153.259 21.2857 153.259 18.6114ZM169.53 26.4286V10.76H171.518V12.7829C172.753 11.3771 174.193 10.76 175.976 10.76C177.998 10.76 179.473 11.3429 180.604 12.6114L179.473 14.12C178.547 13.2629 177.416 12.7829 175.976 12.7829C174.57 12.7829 173.507 13.2629 172.718 14.12C171.896 15.0114 171.518 16.52 171.518 18.6114V26.4286H169.53ZM183.874 26.4286V10.76H185.862V12.7829C187.096 11.4457 188.605 10.76 190.354 10.76C192.754 10.76 194.536 11.9943 195.805 13.8114C197.074 11.9943 198.788 10.76 201.256 10.76C203.176 10.76 204.754 11.5143 205.919 12.7143C207.119 13.9829 207.702 16.0057 207.702 18.6114V26.4286H205.748V18.6114C205.748 16.52 205.336 14.9429 204.616 14.12C203.759 13.2629 202.662 12.7829 201.256 12.7829C199.919 12.7829 198.856 13.3314 198.034 14.12C197.176 15.0114 196.834 16.52 196.834 18.6114V26.4286H194.845V18.6114C194.845 16.6229 194.399 14.9771 193.611 14.12C192.891 13.2971 191.725 12.7829 190.354 12.7829C188.914 12.7829 187.885 13.2629 187.096 14.12C186.274 15.0114 185.862 16.4857 185.862 18.6114V26.4286H183.874ZM220.375 18.5086C219.484 19.2629 218.215 19.6057 216.672 19.6057C215.369 19.6057 214.409 19.7771 213.826 20.1543C213.175 20.6 212.832 21.1829 212.832 22.0057C212.832 23.72 214.032 24.4057 216.604 24.4057C217.495 24.4057 218.386 24.3029 219.072 24.0286C219.895 23.72 220.375 23.0343 220.375 22.0057V18.5086ZM210.878 13.9143C211.529 12.8857 212.249 12.0971 213.004 11.6514C214.066 11.0686 215.164 10.76 216.604 10.76C218.832 10.76 220.409 11.3086 221.164 12.3371C221.884 13.3657 222.364 14.7371 222.364 16.0743V26.4286H220.375V25.7771C219.381 26.2229 218.112 26.4286 216.604 26.4286C214.924 26.4286 213.244 25.9486 212.318 25.16C211.324 24.3714 210.809 23.1714 210.809 22.0057C210.809 20.8743 211.152 19.8114 211.872 18.92C212.524 18.0629 214.101 17.6171 216.604 17.6171C217.975 17.6171 218.969 17.3771 219.484 16.9657C219.998 16.5886 220.375 15.9371 220.375 15.2857C220.375 14.6 219.998 14.0514 219.484 13.5029C218.935 13.0229 217.906 12.7829 216.604 12.7829C215.918 12.7829 215.026 12.8514 214.409 13.16C213.826 13.4 213.244 13.9486 213.004 14.6L210.878 13.9143ZM230.2 5.30857V10.76H234.314V12.7829H230.2V21.32C230.2 22.4514 230.371 23.3086 230.749 23.7543C231.16 24.2 231.777 24.4057 232.497 24.4057C233.183 24.4057 233.8 24.3371 234.314 24.2V26.0171C233.834 26.3257 233.217 26.4286 232.497 26.4286C231.263 26.4286 230.131 26.12 229.343 25.2971C228.52 24.4743 228.28 23.1714 228.28 21.32V12.7829H225.434V10.76H228.28V5.30857H230.2ZM239.925 5.30857C240.542 5.30857 240.885 5.78857 240.885 6.30286C240.885 6.95429 240.542 7.29714 239.925 7.29714C239.273 7.29714 238.965 6.95429 238.965 6.30286C238.965 5.78857 239.273 5.30857 239.925 5.30857ZM238.965 26.4286V10.76H240.885V26.4286H238.965ZM251.988 12.7829C250.616 12.7829 249.416 13.2629 248.696 14.12C248.011 14.9429 247.531 16.6571 247.531 18.6114C247.531 20.6343 248.011 22.2114 248.696 23.0686C249.416 24.0286 250.582 24.4057 251.988 24.4057C253.291 24.4057 254.491 24.0286 255.245 23.0686C256.033 22.1771 256.445 20.6343 256.445 18.6114C256.445 16.6571 256.033 14.9771 255.245 14.12C254.491 13.2971 253.291 12.7829 251.988 12.7829ZM245.473 18.6114C245.473 16.0057 246.091 14.0171 247.325 12.7143C248.559 11.48 250.068 10.76 251.988 10.76C253.839 10.76 255.416 11.4457 256.685 12.7143C257.885 13.9143 258.433 16.0057 258.433 18.6114C258.433 21.2857 257.851 23.24 256.685 24.4743C255.416 25.7771 253.839 26.4286 251.988 26.4286C250.068 26.4286 248.593 25.7771 247.325 24.5086C246.125 23.3086 245.473 21.2857 245.473 18.6114ZM261.745 26.4286V10.76H263.768V12.7829C264.968 11.4457 266.476 10.76 268.225 10.76C270.076 10.76 271.722 11.5143 272.888 12.7143C274.053 13.9486 274.739 16.0057 274.739 18.6114V26.4286H272.716V18.6114C272.716 16.6571 272.27 14.9771 271.482 14.12C270.762 13.3657 269.528 12.7829 268.225 12.7829C266.819 12.7829 265.688 13.2629 264.968 14.12C264.248 14.9429 263.768 16.6571 263.768 18.6114V26.4286H261.745Z" fill="#19126B"/>
</svg>
