<svg width="755" height="21" viewBox="0 0 755 21" fill="none" xmlns="http://www.w3.org/2000/svg">
<path d="M4.40341 16L0.426136 1.45455H2.21591L5.25568 13.3011H5.39773L8.49432 1.45455H10.483L13.5795 13.3011H13.7216L16.7614 1.45455H18.5511L14.5739 16H12.7557L9.54545 4.40909H9.43182L6.22159 16H4.40341ZM24.0767 16.2273C23.0256 16.2273 22.1188 15.9953 21.3565 15.5312C20.599 15.0625 20.0142 14.4091 19.6023 13.571C19.1951 12.7282 18.9915 11.7481 18.9915 10.6307C18.9915 9.51326 19.1951 8.52841 19.6023 7.67614C20.0142 6.81913 20.5871 6.15152 21.321 5.6733C22.0597 5.19034 22.9214 4.94886 23.9062 4.94886C24.4744 4.94886 25.0355 5.04356 25.5895 5.23295C26.1435 5.42235 26.6477 5.73011 27.1023 6.15625C27.5568 6.57765 27.919 7.13636 28.1889 7.83239C28.4588 8.52841 28.5938 9.38542 28.5938 10.4034V11.1136H20.1847V9.66477H26.8892C26.8892 9.04924 26.7661 8.5 26.5199 8.01705C26.2784 7.53409 25.9328 7.15294 25.483 6.87358C25.0379 6.59422 24.5123 6.45455 23.9062 6.45455C23.2386 6.45455 22.661 6.62026 22.1733 6.9517C21.6903 7.27841 21.3187 7.70455 21.0582 8.23011C20.7978 8.75568 20.6676 9.31913 20.6676 9.92045V10.8864C20.6676 11.7102 20.8097 12.4086 21.0938 12.9815C21.3826 13.5497 21.7827 13.983 22.294 14.2812C22.8054 14.5748 23.3996 14.7216 24.0767 14.7216C24.517 14.7216 24.9148 14.66 25.2699 14.5369C25.6297 14.4091 25.9399 14.2197 26.2003 13.9688C26.4607 13.7131 26.6619 13.3958 26.804 13.017L28.4233 13.4716C28.2528 14.0208 27.9664 14.5038 27.5639 14.9205C27.1615 15.3324 26.6643 15.6544 26.0724 15.8864C25.4806 16.1136 24.8153 16.2273 24.0767 16.2273ZM32.5923 1.45455V6.45455H31.0298V1.45455H32.5923ZM35.5771 16V5.09091H37.1964V6.73864H37.31C37.5089 6.19886 37.8687 5.76089 38.3896 5.42472C38.9104 5.08854 39.4975 4.92045 40.1509 4.92045C40.274 4.92045 40.4279 4.92282 40.6126 4.92756C40.7972 4.93229 40.9369 4.93939 41.0316 4.94886V6.65341C40.9748 6.6392 40.8446 6.6179 40.641 6.58949C40.4421 6.55634 40.2314 6.53977 40.0089 6.53977C39.4786 6.53977 39.0051 6.65104 38.5884 6.87358C38.1765 7.09138 37.8498 7.39441 37.6083 7.78267C37.3716 8.16619 37.2532 8.60417 37.2532 9.09659V16H35.5771ZM47.2603 16.2273C46.2092 16.2273 45.3024 15.9953 44.5401 15.5312C43.7826 15.0625 43.1978 14.4091 42.7859 13.571C42.3787 12.7282 42.1751 11.7481 42.1751 10.6307C42.1751 9.51326 42.3787 8.52841 42.7859 7.67614C43.1978 6.81913 43.7707 6.15152 44.5046 5.6733C45.2433 5.19034 46.105 4.94886 47.0898 4.94886C47.658 4.94886 48.2191 5.04356 48.7731 5.23295C49.3271 5.42235 49.8313 5.73011 50.2859 6.15625C50.7404 6.57765 51.1026 7.13636 51.3725 7.83239C51.6424 8.52841 51.7773 9.38542 51.7773 10.4034V11.1136H43.3683V9.66477H50.0728C50.0728 9.04924 49.9497 8.5 49.7035 8.01705C49.462 7.53409 49.1164 7.15294 48.6665 6.87358C48.2215 6.59422 47.6959 6.45455 47.0898 6.45455C46.4222 6.45455 45.8446 6.62026 45.3569 6.9517C44.8739 7.27841 44.5022 7.70455 44.2418 8.23011C43.9814 8.75568 43.8512 9.31913 43.8512 9.92045V10.8864C43.8512 11.7102 43.9933 12.4086 44.2773 12.9815C44.5662 13.5497 44.9663 13.983 45.4776 14.2812C45.989 14.5748 46.5832 14.7216 47.2603 14.7216C47.7006 14.7216 48.0984 14.66 48.4535 14.5369C48.8133 14.4091 49.1235 14.2197 49.3839 13.9688C49.6443 13.7131 49.8455 13.3958 49.9876 13.017L51.6069 13.4716C51.4364 14.0208 51.15 14.5038 50.7475 14.9205C50.3451 15.3324 49.8479 15.6544 49.256 15.8864C48.6642 16.1136 47.9989 16.2273 47.2603 16.2273ZM61.6282 9.4375V16H59.9521V1.45455H61.6282V6.79545H61.7702C62.0259 6.23201 62.4094 5.78456 62.9208 5.45312C63.4369 5.11695 64.1235 4.94886 64.9805 4.94886C65.7238 4.94886 66.3749 5.09801 66.9336 5.39631C67.4923 5.68987 67.9255 6.14205 68.2333 6.75284C68.5458 7.3589 68.7021 8.13068 68.7021 9.06818V16H67.0259V9.18182C67.0259 8.31534 66.801 7.64536 66.3512 7.17188C65.9061 6.69366 65.2882 6.45455 64.4975 6.45455C63.9483 6.45455 63.4558 6.57055 63.0202 6.80256C62.5894 7.03456 62.2485 7.37311 61.9975 7.81818C61.7513 8.26326 61.6282 8.80303 61.6282 9.4375ZM76.3423 16.2273C75.2912 16.2273 74.3845 15.9953 73.6222 15.5312C72.8646 15.0625 72.2798 14.4091 71.8679 13.571C71.4607 12.7282 71.2571 11.7481 71.2571 10.6307C71.2571 9.51326 71.4607 8.52841 71.8679 7.67614C72.2798 6.81913 72.8527 6.15152 73.5866 5.6733C74.3253 5.19034 75.187 4.94886 76.1719 4.94886C76.7401 4.94886 77.3011 5.04356 77.8551 5.23295C78.4091 5.42235 78.9134 5.73011 79.3679 6.15625C79.8224 6.57765 80.1847 7.13636 80.4545 7.83239C80.7244 8.52841 80.8594 9.38542 80.8594 10.4034V11.1136H72.4503V9.66477H79.1548C79.1548 9.04924 79.0317 8.5 78.7855 8.01705C78.544 7.53409 78.1984 7.15294 77.7486 6.87358C77.3035 6.59422 76.7779 6.45455 76.1719 6.45455C75.5043 6.45455 74.9266 6.62026 74.4389 6.9517C73.956 7.27841 73.5843 7.70455 73.3239 8.23011C73.0634 8.75568 72.9332 9.31913 72.9332 9.92045V10.8864C72.9332 11.7102 73.0753 12.4086 73.3594 12.9815C73.6482 13.5497 74.0483 13.983 74.5597 14.2812C75.071 14.5748 75.6652 14.7216 76.3423 14.7216C76.7827 14.7216 77.1804 14.66 77.5355 14.5369C77.8954 14.4091 78.2055 14.2197 78.4659 13.9688C78.7263 13.7131 78.9276 13.3958 79.0696 13.017L80.6889 13.4716C80.5185 14.0208 80.232 14.5038 79.8295 14.9205C79.4271 15.3324 78.9299 15.6544 78.3381 15.8864C77.7462 16.1136 77.081 16.2273 76.3423 16.2273ZM83.4091 16V5.09091H85.0284V6.73864H85.142C85.3409 6.19886 85.7008 5.76089 86.2216 5.42472C86.7424 5.08854 87.3295 4.92045 87.983 4.92045C88.1061 4.92045 88.2599 4.92282 88.4446 4.92756C88.6293 4.93229 88.7689 4.93939 88.8636 4.94886V6.65341C88.8068 6.6392 88.6766 6.6179 88.473 6.58949C88.2741 6.55634 88.0634 6.53977 87.8409 6.53977C87.3106 6.53977 86.8371 6.65104 86.4205 6.87358C86.0085 7.09138 85.6818 7.39441 85.4403 7.78267C85.2036 8.16619 85.0852 8.60417 85.0852 9.09659V16H83.4091ZM95.0923 16.2273C94.0412 16.2273 93.1345 15.9953 92.3722 15.5312C91.6146 15.0625 91.0298 14.4091 90.6179 13.571C90.2107 12.7282 90.0071 11.7481 90.0071 10.6307C90.0071 9.51326 90.2107 8.52841 90.6179 7.67614C91.0298 6.81913 91.6027 6.15152 92.3366 5.6733C93.0753 5.19034 93.937 4.94886 94.9219 4.94886C95.4901 4.94886 96.0511 5.04356 96.6051 5.23295C97.1591 5.42235 97.6634 5.73011 98.1179 6.15625C98.5724 6.57765 98.9347 7.13636 99.2045 7.83239C99.4744 8.52841 99.6094 9.38542 99.6094 10.4034V11.1136H91.2003V9.66477H97.9048C97.9048 9.04924 97.7817 8.5 97.5355 8.01705C97.294 7.53409 96.9484 7.15294 96.4986 6.87358C96.0535 6.59422 95.5279 6.45455 94.9219 6.45455C94.2543 6.45455 93.6766 6.62026 93.1889 6.9517C92.706 7.27841 92.3343 7.70455 92.0739 8.23011C91.8134 8.75568 91.6832 9.31913 91.6832 9.92045V10.8864C91.6832 11.7102 91.8253 12.4086 92.1094 12.9815C92.3982 13.5497 92.7983 13.983 93.3097 14.2812C93.821 14.5748 94.4152 14.7216 95.0923 14.7216C95.5327 14.7216 95.9304 14.66 96.2855 14.5369C96.6454 14.4091 96.9555 14.2197 97.2159 13.9688C97.4763 13.7131 97.6776 13.3958 97.8196 13.017L99.4389 13.4716C99.2685 14.0208 98.982 14.5038 98.5795 14.9205C98.1771 15.3324 97.6799 15.6544 97.0881 15.8864C96.4962 16.1136 95.831 16.2273 95.0923 16.2273ZM112.528 5.09091V6.51136H106.875V5.09091H112.528ZM108.523 2.47727H110.199V12.875C110.199 13.3485 110.268 13.7036 110.405 13.9403C110.547 14.1723 110.727 14.3286 110.945 14.4091C111.167 14.4848 111.402 14.5227 111.648 14.5227C111.832 14.5227 111.984 14.5133 112.102 14.4943C112.221 14.4706 112.315 14.4517 112.386 14.4375L112.727 15.9432C112.614 15.9858 112.455 16.0284 112.251 16.071C112.048 16.1184 111.79 16.142 111.477 16.142C111.004 16.142 110.54 16.0402 110.085 15.8366C109.635 15.633 109.261 15.3229 108.963 14.9062C108.67 14.4896 108.523 13.964 108.523 13.3295V2.47727ZM119.364 16.2273C118.379 16.2273 117.515 15.9929 116.772 15.5241C116.033 15.0554 115.456 14.3996 115.039 13.5568C114.627 12.714 114.421 11.7292 114.421 10.6023C114.421 9.46591 114.627 8.47396 115.039 7.62642C115.456 6.77888 116.033 6.12074 116.772 5.65199C117.515 5.18324 118.379 4.94886 119.364 4.94886C120.349 4.94886 121.211 5.18324 121.95 5.65199C122.693 6.12074 123.271 6.77888 123.683 7.62642C124.099 8.47396 124.308 9.46591 124.308 10.6023C124.308 11.7292 124.099 12.714 123.683 13.5568C123.271 14.3996 122.693 15.0554 121.95 15.5241C121.211 15.9929 120.349 16.2273 119.364 16.2273ZM119.364 14.7216C120.112 14.7216 120.728 14.5298 121.211 14.1463C121.694 13.7628 122.051 13.2585 122.283 12.6335C122.515 12.0085 122.631 11.3314 122.631 10.6023C122.631 9.87311 122.515 9.19366 122.283 8.56392C122.051 7.93419 121.694 7.42519 121.211 7.03693C120.728 6.64867 120.112 6.45455 119.364 6.45455C118.616 6.45455 118.001 6.64867 117.518 7.03693C117.035 7.42519 116.677 7.93419 116.445 8.56392C116.213 9.19366 116.097 9.87311 116.097 10.6023C116.097 11.3314 116.213 12.0085 116.445 12.6335C116.677 13.2585 117.035 13.7628 117.518 14.1463C118.001 14.5298 118.616 14.7216 119.364 14.7216ZM134.167 9.4375V16H132.491V1.45455H134.167V6.79545H134.309C134.565 6.23201 134.949 5.78456 135.46 5.45312C135.976 5.11695 136.663 4.94886 137.52 4.94886C138.263 4.94886 138.914 5.09801 139.473 5.39631C140.031 5.68987 140.465 6.14205 140.772 6.75284C141.085 7.3589 141.241 8.13068 141.241 9.06818V16H139.565V9.18182C139.565 8.31534 139.34 7.64536 138.89 7.17188C138.445 6.69366 137.827 6.45455 137.037 6.45455C136.487 6.45455 135.995 6.57055 135.559 6.80256C135.128 7.03456 134.788 7.37311 134.537 7.81818C134.29 8.26326 134.167 8.80303 134.167 9.4375ZM148.881 16.2273C147.83 16.2273 146.924 15.9953 146.161 15.5312C145.404 15.0625 144.819 14.4091 144.407 13.571C144 12.7282 143.796 11.7481 143.796 10.6307C143.796 9.51326 144 8.52841 144.407 7.67614C144.819 6.81913 145.392 6.15152 146.126 5.6733C146.864 5.19034 147.726 4.94886 148.711 4.94886C149.279 4.94886 149.84 5.04356 150.394 5.23295C150.948 5.42235 151.452 5.73011 151.907 6.15625C152.362 6.57765 152.724 7.13636 152.994 7.83239C153.263 8.52841 153.398 9.38542 153.398 10.4034V11.1136H144.989V9.66477H151.694C151.694 9.04924 151.571 8.5 151.325 8.01705C151.083 7.53409 150.737 7.15294 150.288 6.87358C149.843 6.59422 149.317 6.45455 148.711 6.45455C148.043 6.45455 147.466 6.62026 146.978 6.9517C146.495 7.27841 146.123 7.70455 145.863 8.23011C145.603 8.75568 145.472 9.31913 145.472 9.92045V10.8864C145.472 11.7102 145.614 12.4086 145.898 12.9815C146.187 13.5497 146.587 13.983 147.099 14.2812C147.61 14.5748 148.204 14.7216 148.881 14.7216C149.322 14.7216 149.719 14.66 150.075 14.5369C150.434 14.4091 150.745 14.2197 151.005 13.9688C151.265 13.7131 151.467 13.3958 151.609 13.017L153.228 13.4716C153.058 14.0208 152.771 14.5038 152.369 14.9205C151.966 15.3324 151.469 15.6544 150.877 15.8864C150.285 16.1136 149.62 16.2273 148.881 16.2273ZM157.624 1.45455V16H155.948V1.45455H157.624ZM160.694 20.0909V5.09091H162.314V6.82386H162.512C162.636 6.63447 162.806 6.39299 163.024 6.09943C163.246 5.80114 163.564 5.53598 163.975 5.30398C164.392 5.06723 164.956 4.94886 165.666 4.94886C166.584 4.94886 167.394 5.1785 168.095 5.63778C168.796 6.09706 169.342 6.74811 169.735 7.59091C170.128 8.43371 170.325 9.42803 170.325 10.5739C170.325 11.7292 170.128 12.7306 169.735 13.5781C169.342 14.4209 168.798 15.0743 168.102 15.5384C167.406 15.9976 166.603 16.2273 165.694 16.2273C164.993 16.2273 164.432 16.1113 164.011 15.8793C163.59 15.6425 163.265 15.375 163.038 15.0767C162.811 14.7737 162.636 14.5227 162.512 14.3239H162.37V20.0909H160.694ZM162.342 10.5455C162.342 11.3693 162.463 12.0961 162.704 12.7259C162.946 13.3509 163.298 13.8409 163.762 14.196C164.226 14.5464 164.795 14.7216 165.467 14.7216C166.168 14.7216 166.752 14.5369 167.221 14.1676C167.695 13.7936 168.05 13.2917 168.287 12.6619C168.528 12.0275 168.649 11.322 168.649 10.5455C168.649 9.77841 168.53 9.08712 168.294 8.47159C168.062 7.85133 167.709 7.36127 167.235 7.00142C166.767 6.63684 166.177 6.45455 165.467 6.45455C164.785 6.45455 164.212 6.62737 163.748 6.97301C163.284 7.31392 162.934 7.79214 162.697 8.40767C162.46 9.01847 162.342 9.73106 162.342 10.5455ZM174.103 16.1136C173.753 16.1136 173.452 15.9882 173.201 15.7372C172.95 15.4863 172.825 15.1856 172.825 14.8352C172.825 14.4848 172.95 14.1842 173.201 13.9332C173.452 13.6823 173.753 13.5568 174.103 13.5568C174.454 13.5568 174.754 13.6823 175.005 13.9332C175.256 14.1842 175.382 14.4848 175.382 14.8352C175.382 15.0672 175.323 15.2803 175.204 15.4744C175.091 15.6686 174.937 15.8248 174.743 15.9432C174.553 16.0568 174.34 16.1136 174.103 16.1136ZM184.242 16V1.45455H192.963V3.01705H186.003V7.93182H192.31V9.49432H186.003V16H184.242ZM199.526 16.2273C198.475 16.2273 197.568 15.9953 196.806 15.5312C196.048 15.0625 195.463 14.4091 195.051 13.571C194.644 12.7282 194.441 11.7481 194.441 10.6307C194.441 9.51326 194.644 8.52841 195.051 7.67614C195.463 6.81913 196.036 6.15152 196.77 5.6733C197.509 5.19034 198.371 4.94886 199.355 4.94886C199.924 4.94886 200.485 5.04356 201.039 5.23295C201.593 5.42235 202.097 5.73011 202.551 6.15625C203.006 6.57765 203.368 7.13636 203.638 7.83239C203.908 8.52841 204.043 9.38542 204.043 10.4034V11.1136H195.634V9.66477H202.338C202.338 9.04924 202.215 8.5 201.969 8.01705C201.728 7.53409 201.382 7.15294 200.932 6.87358C200.487 6.59422 199.962 6.45455 199.355 6.45455C198.688 6.45455 198.11 6.62026 197.623 6.9517C197.14 7.27841 196.768 7.70455 196.507 8.23011C196.247 8.75568 196.117 9.31913 196.117 9.92045V10.8864C196.117 11.7102 196.259 12.4086 196.543 12.9815C196.832 13.5497 197.232 13.983 197.743 14.2812C198.255 14.5748 198.849 14.7216 199.526 14.7216C199.966 14.7216 200.364 14.66 200.719 14.5369C201.079 14.4091 201.389 14.2197 201.65 13.9688C201.91 13.7131 202.111 13.3958 202.253 13.017L203.873 13.4716C203.702 14.0208 203.416 14.5038 203.013 14.9205C202.611 15.3324 202.114 15.6544 201.522 15.8864C200.93 16.1136 200.265 16.2273 199.526 16.2273ZM211.167 16.2273C210.115 16.2273 209.209 15.9953 208.446 15.5312C207.689 15.0625 207.104 14.4091 206.692 13.571C206.285 12.7282 206.081 11.7481 206.081 10.6307C206.081 9.51326 206.285 8.52841 206.692 7.67614C207.104 6.81913 207.677 6.15152 208.411 5.6733C209.15 5.19034 210.011 4.94886 210.996 4.94886C211.564 4.94886 212.125 5.04356 212.679 5.23295C213.233 5.42235 213.738 5.73011 214.192 6.15625C214.647 6.57765 215.009 7.13636 215.279 7.83239C215.549 8.52841 215.684 9.38542 215.684 10.4034V11.1136H207.275V9.66477H213.979C213.979 9.04924 213.856 8.5 213.61 8.01705C213.368 7.53409 213.023 7.15294 212.573 6.87358C212.128 6.59422 211.602 6.45455 210.996 6.45455C210.328 6.45455 209.751 6.62026 209.263 6.9517C208.78 7.27841 208.408 7.70455 208.148 8.23011C207.888 8.75568 207.757 9.31913 207.757 9.92045V10.8864C207.757 11.7102 207.9 12.4086 208.184 12.9815C208.472 13.5497 208.873 13.983 209.384 14.2812C209.895 14.5748 210.489 14.7216 211.167 14.7216C211.607 14.7216 212.005 14.66 212.36 14.5369C212.72 14.4091 213.03 14.2197 213.29 13.9688C213.551 13.7131 213.752 13.3958 213.894 13.017L215.513 13.4716C215.343 14.0208 215.056 14.5038 214.654 14.9205C214.251 15.3324 213.754 15.6544 213.162 15.8864C212.57 16.1136 211.905 16.2273 211.167 16.2273ZM219.909 1.45455V16H218.233V1.45455H219.909ZM233.462 5.09091V6.51136H227.582V5.09091H233.462ZM229.343 16V3.58523C229.343 2.96023 229.49 2.43939 229.783 2.02273C230.077 1.60606 230.458 1.29356 230.927 1.08523C231.396 0.876893 231.89 0.772726 232.411 0.772726C232.823 0.772726 233.159 0.80587 233.42 0.872159C233.68 0.938446 233.874 0.999999 234.002 1.05682L233.519 2.50568C233.434 2.47727 233.316 2.44176 233.164 2.39915C233.017 2.35653 232.823 2.33523 232.582 2.33523C232.028 2.33523 231.628 2.4749 231.381 2.75426C231.14 3.03362 231.019 3.44318 231.019 3.98295V16H229.343ZM235.811 16V5.09091H237.431V6.73864H237.544C237.743 6.19886 238.103 5.76089 238.624 5.42472C239.145 5.08854 239.732 4.92045 240.385 4.92045C240.508 4.92045 240.662 4.92282 240.847 4.92756C241.032 4.93229 241.171 4.93939 241.266 4.94886V6.65341C241.209 6.6392 241.079 6.6179 240.875 6.58949C240.676 6.55634 240.466 6.53977 240.243 6.53977C239.713 6.53977 239.239 6.65104 238.823 6.87358C238.411 7.09138 238.084 7.39441 237.843 7.78267C237.606 8.16619 237.488 8.60417 237.488 9.09659V16H235.811ZM247.495 16.2273C246.444 16.2273 245.537 15.9953 244.775 15.5312C244.017 15.0625 243.432 14.4091 243.02 13.571C242.613 12.7282 242.409 11.7481 242.409 10.6307C242.409 9.51326 242.613 8.52841 243.02 7.67614C243.432 6.81913 244.005 6.15152 244.739 5.6733C245.478 5.19034 246.339 4.94886 247.324 4.94886C247.892 4.94886 248.453 5.04356 249.007 5.23295C249.561 5.42235 250.066 5.73011 250.52 6.15625C250.975 6.57765 251.337 7.13636 251.607 7.83239C251.877 8.52841 252.012 9.38542 252.012 10.4034V11.1136H243.603V9.66477H250.307C250.307 9.04924 250.184 8.5 249.938 8.01705C249.696 7.53409 249.351 7.15294 248.901 6.87358C248.456 6.59422 247.93 6.45455 247.324 6.45455C246.657 6.45455 246.079 6.62026 245.591 6.9517C245.108 7.27841 244.737 7.70455 244.476 8.23011C244.216 8.75568 244.086 9.31913 244.086 9.92045V10.8864C244.086 11.7102 244.228 12.4086 244.512 12.9815C244.801 13.5497 245.201 13.983 245.712 14.2812C246.223 14.5748 246.818 14.7216 247.495 14.7216C247.935 14.7216 248.333 14.66 248.688 14.5369C249.048 14.4091 249.358 14.2197 249.618 13.9688C249.879 13.7131 250.08 13.3958 250.222 13.017L251.841 13.4716C251.671 14.0208 251.384 14.5038 250.982 14.9205C250.579 15.3324 250.082 15.6544 249.49 15.8864C248.899 16.1136 248.233 16.2273 247.495 16.2273ZM259.135 16.2273C258.084 16.2273 257.177 15.9953 256.415 15.5312C255.658 15.0625 255.073 14.4091 254.661 13.571C254.254 12.7282 254.05 11.7481 254.05 10.6307C254.05 9.51326 254.254 8.52841 254.661 7.67614C255.073 6.81913 255.646 6.15152 256.38 5.6733C257.118 5.19034 257.98 4.94886 258.965 4.94886C259.533 4.94886 260.094 5.04356 260.648 5.23295C261.202 5.42235 261.706 5.73011 262.161 6.15625C262.615 6.57765 262.978 7.13636 263.248 7.83239C263.517 8.52841 263.652 9.38542 263.652 10.4034V11.1136H255.243V9.66477H261.948C261.948 9.04924 261.825 8.5 261.578 8.01705C261.337 7.53409 260.991 7.15294 260.542 6.87358C260.096 6.59422 259.571 6.45455 258.965 6.45455C258.297 6.45455 257.72 6.62026 257.232 6.9517C256.749 7.27841 256.377 7.70455 256.117 8.23011C255.856 8.75568 255.726 9.31913 255.726 9.92045V10.8864C255.726 11.7102 255.868 12.4086 256.152 12.9815C256.441 13.5497 256.841 13.983 257.353 14.2812C257.864 14.5748 258.458 14.7216 259.135 14.7216C259.576 14.7216 259.973 14.66 260.328 14.5369C260.688 14.4091 260.998 14.2197 261.259 13.9688C261.519 13.7131 261.721 13.3958 261.863 13.017L263.482 13.4716C263.311 14.0208 263.025 14.5038 262.623 14.9205C262.22 15.3324 261.723 15.6544 261.131 15.8864C260.539 16.1136 259.874 16.2273 259.135 16.2273ZM276.571 5.09091V6.51136H270.918V5.09091H276.571ZM272.566 2.47727H274.242V12.875C274.242 13.3485 274.31 13.7036 274.448 13.9403C274.59 14.1723 274.77 14.3286 274.988 14.4091C275.21 14.4848 275.444 14.5227 275.691 14.5227C275.875 14.5227 276.027 14.5133 276.145 14.4943C276.264 14.4706 276.358 14.4517 276.429 14.4375L276.77 15.9432C276.657 15.9858 276.498 16.0284 276.294 16.071C276.091 16.1184 275.833 16.142 275.52 16.142C275.047 16.142 274.583 16.0402 274.128 15.8366C273.678 15.633 273.304 15.3229 273.006 14.9062C272.712 14.4896 272.566 13.964 272.566 13.3295V2.47727ZM283.407 16.2273C282.422 16.2273 281.558 15.9929 280.815 15.5241C280.076 15.0554 279.499 14.3996 279.082 13.5568C278.67 12.714 278.464 11.7292 278.464 10.6023C278.464 9.46591 278.67 8.47396 279.082 7.62642C279.499 6.77888 280.076 6.12074 280.815 5.65199C281.558 5.18324 282.422 4.94886 283.407 4.94886C284.392 4.94886 285.254 5.18324 285.993 5.65199C286.736 6.12074 287.314 6.77888 287.725 7.62642C288.142 8.47396 288.35 9.46591 288.35 10.6023C288.35 11.7292 288.142 12.714 287.725 13.5568C287.314 14.3996 286.736 15.0554 285.993 15.5241C285.254 15.9929 284.392 16.2273 283.407 16.2273ZM283.407 14.7216C284.155 14.7216 284.771 14.5298 285.254 14.1463C285.737 13.7628 286.094 13.2585 286.326 12.6335C286.558 12.0085 286.674 11.3314 286.674 10.6023C286.674 9.87311 286.558 9.19366 286.326 8.56392C286.094 7.93419 285.737 7.42519 285.254 7.03693C284.771 6.64867 284.155 6.45455 283.407 6.45455C282.659 6.45455 282.044 6.64867 281.561 7.03693C281.078 7.42519 280.72 7.93419 280.488 8.56392C280.256 9.19366 280.14 9.87311 280.14 10.6023C280.14 11.3314 280.256 12.0085 280.488 12.6335C280.72 13.2585 281.078 13.7628 281.561 14.1463C282.044 14.5298 282.659 14.7216 283.407 14.7216ZM300.966 16.2273C299.943 16.2273 299.063 15.9858 298.324 15.5028C297.585 15.0199 297.017 14.3546 296.619 13.5071C296.222 12.6596 296.023 11.6913 296.023 10.6023C296.023 9.49432 296.226 8.51657 296.634 7.66903C297.045 6.81676 297.618 6.15152 298.352 5.6733C299.091 5.19034 299.953 4.94886 300.938 4.94886C301.705 4.94886 302.396 5.09091 303.011 5.375C303.627 5.65909 304.131 6.05682 304.524 6.56818C304.917 7.07955 305.161 7.67614 305.256 8.35795H303.58C303.452 7.8608 303.168 7.42045 302.727 7.03693C302.292 6.64867 301.705 6.45455 300.966 6.45455C300.313 6.45455 299.74 6.625 299.247 6.96591C298.759 7.30208 298.378 7.77794 298.104 8.39347C297.834 9.00426 297.699 9.72159 297.699 10.5455C297.699 11.3883 297.831 12.1222 298.097 12.7472C298.366 13.3722 298.745 13.8575 299.233 14.2031C299.725 14.5488 300.303 14.7216 300.966 14.7216C301.402 14.7216 301.797 14.6458 302.152 14.4943C302.507 14.3428 302.808 14.125 303.054 13.8409C303.3 13.5568 303.475 13.2159 303.58 12.8182H305.256C305.161 13.4621 304.927 14.0421 304.553 14.5582C304.183 15.0696 303.693 15.4768 303.082 15.7798C302.476 16.0781 301.771 16.2273 300.966 16.2273ZM312.138 16.2273C311.153 16.2273 310.289 15.9929 309.545 15.5241C308.807 15.0554 308.229 14.3996 307.812 13.5568C307.401 12.714 307.195 11.7292 307.195 10.6023C307.195 9.46591 307.401 8.47396 307.812 7.62642C308.229 6.77888 308.807 6.12074 309.545 5.65199C310.289 5.18324 311.153 4.94886 312.138 4.94886C313.123 4.94886 313.984 5.18324 314.723 5.65199C315.466 6.12074 316.044 6.77888 316.456 7.62642C316.873 8.47396 317.081 9.46591 317.081 10.6023C317.081 11.7292 316.873 12.714 316.456 13.5568C316.044 14.3996 315.466 15.0554 314.723 15.5241C313.984 15.9929 313.123 16.2273 312.138 16.2273ZM312.138 14.7216C312.886 14.7216 313.501 14.5298 313.984 14.1463C314.467 13.7628 314.825 13.2585 315.057 12.6335C315.289 12.0085 315.405 11.3314 315.405 10.6023C315.405 9.87311 315.289 9.19366 315.057 8.56392C314.825 7.93419 314.467 7.42519 313.984 7.03693C313.501 6.64867 312.886 6.45455 312.138 6.45455C311.39 6.45455 310.774 6.64867 310.291 7.03693C309.808 7.42519 309.451 7.93419 309.219 8.56392C308.987 9.19366 308.871 9.87311 308.871 10.6023C308.871 11.3314 308.987 12.0085 309.219 12.6335C309.451 13.2585 309.808 13.7628 310.291 14.1463C310.774 14.5298 311.39 14.7216 312.138 14.7216ZM321.316 9.4375V16H319.64V5.09091H321.259V6.79545H321.401C321.657 6.24148 322.045 5.7964 322.566 5.46023C323.087 5.11932 323.759 4.94886 324.583 4.94886C325.321 4.94886 325.968 5.10038 326.522 5.40341C327.076 5.7017 327.507 6.15625 327.814 6.76705C328.122 7.37311 328.276 8.14015 328.276 9.06818V16H326.6V9.18182C326.6 8.32481 326.377 7.6572 325.932 7.17898C325.487 6.69602 324.876 6.45455 324.1 6.45455C323.565 6.45455 323.087 6.57055 322.665 6.80256C322.248 7.03456 321.919 7.37311 321.678 7.81818C321.436 8.26326 321.316 8.80303 321.316 9.4375ZM336.083 5.09091V6.51136H330.43V5.09091H336.083ZM332.077 2.47727H333.754V12.875C333.754 13.3485 333.822 13.7036 333.96 13.9403C334.102 14.1723 334.281 14.3286 334.499 14.4091C334.722 14.4848 334.956 14.5227 335.202 14.5227C335.387 14.5227 335.539 14.5133 335.657 14.4943C335.775 14.4706 335.87 14.4517 335.941 14.4375L336.282 15.9432C336.168 15.9858 336.01 16.0284 335.806 16.071C335.603 16.1184 335.344 16.142 335.032 16.142C334.558 16.142 334.094 16.0402 333.64 15.8366C333.19 15.633 332.816 15.3229 332.518 14.9062C332.224 14.4896 332.077 13.964 332.077 13.3295V2.47727ZM341.815 16.2557C341.123 16.2557 340.496 16.1255 339.933 15.8651C339.369 15.5999 338.922 15.2188 338.59 14.7216C338.259 14.2197 338.093 13.6136 338.093 12.9034C338.093 12.2784 338.216 11.7718 338.462 11.3835C338.709 10.9905 339.038 10.6828 339.45 10.4602C339.862 10.2377 340.316 10.072 340.813 9.96307C341.315 9.84943 341.819 9.75947 342.326 9.69318C342.989 9.60795 343.526 9.54403 343.938 9.50142C344.355 9.45407 344.658 9.37595 344.847 9.26705C345.041 9.15814 345.138 8.96875 345.138 8.69886V8.64205C345.138 7.94129 344.947 7.39678 344.563 7.00852C344.184 6.62027 343.609 6.42614 342.837 6.42614C342.037 6.42614 341.41 6.60133 340.955 6.9517C340.501 7.30208 340.181 7.67614 339.996 8.07386L338.406 7.50568C338.69 6.8428 339.068 6.3267 339.542 5.95739C340.02 5.58333 340.541 5.32292 341.104 5.17614C341.673 5.02462 342.231 4.94886 342.781 4.94886C343.131 4.94886 343.533 4.99148 343.988 5.0767C344.447 5.1572 344.89 5.32528 345.316 5.58097C345.747 5.83665 346.104 6.22254 346.388 6.73864C346.673 7.25473 346.815 7.94602 346.815 8.8125V16H345.138V14.5227H345.053C344.94 14.7595 344.75 15.0128 344.485 15.2827C344.22 15.5526 343.867 15.7822 343.427 15.9716C342.987 16.161 342.449 16.2557 341.815 16.2557ZM342.07 14.75C342.733 14.75 343.292 14.6198 343.746 14.3594C344.206 14.099 344.551 13.7628 344.783 13.3509C345.02 12.9389 345.138 12.5057 345.138 12.0511V10.517C345.067 10.6023 344.911 10.6804 344.67 10.7514C344.433 10.8177 344.158 10.8769 343.846 10.929C343.538 10.9763 343.237 11.0189 342.944 11.0568C342.655 11.09 342.421 11.1184 342.241 11.142C341.805 11.1989 341.398 11.2912 341.019 11.419C340.645 11.5421 340.342 11.7292 340.11 11.9801C339.883 12.2263 339.769 12.5625 339.769 12.9886C339.769 13.571 339.985 14.0114 340.415 14.3097C340.851 14.6032 341.403 14.75 342.07 14.75ZM354.306 16.2273C353.283 16.2273 352.402 15.9858 351.664 15.5028C350.925 15.0199 350.357 14.3546 349.959 13.5071C349.561 12.6596 349.363 11.6913 349.363 10.6023C349.363 9.49432 349.566 8.51657 349.973 7.66903C350.385 6.81676 350.958 6.15152 351.692 5.6733C352.431 5.19034 353.292 4.94886 354.277 4.94886C355.044 4.94886 355.736 5.09091 356.351 5.375C356.967 5.65909 357.471 6.05682 357.864 6.56818C358.257 7.07955 358.501 7.67614 358.596 8.35795H356.919C356.792 7.8608 356.507 7.42045 356.067 7.03693C355.632 6.64867 355.044 6.45455 354.306 6.45455C353.652 6.45455 353.079 6.625 352.587 6.96591C352.099 7.30208 351.718 7.77794 351.444 8.39347C351.174 9.00426 351.039 9.72159 351.039 10.5455C351.039 11.3883 351.171 12.1222 351.436 12.7472C351.706 13.3722 352.085 13.8575 352.573 14.2031C353.065 14.5488 353.643 14.7216 354.306 14.7216C354.741 14.7216 355.137 14.6458 355.492 14.4943C355.847 14.3428 356.148 14.125 356.394 13.8409C356.64 13.5568 356.815 13.2159 356.919 12.8182H358.596C358.501 13.4621 358.266 14.0421 357.892 14.5582C357.523 15.0696 357.033 15.4768 356.422 15.7798C355.816 16.0781 355.111 16.2273 354.306 16.2273ZM365.79 5.09091V6.51136H360.137V5.09091H365.79ZM361.784 2.47727H363.461V12.875C363.461 13.3485 363.529 13.7036 363.667 13.9403C363.809 14.1723 363.989 14.3286 364.206 14.4091C364.429 14.4848 364.663 14.5227 364.909 14.5227C365.094 14.5227 365.246 14.5133 365.364 14.4943C365.482 14.4706 365.577 14.4517 365.648 14.4375L365.989 15.9432C365.875 15.9858 365.717 16.0284 365.513 16.071C365.31 16.1184 365.051 16.142 364.739 16.142C364.266 16.142 363.801 16.0402 363.347 15.8366C362.897 15.633 362.523 15.3229 362.225 14.9062C361.931 14.4896 361.784 13.964 361.784 13.3295V2.47727ZM380.811 11.5398V5.09091H382.488V16H380.811V14.1534H380.698C380.442 14.7074 380.044 15.1785 379.505 15.5668C378.965 15.9503 378.283 16.142 377.459 16.142C376.777 16.142 376.171 15.9929 375.641 15.6946C375.111 15.3916 374.694 14.937 374.391 14.331C374.088 13.7202 373.936 12.9508 373.936 12.0227V5.09091H375.613V11.9091C375.613 12.7045 375.835 13.339 376.28 13.8125C376.73 14.286 377.303 14.5227 377.999 14.5227C378.416 14.5227 378.839 14.4162 379.27 14.2031C379.706 13.9901 380.07 13.6634 380.364 13.223C380.662 12.7827 380.811 12.2216 380.811 11.5398ZM393.285 7.53409L391.779 7.96023C391.684 7.70928 391.545 7.46544 391.36 7.22869C391.18 6.98722 390.934 6.78835 390.621 6.6321C390.309 6.47585 389.909 6.39773 389.421 6.39773C388.754 6.39773 388.197 6.55161 387.752 6.85938C387.312 7.16241 387.092 7.5483 387.092 8.01705C387.092 8.43371 387.243 8.76278 387.546 9.00426C387.849 9.24574 388.323 9.44697 388.967 9.60795L390.586 10.0057C391.561 10.2424 392.288 10.6046 392.766 11.0923C393.245 11.5753 393.484 12.1979 393.484 12.9602C393.484 13.5852 393.304 14.1439 392.944 14.6364C392.589 15.1288 392.092 15.517 391.452 15.8011C390.813 16.0852 390.07 16.2273 389.222 16.2273C388.11 16.2273 387.189 15.9858 386.46 15.5028C385.73 15.0199 385.269 14.3144 385.075 13.3864L386.665 12.9886C386.817 13.5758 387.103 14.0161 387.525 14.3097C387.951 14.6032 388.507 14.75 389.194 14.75C389.975 14.75 390.595 14.5843 391.055 14.2528C391.519 13.9167 391.751 13.5142 391.751 13.0455C391.751 12.6667 391.618 12.3494 391.353 12.0938C391.088 11.8333 390.681 11.6392 390.131 11.5114L388.313 11.0852C387.314 10.8485 386.58 10.4815 386.112 9.98438C385.647 9.48248 385.415 8.85511 385.415 8.10227C385.415 7.48674 385.588 6.94223 385.934 6.46875C386.284 5.99527 386.76 5.62358 387.362 5.35369C387.968 5.08381 388.654 4.94886 389.421 4.94886C390.501 4.94886 391.348 5.18561 391.964 5.65909C392.584 6.13258 393.024 6.75758 393.285 7.53409ZM404.103 16L400.779 5.09091H402.541L404.899 13.4432H405.012L407.342 5.09091H409.132L411.433 13.4148H411.547L413.904 5.09091H415.666L412.342 16H410.694L408.308 7.61932H408.137L405.751 16H404.103ZM417.882 16V5.09091H419.558V16H417.882ZM418.734 3.27273C418.407 3.27273 418.126 3.16146 417.889 2.93892C417.657 2.71638 417.541 2.44886 417.541 2.13636C417.541 1.82386 417.657 1.55634 417.889 1.33381C418.126 1.11127 418.407 1 418.734 1C419.061 1 419.34 1.11127 419.572 1.33381C419.809 1.55634 419.927 1.82386 419.927 2.13636C419.927 2.44886 419.809 2.71638 419.572 2.93892C419.34 3.16146 419.061 3.27273 418.734 3.27273ZM427.372 5.09091V6.51136H421.719V5.09091H427.372ZM423.366 2.47727H425.043V12.875C425.043 13.3485 425.111 13.7036 425.249 13.9403C425.391 14.1723 425.571 14.3286 425.788 14.4091C426.011 14.4848 426.245 14.5227 426.491 14.5227C426.676 14.5227 426.828 14.5133 426.946 14.4943C427.064 14.4706 427.159 14.4517 427.23 14.4375L427.571 15.9432C427.457 15.9858 427.299 16.0284 427.095 16.071C426.892 16.1184 426.634 16.142 426.321 16.142C425.848 16.142 425.384 16.0402 424.929 15.8366C424.479 15.633 424.105 15.3229 423.807 14.9062C423.513 14.4896 423.366 13.964 423.366 13.3295V2.47727ZM431.804 9.4375V16H430.128V1.45455H431.804V6.79545H431.946C432.202 6.23201 432.585 5.78456 433.097 5.45312C433.613 5.11695 434.299 4.94886 435.156 4.94886C435.9 4.94886 436.551 5.09801 437.109 5.39631C437.668 5.68987 438.101 6.14205 438.409 6.75284C438.722 7.3589 438.878 8.13068 438.878 9.06818V16H437.202V9.18182C437.202 8.31534 436.977 7.64536 436.527 7.17188C436.082 6.69366 435.464 6.45455 434.673 6.45455C434.124 6.45455 433.632 6.57055 433.196 6.80256C432.765 7.03456 432.424 7.37311 432.173 7.81818C431.927 8.26326 431.804 8.80303 431.804 9.4375ZM455.012 20.0909V14.3239H454.87C454.747 14.5227 454.572 14.7737 454.345 15.0767C454.118 15.375 453.793 15.6425 453.372 15.8793C452.95 16.1113 452.389 16.2273 451.689 16.2273C450.779 16.2273 449.977 15.9976 449.281 15.5384C448.585 15.0743 448.04 14.4209 447.647 13.5781C447.254 12.7306 447.058 11.7292 447.058 10.5739C447.058 9.42803 447.254 8.43371 447.647 7.59091C448.04 6.74811 448.587 6.09706 449.288 5.63778C449.989 5.1785 450.798 4.94886 451.717 4.94886C452.427 4.94886 452.988 5.06723 453.4 5.30398C453.817 5.53598 454.134 5.80114 454.352 6.09943C454.574 6.39299 454.747 6.63447 454.87 6.82386H455.069V5.09091H456.689V20.0909H455.012ZM451.916 14.7216C452.588 14.7216 453.156 14.5464 453.62 14.196C454.084 13.8409 454.437 13.3509 454.679 12.7259C454.92 12.0961 455.041 11.3693 455.041 10.5455C455.041 9.73106 454.922 9.01847 454.686 8.40767C454.449 7.79214 454.099 7.31392 453.635 6.97301C453.171 6.62737 452.598 6.45455 451.916 6.45455C451.206 6.45455 450.614 6.63684 450.14 7.00142C449.672 7.36127 449.319 7.85133 449.082 8.47159C448.85 9.08712 448.734 9.77841 448.734 10.5455C448.734 11.322 448.852 12.0275 449.089 12.6619C449.331 13.2917 449.686 13.7936 450.154 14.1676C450.628 14.5369 451.215 14.7216 451.916 14.7216ZM466.632 11.5398V5.09091H468.308V16H466.632V14.1534H466.518C466.262 14.7074 465.865 15.1785 465.325 15.5668C464.785 15.9503 464.103 16.142 463.279 16.142C462.598 16.142 461.992 15.9929 461.461 15.6946C460.931 15.3916 460.514 14.937 460.211 14.331C459.908 13.7202 459.757 12.9508 459.757 12.0227V5.09091H461.433V11.9091C461.433 12.7045 461.655 13.339 462.1 13.8125C462.55 14.286 463.123 14.5227 463.819 14.5227C464.236 14.5227 464.66 14.4162 465.091 14.2031C465.526 13.9901 465.891 13.6634 466.184 13.223C466.483 12.7827 466.632 12.2216 466.632 11.5398ZM475.952 16.2273C474.901 16.2273 473.994 15.9953 473.232 15.5312C472.474 15.0625 471.889 14.4091 471.477 13.571C471.07 12.7282 470.866 11.7481 470.866 10.6307C470.866 9.51326 471.07 8.52841 471.477 7.67614C471.889 6.81913 472.462 6.15152 473.196 5.6733C473.935 5.19034 474.796 4.94886 475.781 4.94886C476.349 4.94886 476.911 5.04356 477.464 5.23295C478.018 5.42235 478.523 5.73011 478.977 6.15625C479.432 6.57765 479.794 7.13636 480.064 7.83239C480.334 8.52841 480.469 9.38542 480.469 10.4034V11.1136H472.06V9.66477H478.764C478.764 9.04924 478.641 8.5 478.395 8.01705C478.153 7.53409 477.808 7.15294 477.358 6.87358C476.913 6.59422 476.387 6.45455 475.781 6.45455C475.114 6.45455 474.536 6.62026 474.048 6.9517C473.565 7.27841 473.194 7.70455 472.933 8.23011C472.673 8.75568 472.543 9.31913 472.543 9.92045V10.8864C472.543 11.7102 472.685 12.4086 472.969 12.9815C473.258 13.5497 473.658 13.983 474.169 14.2812C474.68 14.5748 475.275 14.7216 475.952 14.7216C476.392 14.7216 476.79 14.66 477.145 14.5369C477.505 14.4091 477.815 14.2197 478.075 13.9688C478.336 13.7131 478.537 13.3958 478.679 13.017L480.298 13.4716C480.128 14.0208 479.841 14.5038 479.439 14.9205C479.036 15.3324 478.539 15.6544 477.947 15.8864C477.356 16.1136 476.69 16.2273 475.952 16.2273ZM490.746 7.53409L489.24 7.96023C489.145 7.70928 489.006 7.46544 488.821 7.22869C488.641 6.98722 488.395 6.78835 488.082 6.6321C487.77 6.47585 487.37 6.39773 486.882 6.39773C486.214 6.39773 485.658 6.55161 485.213 6.85938C484.773 7.16241 484.553 7.5483 484.553 8.01705C484.553 8.43371 484.704 8.76278 485.007 9.00426C485.31 9.24574 485.784 9.44697 486.428 9.60795L488.047 10.0057C489.022 10.2424 489.749 10.6046 490.227 11.0923C490.705 11.5753 490.945 12.1979 490.945 12.9602C490.945 13.5852 490.765 14.1439 490.405 14.6364C490.05 15.1288 489.553 15.517 488.913 15.8011C488.274 16.0852 487.531 16.2273 486.683 16.2273C485.571 16.2273 484.65 15.9858 483.92 15.5028C483.191 15.0199 482.73 14.3144 482.536 13.3864L484.126 12.9886C484.278 13.5758 484.564 14.0161 484.986 14.3097C485.412 14.6032 485.968 14.75 486.655 14.75C487.436 14.75 488.056 14.5843 488.516 14.2528C488.98 13.9167 489.212 13.5142 489.212 13.0455C489.212 12.6667 489.079 12.3494 488.814 12.0938C488.549 11.8333 488.142 11.6392 487.592 11.5114L485.774 11.0852C484.775 10.8485 484.041 10.4815 483.572 9.98438C483.108 9.48248 482.876 8.85511 482.876 8.10227C482.876 7.48674 483.049 6.94223 483.395 6.46875C483.745 5.99527 484.221 5.62358 484.822 5.35369C485.429 5.08381 486.115 4.94886 486.882 4.94886C487.962 4.94886 488.809 5.18561 489.425 5.65909C490.045 6.13258 490.485 6.75758 490.746 7.53409ZM498.212 5.09091V6.51136H492.559V5.09091H498.212ZM494.206 2.47727H495.882V12.875C495.882 13.3485 495.951 13.7036 496.088 13.9403C496.23 14.1723 496.41 14.3286 496.628 14.4091C496.851 14.4848 497.085 14.5227 497.331 14.5227C497.516 14.5227 497.667 14.5133 497.786 14.4943C497.904 14.4706 497.999 14.4517 498.07 14.4375L498.411 15.9432C498.297 15.9858 498.139 16.0284 497.935 16.071C497.731 16.1184 497.473 16.142 497.161 16.142C496.687 16.142 496.223 16.0402 495.769 15.8366C495.319 15.633 494.945 15.3229 494.647 14.9062C494.353 14.4896 494.206 13.964 494.206 13.3295V2.47727ZM500.733 16V5.09091H502.409V16H500.733ZM501.586 3.27273C501.259 3.27273 500.977 3.16146 500.74 2.93892C500.508 2.71638 500.392 2.44886 500.392 2.13636C500.392 1.82386 500.508 1.55634 500.74 1.33381C500.977 1.11127 501.259 1 501.586 1C501.912 1 502.192 1.11127 502.424 1.33381C502.66 1.55634 502.779 1.82386 502.779 2.13636C502.779 2.44886 502.66 2.71638 502.424 2.93892C502.192 3.16146 501.912 3.27273 501.586 3.27273ZM509.911 16.2273C508.926 16.2273 508.062 15.9929 507.319 15.5241C506.58 15.0554 506.003 14.3996 505.586 13.5568C505.174 12.714 504.968 11.7292 504.968 10.6023C504.968 9.46591 505.174 8.47396 505.586 7.62642C506.003 6.77888 506.58 6.12074 507.319 5.65199C508.062 5.18324 508.926 4.94886 509.911 4.94886C510.896 4.94886 511.758 5.18324 512.496 5.65199C513.24 6.12074 513.817 6.77888 514.229 7.62642C514.646 8.47396 514.854 9.46591 514.854 10.6023C514.854 11.7292 514.646 12.714 514.229 13.5568C513.817 14.3996 513.24 15.0554 512.496 15.5241C511.758 15.9929 510.896 16.2273 509.911 16.2273ZM509.911 14.7216C510.659 14.7216 511.275 14.5298 511.758 14.1463C512.241 13.7628 512.598 13.2585 512.83 12.6335C513.062 12.0085 513.178 11.3314 513.178 10.6023C513.178 9.87311 513.062 9.19366 512.83 8.56392C512.598 7.93419 512.241 7.42519 511.758 7.03693C511.275 6.64867 510.659 6.45455 509.911 6.45455C509.163 6.45455 508.548 6.64867 508.065 7.03693C507.582 7.42519 507.224 7.93419 506.992 8.56392C506.76 9.19366 506.644 9.87311 506.644 10.6023C506.644 11.3314 506.76 12.0085 506.992 12.6335C507.224 13.2585 507.582 13.7628 508.065 14.1463C508.548 14.5298 509.163 14.7216 509.911 14.7216ZM519.089 9.4375V16H517.413V5.09091H519.032V6.79545H519.174C519.43 6.24148 519.818 5.7964 520.339 5.46023C520.86 5.11932 521.532 4.94886 522.356 4.94886C523.095 4.94886 523.741 5.10038 524.295 5.40341C524.849 5.7017 525.28 6.15625 525.588 6.76705C525.895 7.37311 526.049 8.14015 526.049 9.06818V16H524.373V9.18182C524.373 8.32481 524.151 7.6572 523.706 7.17898C523.261 6.69602 522.65 6.45455 521.873 6.45455C521.338 6.45455 520.86 6.57055 520.439 6.80256C520.022 7.03456 519.693 7.37311 519.451 7.81818C519.21 8.26326 519.089 8.80303 519.089 9.4375ZM536.839 7.53409L535.334 7.96023C535.239 7.70928 535.099 7.46544 534.915 7.22869C534.735 6.98722 534.489 6.78835 534.176 6.6321C533.864 6.47585 533.464 6.39773 532.976 6.39773C532.308 6.39773 531.752 6.55161 531.307 6.85938C530.866 7.16241 530.646 7.5483 530.646 8.01705C530.646 8.43371 530.798 8.76278 531.101 9.00426C531.404 9.24574 531.877 9.44697 532.521 9.60795L534.141 10.0057C535.116 10.2424 535.843 10.6046 536.321 11.0923C536.799 11.5753 537.038 12.1979 537.038 12.9602C537.038 13.5852 536.858 14.1439 536.499 14.6364C536.143 15.1288 535.646 15.517 535.007 15.8011C534.368 16.0852 533.625 16.2273 532.777 16.2273C531.664 16.2273 530.743 15.9858 530.014 15.5028C529.285 15.0199 528.823 14.3144 528.629 13.3864L530.22 12.9886C530.372 13.5758 530.658 14.0161 531.08 14.3097C531.506 14.6032 532.062 14.75 532.749 14.75C533.53 14.75 534.15 14.5843 534.609 14.2528C535.073 13.9167 535.305 13.5142 535.305 13.0455C535.305 12.6667 535.173 12.3494 534.908 12.0938C534.643 11.8333 534.235 11.6392 533.686 11.5114L531.868 11.0852C530.869 10.8485 530.135 10.4815 529.666 9.98438C529.202 9.48248 528.97 8.85511 528.97 8.10227C528.97 7.48674 529.143 6.94223 529.489 6.46875C529.839 5.99527 530.315 5.62358 530.916 5.35369C531.522 5.08381 532.209 4.94886 532.976 4.94886C534.055 4.94886 534.903 5.18561 535.518 5.65909C536.139 6.13258 536.579 6.75758 536.839 7.53409ZM542.061 14.0114L541.948 14.7784C541.867 15.3182 541.744 15.8958 541.578 16.5114C541.417 17.1269 541.249 17.7069 541.074 18.2514C540.899 18.7959 540.755 19.2292 540.641 19.5511H539.363C539.424 19.2481 539.505 18.848 539.604 18.3509C539.703 17.8537 539.803 17.2973 539.902 16.6818C540.007 16.071 540.092 15.446 540.158 14.8068L540.243 14.0114H542.061ZM555.224 16.2273C554.201 16.2273 553.32 15.9858 552.582 15.5028C551.843 15.0199 551.275 14.3546 550.877 13.5071C550.479 12.6596 550.281 11.6913 550.281 10.6023C550.281 9.49432 550.484 8.51657 550.891 7.66903C551.303 6.81676 551.876 6.15152 552.61 5.6733C553.349 5.19034 554.21 4.94886 555.195 4.94886C555.962 4.94886 556.654 5.09091 557.269 5.375C557.885 5.65909 558.389 6.05682 558.782 6.56818C559.175 7.07955 559.419 7.67614 559.513 8.35795H557.837C557.71 7.8608 557.425 7.42045 556.985 7.03693C556.549 6.64867 555.962 6.45455 555.224 6.45455C554.57 6.45455 553.997 6.625 553.505 6.96591C553.017 7.30208 552.636 7.77794 552.362 8.39347C552.092 9.00426 551.957 9.72159 551.957 10.5455C551.957 11.3883 552.089 12.1222 552.354 12.7472C552.624 13.3722 553.003 13.8575 553.491 14.2031C553.983 14.5488 554.561 14.7216 555.224 14.7216C555.659 14.7216 556.055 14.6458 556.41 14.4943C556.765 14.3428 557.066 14.125 557.312 13.8409C557.558 13.5568 557.733 13.2159 557.837 12.8182H559.513C559.419 13.4621 559.184 14.0421 558.81 14.5582C558.441 15.0696 557.951 15.4768 557.34 15.7798C556.734 16.0781 556.029 16.2273 555.224 16.2273ZM566.396 16.2273C565.411 16.2273 564.547 15.9929 563.803 15.5241C563.065 15.0554 562.487 14.3996 562.07 13.5568C561.658 12.714 561.452 11.7292 561.452 10.6023C561.452 9.46591 561.658 8.47396 562.07 7.62642C562.487 6.77888 563.065 6.12074 563.803 5.65199C564.547 5.18324 565.411 4.94886 566.396 4.94886C567.38 4.94886 568.242 5.18324 568.981 5.65199C569.724 6.12074 570.302 6.77888 570.714 7.62642C571.13 8.47396 571.339 9.46591 571.339 10.6023C571.339 11.7292 571.13 12.714 570.714 13.5568C570.302 14.3996 569.724 15.0554 568.981 15.5241C568.242 15.9929 567.38 16.2273 566.396 16.2273ZM566.396 14.7216C567.144 14.7216 567.759 14.5298 568.242 14.1463C568.725 13.7628 569.083 13.2585 569.315 12.6335C569.547 12.0085 569.663 11.3314 569.663 10.6023C569.663 9.87311 569.547 9.19366 569.315 8.56392C569.083 7.93419 568.725 7.42519 568.242 7.03693C567.759 6.64867 567.144 6.45455 566.396 6.45455C565.647 6.45455 565.032 6.64867 564.549 7.03693C564.066 7.42519 563.709 7.93419 563.477 8.56392C563.245 9.19366 563.129 9.87311 563.129 10.6023C563.129 11.3314 563.245 12.0085 563.477 12.6335C563.709 13.2585 564.066 13.7628 564.549 14.1463C565.032 14.5298 565.647 14.7216 566.396 14.7216ZM573.897 16V5.09091H575.517V6.79545H575.659C575.886 6.21307 576.253 5.76089 576.76 5.43892C577.266 5.11222 577.875 4.94886 578.585 4.94886C579.305 4.94886 579.904 5.11222 580.382 5.43892C580.865 5.76089 581.241 6.21307 581.511 6.79545H581.625C581.904 6.23201 582.323 5.78456 582.882 5.45312C583.44 5.11695 584.11 4.94886 584.892 4.94886C585.867 4.94886 586.665 5.25426 587.285 5.86506C587.905 6.47112 588.216 7.41572 588.216 8.69886V16H586.539V8.69886C586.539 7.89394 586.319 7.31866 585.879 6.97301C585.439 6.62737 584.92 6.45455 584.324 6.45455C583.556 6.45455 582.962 6.68655 582.541 7.15057C582.119 7.60985 581.909 8.19223 581.909 8.89773V16H580.204V8.52841C580.204 7.90814 580.003 7.40862 579.6 7.02983C579.198 6.64631 578.68 6.45455 578.045 6.45455C577.609 6.45455 577.202 6.57055 576.824 6.80256C576.449 7.03456 576.146 7.35653 575.914 7.76847C575.687 8.17566 575.574 8.64678 575.574 9.18182V16H573.897ZM591.28 16V5.09091H592.9V6.79545H593.042C593.269 6.21307 593.636 5.76089 594.142 5.43892C594.649 5.11222 595.257 4.94886 595.968 4.94886C596.687 4.94886 597.286 5.11222 597.765 5.43892C598.248 5.76089 598.624 6.21307 598.894 6.79545H599.007C599.287 6.23201 599.706 5.78456 600.265 5.45312C600.823 5.11695 601.493 4.94886 602.275 4.94886C603.25 4.94886 604.048 5.25426 604.668 5.86506C605.288 6.47112 605.598 7.41572 605.598 8.69886V16H603.922V8.69886C603.922 7.89394 603.702 7.31866 603.262 6.97301C602.821 6.62737 602.303 6.45455 601.706 6.45455C600.939 6.45455 600.345 6.68655 599.924 7.15057C599.502 7.60985 599.292 8.19223 599.292 8.89773V16H597.587V8.52841C597.587 7.90814 597.386 7.40862 596.983 7.02983C596.581 6.64631 596.062 6.45455 595.428 6.45455C594.992 6.45455 594.585 6.57055 594.206 6.80256C593.832 7.03456 593.529 7.35653 593.297 7.76847C593.07 8.17566 592.956 8.64678 592.956 9.18182V16H591.28ZM613.237 16.2273C612.186 16.2273 611.279 15.9953 610.517 15.5312C609.759 15.0625 609.174 14.4091 608.762 13.571C608.355 12.7282 608.152 11.7481 608.152 10.6307C608.152 9.51326 608.355 8.52841 608.762 7.67614C609.174 6.81913 609.747 6.15152 610.481 5.6733C611.22 5.19034 612.082 4.94886 613.066 4.94886C613.635 4.94886 614.196 5.04356 614.75 5.23295C615.304 5.42235 615.808 5.73011 616.262 6.15625C616.717 6.57765 617.079 7.13636 617.349 7.83239C617.619 8.52841 617.754 9.38542 617.754 10.4034V11.1136H609.345V9.66477H616.049C616.049 9.04924 615.926 8.5 615.68 8.01705C615.439 7.53409 615.093 7.15294 614.643 6.87358C614.198 6.59422 613.672 6.45455 613.066 6.45455C612.399 6.45455 611.821 6.62026 611.333 6.9517C610.85 7.27841 610.479 7.70455 610.218 8.23011C609.958 8.75568 609.828 9.31913 609.828 9.92045V10.8864C609.828 11.7102 609.97 12.4086 610.254 12.9815C610.543 13.5497 610.943 13.983 611.454 14.2812C611.966 14.5748 612.56 14.7216 613.237 14.7216C613.677 14.7216 614.075 14.66 614.43 14.5369C614.79 14.4091 615.1 14.2197 615.36 13.9688C615.621 13.7131 615.822 13.3958 615.964 13.017L617.583 13.4716C617.413 14.0208 617.127 14.5038 616.724 14.9205C616.322 15.3324 615.824 15.6544 615.233 15.8864C614.641 16.1136 613.975 16.2273 613.237 16.2273ZM621.98 9.4375V16H620.304V5.09091H621.923V6.79545H622.065C622.321 6.24148 622.709 5.7964 623.23 5.46023C623.751 5.11932 624.423 4.94886 625.247 4.94886C625.985 4.94886 626.632 5.10038 627.186 5.40341C627.74 5.7017 628.171 6.15625 628.478 6.76705C628.786 7.37311 628.94 8.14015 628.94 9.06818V16H627.264V9.18182C627.264 8.32481 627.041 7.6572 626.596 7.17898C626.151 6.69602 625.54 6.45455 624.764 6.45455C624.229 6.45455 623.751 6.57055 623.329 6.80256C622.913 7.03456 622.583 7.37311 622.342 7.81818C622.1 8.26326 621.98 8.80303 621.98 9.4375ZM636.747 5.09091V6.51136H631.094V5.09091H636.747ZM632.741 2.47727H634.418V12.875C634.418 13.3485 634.486 13.7036 634.624 13.9403C634.766 14.1723 634.946 14.3286 635.163 14.4091C635.386 14.4848 635.62 14.5227 635.866 14.5227C636.051 14.5227 636.203 14.5133 636.321 14.4943C636.439 14.4706 636.534 14.4517 636.605 14.4375L636.946 15.9432C636.832 15.9858 636.674 16.0284 636.47 16.071C636.267 16.1184 636.009 16.142 635.696 16.142C635.223 16.142 634.759 16.0402 634.304 15.8366C633.854 15.633 633.48 15.3229 633.182 14.9062C632.888 14.4896 632.741 13.964 632.741 13.3295V2.47727ZM646.8 7.53409L645.295 7.96023C645.2 7.70928 645.06 7.46544 644.876 7.22869C644.696 6.98722 644.45 6.78835 644.137 6.6321C643.825 6.47585 643.424 6.39773 642.937 6.39773C642.269 6.39773 641.713 6.55161 641.268 6.85938C640.827 7.16241 640.607 7.5483 640.607 8.01705C640.607 8.43371 640.759 8.76278 641.062 9.00426C641.365 9.24574 641.838 9.44697 642.482 9.60795L644.102 10.0057C645.077 10.2424 645.804 10.6046 646.282 11.0923C646.76 11.5753 646.999 12.1979 646.999 12.9602C646.999 13.5852 646.819 14.1439 646.46 14.6364C646.104 15.1288 645.607 15.517 644.968 15.8011C644.329 16.0852 643.585 16.2273 642.738 16.2273C641.625 16.2273 640.704 15.9858 639.975 15.5028C639.246 15.0199 638.784 14.3144 638.59 13.3864L640.181 12.9886C640.333 13.5758 640.619 14.0161 641.04 14.3097C641.467 14.6032 642.023 14.75 642.71 14.75C643.491 14.75 644.111 14.5843 644.57 14.2528C645.034 13.9167 645.266 13.5142 645.266 13.0455C645.266 12.6667 645.134 12.3494 644.869 12.0938C644.603 11.8333 644.196 11.6392 643.647 11.5114L641.829 11.0852C640.83 10.8485 640.096 10.4815 639.627 9.98438C639.163 9.48248 638.931 8.85511 638.931 8.10227C638.931 7.48674 639.104 6.94223 639.45 6.46875C639.8 5.99527 640.276 5.62358 640.877 5.35369C641.483 5.08381 642.17 4.94886 642.937 4.94886C644.016 4.94886 644.864 5.18561 645.479 5.65909C646.1 6.13258 646.54 6.75758 646.8 7.53409ZM652.022 14.0114L651.909 14.7784C651.828 15.3182 651.705 15.8958 651.539 16.5114C651.378 17.1269 651.21 17.7069 651.035 18.2514C650.86 18.7959 650.716 19.2292 650.602 19.5511H649.324C649.385 19.2481 649.466 18.848 649.565 18.3509C649.664 17.8537 649.764 17.2973 649.863 16.6818C649.967 16.071 650.053 15.446 650.119 14.8068L650.204 14.0114H652.022ZM663.963 16.2557C663.272 16.2557 662.644 16.1255 662.081 15.8651C661.518 15.5999 661.07 15.2188 660.739 14.7216C660.407 14.2197 660.241 13.6136 660.241 12.9034C660.241 12.2784 660.365 11.7718 660.611 11.3835C660.857 10.9905 661.186 10.6828 661.598 10.4602C662.01 10.2377 662.464 10.072 662.962 9.96307C663.464 9.84943 663.968 9.75947 664.474 9.69318C665.137 9.60795 665.675 9.54403 666.087 9.50142C666.503 9.45407 666.806 9.37595 666.996 9.26705C667.19 9.15814 667.287 8.96875 667.287 8.69886V8.64205C667.287 7.94129 667.095 7.39678 666.712 7.00852C666.333 6.62027 665.758 6.42614 664.986 6.42614C664.186 6.42614 663.558 6.60133 663.104 6.9517C662.649 7.30208 662.33 7.67614 662.145 8.07386L660.554 7.50568C660.838 6.8428 661.217 6.3267 661.69 5.95739C662.169 5.58333 662.689 5.32292 663.253 5.17614C663.821 5.02462 664.38 4.94886 664.929 4.94886C665.279 4.94886 665.682 4.99148 666.136 5.0767C666.596 5.1572 667.038 5.32528 667.464 5.58097C667.895 5.83665 668.253 6.22254 668.537 6.73864C668.821 7.25473 668.963 7.94602 668.963 8.8125V16H667.287V14.5227H667.202C667.088 14.7595 666.899 15.0128 666.634 15.2827C666.368 15.5526 666.016 15.7822 665.575 15.9716C665.135 16.161 664.598 16.2557 663.963 16.2557ZM664.219 14.75C664.882 14.75 665.44 14.6198 665.895 14.3594C666.354 14.099 666.7 13.7628 666.932 13.3509C667.169 12.9389 667.287 12.5057 667.287 12.0511V10.517C667.216 10.6023 667.06 10.6804 666.818 10.7514C666.581 10.8177 666.307 10.8769 665.994 10.929C665.687 10.9763 665.386 11.0189 665.092 11.0568C664.804 11.09 664.569 11.1184 664.389 11.142C663.954 11.1989 663.546 11.2912 663.168 11.419C662.794 11.5421 662.491 11.7292 662.259 11.9801C662.031 12.2263 661.918 12.5625 661.918 12.9886C661.918 13.571 662.133 14.0114 662.564 14.3097C663 14.6032 663.551 14.75 664.219 14.75ZM673.699 9.4375V16H672.022V5.09091H673.642V6.79545H673.784C674.039 6.24148 674.428 5.7964 674.949 5.46023C675.469 5.11932 676.142 4.94886 676.966 4.94886C677.704 4.94886 678.35 5.10038 678.904 5.40341C679.458 5.7017 679.889 6.15625 680.197 6.76705C680.505 7.37311 680.659 8.14015 680.659 9.06818V16H678.983V9.18182C678.983 8.32481 678.76 7.6572 678.315 7.17898C677.87 6.69602 677.259 6.45455 676.483 6.45455C675.948 6.45455 675.469 6.57055 675.048 6.80256C674.631 7.03456 674.302 7.37311 674.061 7.81818C673.819 8.26326 673.699 8.80303 673.699 9.4375ZM687.841 16.2273C686.932 16.2273 686.129 15.9976 685.433 15.5384C684.737 15.0743 684.193 14.4209 683.8 13.5781C683.407 12.7306 683.21 11.7292 683.21 10.5739C683.21 9.42803 683.407 8.43371 683.8 7.59091C684.193 6.74811 684.74 6.09706 685.44 5.63778C686.141 5.1785 686.951 4.94886 687.869 4.94886C688.58 4.94886 689.141 5.06723 689.553 5.30398C689.969 5.53598 690.286 5.80114 690.504 6.09943C690.727 6.39299 690.9 6.63447 691.023 6.82386H691.165V1.45455H692.841V16H691.222V14.3239H691.023C690.9 14.5227 690.724 14.7737 690.497 15.0767C690.27 15.375 689.946 15.6425 689.524 15.8793C689.103 16.1113 688.542 16.2273 687.841 16.2273ZM688.068 14.7216C688.741 14.7216 689.309 14.5464 689.773 14.196C690.237 13.8409 690.589 13.3509 690.831 12.7259C691.072 12.0961 691.193 11.3693 691.193 10.5455C691.193 9.73106 691.075 9.01847 690.838 8.40767C690.601 7.79214 690.251 7.31392 689.787 6.97301C689.323 6.62737 688.75 6.45455 688.068 6.45455C687.358 6.45455 686.766 6.63684 686.293 7.00142C685.824 7.36127 685.471 7.85133 685.234 8.47159C685.002 9.08712 684.886 9.77841 684.886 10.5455C684.886 11.322 685.005 12.0275 685.241 12.6619C685.483 13.2917 685.838 13.7936 686.307 14.1676C686.78 14.5369 687.367 14.7216 688.068 14.7216ZM701.768 16V5.09091H703.445V16H701.768ZM702.621 3.27273C702.294 3.27273 702.012 3.16146 701.776 2.93892C701.544 2.71638 701.428 2.44886 701.428 2.13636C701.428 1.82386 701.544 1.55634 701.776 1.33381C702.012 1.11127 702.294 1 702.621 1C702.947 1 703.227 1.11127 703.459 1.33381C703.696 1.55634 703.814 1.82386 703.814 2.13636C703.814 2.44886 703.696 2.71638 703.459 2.93892C703.227 3.16146 702.947 3.27273 702.621 3.27273ZM710.634 16.2273C709.725 16.2273 708.922 15.9976 708.226 15.5384C707.53 15.0743 706.986 14.4209 706.593 13.5781C706.2 12.7306 706.003 11.7292 706.003 10.5739C706.003 9.42803 706.2 8.43371 706.593 7.59091C706.986 6.74811 707.533 6.09706 708.233 5.63778C708.934 5.1785 709.744 4.94886 710.662 4.94886C711.373 4.94886 711.934 5.06723 712.346 5.30398C712.762 5.53598 713.079 5.80114 713.297 6.09943C713.52 6.39299 713.693 6.63447 713.816 6.82386H713.958V1.45455H715.634V16H714.015V14.3239H713.816C713.693 14.5227 713.517 14.7737 713.29 15.0767C713.063 15.375 712.739 15.6425 712.317 15.8793C711.896 16.1113 711.335 16.2273 710.634 16.2273ZM710.861 14.7216C711.533 14.7216 712.102 14.5464 712.566 14.196C713.03 13.8409 713.382 13.3509 713.624 12.7259C713.865 12.0961 713.986 11.3693 713.986 10.5455C713.986 9.73106 713.868 9.01847 713.631 8.40767C713.394 7.79214 713.044 7.31392 712.58 6.97301C712.116 6.62737 711.543 6.45455 710.861 6.45455C710.151 6.45455 709.559 6.63684 709.086 7.00142C708.617 7.36127 708.264 7.85133 708.027 8.47159C707.795 9.08712 707.679 9.77841 707.679 10.5455C707.679 11.322 707.798 12.0275 708.034 12.6619C708.276 13.2917 708.631 13.7936 709.1 14.1676C709.573 14.5369 710.16 14.7216 710.861 14.7216ZM723.51 16.2273C722.459 16.2273 721.552 15.9953 720.79 15.5312C720.033 15.0625 719.448 14.4091 719.036 13.571C718.629 12.7282 718.425 11.7481 718.425 10.6307C718.425 9.51326 718.629 8.52841 719.036 7.67614C719.448 6.81913 720.021 6.15152 720.755 5.6733C721.493 5.19034 722.355 4.94886 723.34 4.94886C723.908 4.94886 724.469 5.04356 725.023 5.23295C725.577 5.42235 726.081 5.73011 726.536 6.15625C726.99 6.57765 727.353 7.13636 727.623 7.83239C727.892 8.52841 728.027 9.38542 728.027 10.4034V11.1136H719.618V9.66477H726.323C726.323 9.04924 726.2 8.5 725.953 8.01705C725.712 7.53409 725.366 7.15294 724.917 6.87358C724.471 6.59422 723.946 6.45455 723.34 6.45455C722.672 6.45455 722.095 6.62026 721.607 6.9517C721.124 7.27841 720.752 7.70455 720.492 8.23011C720.231 8.75568 720.101 9.31913 720.101 9.92045V10.8864C720.101 11.7102 720.243 12.4086 720.527 12.9815C720.816 13.5497 721.216 13.983 721.728 14.2812C722.239 14.5748 722.833 14.7216 723.51 14.7216C723.951 14.7216 724.348 14.66 724.703 14.5369C725.063 14.4091 725.373 14.2197 725.634 13.9688C725.894 13.7131 726.096 13.3958 726.238 13.017L727.857 13.4716C727.686 14.0208 727.4 14.5038 726.998 14.9205C726.595 15.3324 726.098 15.6544 725.506 15.8864C724.914 16.1136 724.249 16.2273 723.51 16.2273ZM733.787 16.2557C733.096 16.2557 732.469 16.1255 731.905 15.8651C731.342 15.5999 730.894 15.2188 730.563 14.7216C730.231 14.2197 730.066 13.6136 730.066 12.9034C730.066 12.2784 730.189 11.7718 730.435 11.3835C730.681 10.9905 731.01 10.6828 731.422 10.4602C731.834 10.2377 732.289 10.072 732.786 9.96307C733.288 9.84943 733.792 9.75947 734.299 9.69318C734.962 9.60795 735.499 9.54403 735.911 9.50142C736.328 9.45407 736.631 9.37595 736.82 9.26705C737.014 9.15814 737.111 8.96875 737.111 8.69886V8.64205C737.111 7.94129 736.919 7.39678 736.536 7.00852C736.157 6.62027 735.582 6.42614 734.81 6.42614C734.01 6.42614 733.382 6.60133 732.928 6.9517C732.473 7.30208 732.154 7.67614 731.969 8.07386L730.378 7.50568C730.662 6.8428 731.041 6.3267 731.515 5.95739C731.993 5.58333 732.514 5.32292 733.077 5.17614C733.645 5.02462 734.204 4.94886 734.753 4.94886C735.104 4.94886 735.506 4.99148 735.961 5.0767C736.42 5.1572 736.863 5.32528 737.289 5.58097C737.72 5.83665 738.077 6.22254 738.361 6.73864C738.645 7.25473 738.787 7.94602 738.787 8.8125V16H737.111V14.5227H737.026C736.912 14.7595 736.723 15.0128 736.458 15.2827C736.193 15.5526 735.84 15.7822 735.4 15.9716C734.959 16.161 734.422 16.2557 733.787 16.2557ZM734.043 14.75C734.706 14.75 735.265 14.6198 735.719 14.3594C736.178 14.099 736.524 13.7628 736.756 13.3509C736.993 12.9389 737.111 12.5057 737.111 12.0511V10.517C737.04 10.6023 736.884 10.6804 736.642 10.7514C736.406 10.8177 736.131 10.8769 735.819 10.929C735.511 10.9763 735.21 11.0189 734.917 11.0568C734.628 11.09 734.393 11.1184 734.213 11.142C733.778 11.1989 733.371 11.2912 732.992 11.419C732.618 11.5421 732.315 11.7292 732.083 11.9801C731.855 12.2263 731.742 12.5625 731.742 12.9886C731.742 13.571 731.957 14.0114 732.388 14.3097C732.824 14.6032 733.375 14.75 734.043 14.75ZM749.574 7.53409L748.068 7.96023C747.973 7.70928 747.834 7.46544 747.649 7.22869C747.469 6.98722 747.223 6.78835 746.911 6.6321C746.598 6.47585 746.198 6.39773 745.71 6.39773C745.043 6.39773 744.486 6.55161 744.041 6.85938C743.601 7.16241 743.381 7.5483 743.381 8.01705C743.381 8.43371 743.532 8.76278 743.835 9.00426C744.138 9.24574 744.612 9.44697 745.256 9.60795L746.875 10.0057C747.85 10.2424 748.577 10.6046 749.055 11.0923C749.534 11.5753 749.773 12.1979 749.773 12.9602C749.773 13.5852 749.593 14.1439 749.233 14.6364C748.878 15.1288 748.381 15.517 747.741 15.8011C747.102 16.0852 746.359 16.2273 745.511 16.2273C744.399 16.2273 743.478 15.9858 742.749 15.5028C742.019 15.0199 741.558 14.3144 741.364 13.3864L742.955 12.9886C743.106 13.5758 743.393 14.0161 743.814 14.3097C744.24 14.6032 744.796 14.75 745.483 14.75C746.264 14.75 746.884 14.5843 747.344 14.2528C747.808 13.9167 748.04 13.5142 748.04 13.0455C748.04 12.6667 747.907 12.3494 747.642 12.0938C747.377 11.8333 746.97 11.6392 746.42 11.5114L744.602 11.0852C743.603 10.8485 742.869 10.4815 742.401 9.98438C741.937 9.48248 741.705 8.85511 741.705 8.10227C741.705 7.48674 741.877 6.94223 742.223 6.46875C742.573 5.99527 743.049 5.62358 743.651 5.35369C744.257 5.08381 744.943 4.94886 745.71 4.94886C746.79 4.94886 747.637 5.18561 748.253 5.65909C748.873 6.13258 749.313 6.75758 749.574 7.53409ZM753.517 16.1136C753.167 16.1136 752.866 15.9882 752.615 15.7372C752.364 15.4863 752.239 15.1856 752.239 14.8352C752.239 14.4848 752.364 14.1842 752.615 13.9332C752.866 13.6823 753.167 13.5568 753.517 13.5568C753.868 13.5568 754.168 13.6823 754.419 13.9332C754.67 14.1842 754.796 14.4848 754.796 14.8352C754.796 15.0672 754.737 15.2803 754.618 15.4744C754.505 15.6686 754.351 15.8248 754.157 15.9432C753.967 16.0568 753.754 16.1136 753.517 16.1136Z" fill="#090346"/>
</svg>
